<?xml version="1.0" encoding="utf-8"?>
<!-- Generator: Adobe Illustrator 23.0.4, SVG Export Plug-In . SVG Version: 6.00 Build 0)  -->
<svg version="1.1" id="HQFL" xmlns="http://www.w3.org/2000/svg" xmlns:xlink="http://www.w3.org/1999/xlink" x="0px" y="0px"
	 viewBox="0 0 595.3 595.3" style="enable-background:new 0 0 595.3 595.3;" xml:space="preserve">
<style type="text/css">
	.st0{fill:#163856;}
</style>
<g>
	<path class="st0" d="M504.8,93.7c-49.6-49.6-115.5-76.9-185.7-76.9c-44.5,0-88,11.4-126,32.1c-6.9-14.6-15.6-28.7-27.2-41.5
		c-1.4-1.6-3.4-2.4-5.5-2.3c-2.1,0.1-3.9,1.2-5.1,2.8C125,51.4,104.5,95.5,93.6,140c-0.7,2.6-1.5,6.9-1.5,6.9s-2.1,0.7-3.9,1.8
		c-41.5,19.8-79.5,70.7-74,121.8c0.2,2.2,1.5,4.1,3.4,5.2c2,1.1,4.2,1.2,6.2,0.2c11.1-5.3,22-9.3,31.9-12c0,0,0.5-0.1,1.3-0.3
		c-0.3,4.9-0.4,10.6-0.4,15.6c0,70.1,27.3,136.1,76.9,185.7c0.8,0.8,1.6,1.6,2.4,2.3c0,0.5,0,1.1-0.1,1.6
		c-2.9,49.1-26.1,80.4-72.9,98.5c-2.5,1-4.1,3.2-4.3,5.8c-0.2,2.7,1.1,5.1,3.4,6.4c31,17.8,71.7,12.9,112.1-13.3
		c44.6,23,84.5,25,118.7,5.6c2.2-1.3,3.5-3.6,3.4-6.1c-0.1-2.6-1.6-4.8-3.8-5.9c-13.7-6.6-26-15.3-37-25.8c20.4,5,42.3,7.8,63.9,7.8
		c70.1,0,136.1-27.3,185.7-76.9s76.9-115.5,76.9-185.7C581.6,209.2,554.3,143.3,504.8,93.7z M132.7,448.1
		C92.1,403.3,67.4,343.9,67.4,279c0-6.1,0.2-12.7,0.6-18.7c6.2-0.6,11.7-0.4,16.1,0.6c3.8,26.1,10.8,52.3,21.1,78.6
		c16.1,41.3,25.2,77.6,27.4,108.3l0.1,0.1C132.7,447.9,132.7,448,132.7,448.1z M130,85.3c-3.6-10.3,11.8-15.4,15.4-5.2
		C149,90.3,133.6,95.5,130,85.3z M508.2,111.9c-1.2-1.4-2.4-2.7-3.7-4.1C505.7,109.2,507,110.5,508.2,111.9z M571.6,273.1
		c0-0.4,0-0.7,0-1.1C571.6,272.4,571.6,272.8,571.6,273.1z M571.4,266.5c0-0.4,0-0.7-0.1-1.1C571.3,265.8,571.4,266.1,571.4,266.5z
		 M571,259.7c0,0,0-0.1,0-0.1C571,259.6,571,259.6,571,259.7z M570.5,253.9c0-0.4-0.1-0.7-0.1-1.1
		C570.4,253.2,570.4,253.6,570.5,253.9z M569.7,247.4c0-0.4-0.1-0.8-0.1-1.1C569.6,246.6,569.7,247,569.7,247.4z M568.8,240.7
		c0-0.1,0-0.2-0.1-0.3C568.8,240.5,568.8,240.6,568.8,240.7z M567.9,235.1c-0.1-0.4-0.1-0.8-0.2-1.2
		C567.7,234.4,567.8,234.8,567.9,235.1z M566.7,228.8c-0.1-0.4-0.2-0.8-0.3-1.3C566.5,228,566.6,228.4,566.7,228.8z M565.3,222.3
		c0-0.2-0.1-0.4-0.1-0.6C565.2,221.9,565.2,222.1,565.3,222.3z M563.9,216.9c-0.1-0.4-0.2-0.8-0.3-1.3
		C563.7,216,563.8,216.4,563.9,216.9z M562.3,210.7c-0.1-0.5-0.3-0.9-0.4-1.4C562,209.7,562.2,210.2,562.3,210.7z M560.4,204.4
		c-0.1-0.3-0.2-0.7-0.3-1C560.2,203.7,560.3,204.1,560.4,204.4z M558.7,199.1c-0.2-0.5-0.3-1-0.5-1.4
		C558.4,198.2,558.6,198.7,558.7,199.1z M556.6,193.1c-0.2-0.5-0.4-1.1-0.6-1.6C556.2,192,556.4,192.6,556.6,193.1z M554.4,187.2
		c-0.2-0.5-0.4-1-0.6-1.5C554,186.2,554.2,186.7,554.4,187.2z M552.3,182c-0.2-0.5-0.5-1.1-0.7-1.6
		C551.8,180.9,552.1,181.5,552.3,182z M549.7,176.2c-0.3-0.6-0.5-1.2-0.8-1.8C549.2,175,549.5,175.6,549.7,176.2z M547.2,170.7
		c-0.3-0.7-0.7-1.4-1-2.1C546.5,169.3,546.9,170,547.2,170.7z M544.7,165.5c-0.3-0.6-0.6-1.2-0.9-1.9
		C544.1,164.3,544.4,164.9,544.7,165.5z M541.7,159.9c-0.4-0.7-0.7-1.3-1.1-2C541,158.5,541.4,159.2,541.7,159.9z M538.9,154.9
		c-0.5-0.9-1-1.8-1.5-2.7C537.9,153.1,538.4,154,538.9,154.9z M536,149.8c-0.4-0.7-0.8-1.4-1.2-2.1
		C535.1,148.4,535.5,149.1,536,149.8z M532.6,144.2c-0.5-0.7-0.9-1.5-1.4-2.2C531.6,142.8,532.1,143.5,532.6,144.2z M529.7,139.8
		c-0.7-1.1-1.4-2.2-2.2-3.2C528.2,137.6,528.9,138.7,529.7,139.8z M526.2,134.7c-0.8-1.1-1.5-2.2-2.3-3.3
		C524.6,132.5,525.4,133.6,526.2,134.7z M522.4,129.4c-0.6-0.8-1.2-1.6-1.7-2.3C521.2,127.8,521.8,128.6,522.4,129.4z M519.4,125.5
		c-1-1.2-1.9-2.5-2.9-3.7C517.5,123,518.4,124.2,519.4,125.5z M515.4,120.4c-1.1-1.3-2.2-2.7-3.3-4
		C513.2,117.7,514.3,119,515.4,120.4z M511.1,115.3c-0.7-0.8-1.4-1.6-2.1-2.4C509.8,113.7,510.4,114.5,511.1,115.3z M503.6,106.8
		c-1.4-1.5-2.7-2.9-4.1-4.3C500.8,103.9,502.2,105.4,503.6,106.8z M498.9,102c-0.8-0.8-1.6-1.6-2.4-2.4
		C497.3,100.4,498.1,101.2,498.9,102z M468.9,481.8c-34.2,25.2-75,42-119.2,47.3v-58.6l-22-0.3l-7.2,18.1l-40.1-0.5l47.2-119.4
		l22.1,0.2v-48.5l-22-0.3l-7.2,18.1l-40.1-0.5l47.2-119.4l22.1,0.2v-31.1c-1,0-2.2,0-3.2,0c-21.8-0.3-38.5-6.9-49.4-18.8
		c-9.6-10.5-14.6-25-14.4-41.5c0.2-17.5,5.4-33.1,15.4-44.2c12-13.4,31.7-19.5,51.3-19.5c0,0,0.2,0,0.3,0V28.7
		c45.5,5.4,87.3,23,122.1,49.5c-1-0.7-1.9-1.4-2.9-2.1V481.8z M349.7,529.2c-2.2,0.3-4.5,0.5-6.8,0.7
		C345.2,529.7,347.4,529.5,349.7,529.2z M341.2,530.1c-1.4,0.1-2.8,0.2-4.2,0.3C338.4,530.3,339.8,530.2,341.2,530.1z M333.7,530.6
		c-0.7,0-1.4,0.1-2.2,0.1C332.3,530.7,333,530.6,333.7,530.6z M326.5,530.9c-0.4,0-0.9,0-1.3,0C325.7,530.9,326.1,530.9,326.5,530.9
		z M274.4,31c3-0.6,6.1-1.1,9.1-1.5C280.5,30,277.4,30.5,274.4,31z M284.9,29.3c1.1-0.2,2.2-0.3,3.3-0.4
		C287.1,29,286,29.2,284.9,29.3z M289.7,28.7c1.1-0.1,2.2-0.3,3.3-0.4C291.9,28.5,290.8,28.6,289.7,28.7z M294.4,28.2
		c1.5-0.2,3.1-0.3,4.6-0.4C297.5,27.9,296,28,294.4,28.2z M299.1,27.8c1.6-0.1,3.1-0.2,4.7-0.3C302.2,27.5,300.6,27.6,299.1,27.8z
		 M342.9,28c2.3,0.2,4.5,0.4,6.7,0.7C347.4,28.4,345.2,28.2,342.9,28z M496,99.1c-1.5-1.4-2.9-2.8-4.4-4.2
		C493.1,96.3,494.6,97.7,496,99.1z M490.8,94.2c-1.6-1.5-3.2-2.9-4.8-4.3C487.7,91.3,489.3,92.7,490.8,94.2z M485.8,89.6
		c-0.9-0.8-1.8-1.5-2.7-2.3C484,88.1,484.9,88.8,485.8,89.6z M483,87.2c-1.7-1.4-3.4-2.8-5.1-4.2C479.6,84.3,481.3,85.7,483,87.2z
		 M477.2,82.4c-1.7-1.4-3.4-2.7-5.2-4.1C473.7,79.6,475.5,81,477.2,82.4z M319.6,26.9c-1.6,0-3.1,0-4.7,0
		C316.5,26.9,318,26.9,319.6,26.9z M341.3,27.8c-1.4-0.1-2.9-0.2-4.3-0.3C338.5,27.6,339.9,27.7,341.3,27.8z M333.8,27.3
		c-0.7,0-1.5-0.1-2.2-0.1C332.4,27.2,333.1,27.3,333.8,27.3z M326.6,27c-0.4,0-0.9,0-1.3,0C325.7,27,326.2,27,326.6,27z M305.2,27.3
		c1.1-0.1,2.2-0.1,3.3-0.2C307.4,27.2,306.3,27.3,305.2,27.3z M310.1,27.1c1.1,0,2.2-0.1,3.3-0.1C312.3,27,311.2,27,310.1,27.1z
		 M244.5,38.4c-1.5,0.5-2.9,0.9-4.4,1.4v478.4c1.4,0.5,2.8,0.9,4.2,1.3c-2.8-0.9-5.6-1.8-8.3-2.7c-0.6-0.8-1.1-1.5-1.6-2.2
		c-0.1-0.2-0.3-0.4-0.4-0.6c-0.9-1.3-1.7-2.6-2.6-3.9c-10.9-16.8-19.2-36.1-24.5-57.5c-11.3-45.5-4.1-95.3,3.7-148.1
		c9.1-61.9,18.4-126,1.8-195.7c-3.9-16.5-8.5-33.2-14.8-49.5c-0.1-0.2-0.2-0.4-0.3-0.7C212.1,50.4,228,43.6,244.5,38.4z M273,31.3
		c-1.1,0.2-2.2,0.4-3.2,0.6C270.9,31.7,271.9,31.5,273,31.3z M268.3,32.2c-1.1,0.2-2.2,0.5-3.3,0.7
		C266.1,32.7,267.2,32.5,268.3,32.2z M263.8,33.2c-3,0.7-6,1.4-8.9,2.2C257.8,34.7,260.8,33.9,263.8,33.2z M253.6,35.8
		c-1.1,0.3-2.1,0.6-3.2,0.9C251.4,36.4,252.5,36.1,253.6,35.8z M248.9,37.1c-1.1,0.3-2.1,0.6-3.2,1
		C246.8,37.7,247.9,37.4,248.9,37.1z M288.6,566.2c-34.9,18.2-75.6,11.4-113.7-9.8l-14-539.5c23.6,27.5,33.6,59,42.7,99.3
		c28.8,127.3-29.1,238-5.9,335.9C211.9,512.4,245.6,547.3,288.6,566.2z M254.7,522.5c1.2,0.3,2.3,0.6,3.5,0.9
		C257.1,523.1,255.9,522.8,254.7,522.5z M245,519.7c1.3,0.4,2.6,0.8,3.8,1.1C247.5,520.5,246.2,520.1,245,519.7z M249.8,521.2
		c1.2,0.3,2.4,0.7,3.6,1C252.2,521.9,251,521.5,249.8,521.2z M283.1,528.3c-1-0.1-2-0.3-2.9-0.5C281.1,528,282.1,528.2,283.1,528.3z
		 M278,527.5c-1-0.2-2-0.3-3-0.5C276,527.2,277,527.4,278,527.5z M273,526.6c-1-0.2-2.1-0.4-3.1-0.6
		C270.9,526.2,271.9,526.4,273,526.6z M268,525.7c-1.1-0.2-2.2-0.5-3.2-0.7C265.8,525.2,266.9,525.4,268,525.7z M263.1,524.6
		c-1.1-0.3-2.2-0.5-3.3-0.8C260.8,524.1,261.9,524.3,263.1,524.6z M285.3,528.6c0.9,0.1,1.9,0.3,2.8,0.4
		C287.2,528.9,286.3,528.8,285.3,528.6z M290.6,529.3c0.9,0.1,1.8,0.2,2.7,0.3C292.4,529.5,291.5,529.4,290.6,529.3z M295.9,529.9
		c0.9,0.1,1.7,0.2,2.6,0.2C297.6,530,296.8,529.9,295.9,529.9z M301.3,530.3c0.8,0.1,1.6,0.1,2.5,0.2
		C302.9,530.4,302.1,530.4,301.3,530.3z M306.7,530.7c0.7,0,1.5,0.1,2.2,0.1C308.2,530.7,307.5,530.7,306.7,530.7z M312.4,530.9
		c0.6,0,1.2,0,1.8,0.1C313.6,530.9,313,530.9,312.4,530.9z M496.5,458.3c0.8-0.8,1.6-1.5,2.3-2.3
		C498.1,456.7,497.3,457.5,496.5,458.3z M468.9,481.8c0.9-0.7,1.9-1.4,2.8-2.1C470.8,480.5,469.9,481.2,468.9,481.8z M472.3,479.3
		c1.6-1.2,3.2-2.5,4.8-3.8C475.5,476.8,473.9,478.1,472.3,479.3z M477.9,474.9c1.7-1.4,3.3-2.7,5-4.1
		C481.2,472.2,479.6,473.5,477.9,474.9z M483.1,470.6c0.9-0.7,1.7-1.5,2.6-2.2C484.9,469.1,484,469.8,483.1,470.6z M486.3,467.8
		c1.5-1.3,3-2.7,4.4-4C489.3,465.1,487.8,466.5,486.3,467.8z M491.6,463c1.4-1.4,2.9-2.7,4.3-4.1C494.5,460.2,493.1,461.6,491.6,463
		z M504.5,450c1.2-1.3,2.4-2.6,3.5-3.9C506.9,447.4,505.7,448.7,504.5,450z M499.6,455.1c1.3-1.3,2.6-2.7,3.8-4
		C502.2,452.5,500.9,453.8,499.6,455.1z M571.6,284.9c0,0.4,0,0.7,0,1.1C571.6,285.6,571.6,285.2,571.6,284.9z M571.4,291.5
		c0,0.4,0,0.7-0.1,1.1C571.3,292.2,571.4,291.9,571.4,291.5z M571,298.3c0,0.1,0,0.1,0,0.2C570.9,298.4,570.9,298.4,571,298.3z
		 M570.4,304.1c0,0.4-0.1,0.7-0.1,1.1C570.4,304.8,570.4,304.4,570.4,304.1z M569.7,310.6c0,0.4-0.1,0.8-0.1,1.1
		C569.6,311.3,569.7,311,569.7,310.6z M568.8,317.3c0,0.1,0,0.2-0.1,0.4C568.7,317.5,568.8,317.4,568.8,317.3z M567.8,322.9
		c-0.1,0.4-0.1,0.8-0.2,1.1C567.7,323.6,567.8,323.2,567.8,322.9z M566.6,329.2c-0.1,0.4-0.2,0.8-0.3,1.2
		C566.5,330,566.6,329.6,566.6,329.2z M565.2,335.7c0,0.2-0.1,0.4-0.2,0.6C565.1,336.1,565.2,335.9,565.2,335.7z M563.9,341.1
		c-0.1,0.4-0.2,0.8-0.3,1.2C563.7,342,563.8,341.5,563.9,341.1z M562.2,347.3c-0.1,0.5-0.3,0.9-0.4,1.4
		C562,348.2,562.1,347.8,562.2,347.3z M560.4,353.6c-0.1,0.3-0.2,0.6-0.3,0.9C560.2,354.3,560.3,354,560.4,353.6z M558.7,358.9
		c-0.2,0.5-0.3,0.9-0.5,1.4C558.4,359.8,558.5,359.3,558.7,358.9z M556.6,364.9c-0.2,0.5-0.4,1.1-0.6,1.6
		C556.2,365.9,556.4,365.4,556.6,364.9z M554.3,370.9c-0.2,0.5-0.4,0.9-0.6,1.4C553.9,371.8,554.1,371.4,554.3,370.9z M552.2,376
		c-0.2,0.5-0.4,1.1-0.7,1.6C551.8,377,552,376.5,552.2,376z M549.7,381.8c-0.3,0.6-0.5,1.2-0.8,1.8
		C549.2,383,549.4,382.4,549.7,381.8z M547.1,387.5c-0.3,0.6-0.6,1.3-0.9,1.9C546.5,388.7,546.8,388.1,547.1,387.5z M544.6,392.4
		c-0.3,0.6-0.6,1.2-0.9,1.8C544,393.7,544.3,393.1,544.6,392.4z M541.6,398.1c-0.4,0.7-0.7,1.3-1.1,2
		C540.9,399.4,541.3,398.8,541.6,398.1z M538.8,403.3c-0.5,0.8-0.9,1.6-1.4,2.5C537.8,404.9,538.3,404.1,538.8,403.3z M535.9,408.2
		c-0.4,0.7-0.8,1.4-1.3,2.1C535,409.7,535.5,408.9,535.9,408.2z M532.5,413.7c-0.5,0.7-0.9,1.4-1.4,2.1
		C531.6,415.2,532,414.4,532.5,413.7z M529.5,418.3c-0.7,1-1.4,2-2,3C528.1,420.3,528.8,419.3,529.5,418.3z M526.1,423.3
		c-0.7,1-1.5,2.1-2.2,3.1C524.6,425.4,525.4,424.4,526.1,423.3z M522.3,428.6c-0.6,0.8-1.1,1.5-1.7,2.3
		C521.2,430.1,521.7,429.4,522.3,428.6z M519.2,432.6c-0.9,1.2-1.8,2.3-2.7,3.5C517.4,435,518.3,433.8,519.2,432.6z M515.3,437.6
		c-1,1.3-2,2.5-3.1,3.7C513.2,440.1,514.3,438.9,515.3,437.6z M511.1,442.7c-0.7,0.8-1.3,1.6-2,2.3
		C509.7,444.2,510.4,443.5,511.1,442.7z"/>
	<polygon class="st0" points="370.7,320.5 377.4,338.8 417.9,339.3 373.4,218.7 349.7,218.4 349.7,218.4 349.7,261.1 349.7,261 
		350,260.3 362,297 349.7,296.9 349.7,296.9 349.7,320.3 349.7,320.3 	"/>
	<polygon class="st0" points="349.7,296.9 349.7,261.1 336.8,296.8 	"/>
	<path class="st0" d="M349.7,91c0.1,0,0.2,0,0.3,0c11.7-0.2,23.5,6.5,24.9,19.6l40,0.5c-0.6-17-9.8-29.2-23-37.1
		c-11.7-6.9-26.9-10.7-42.2-10.7c0,0,0,0-0.1,0L349.7,91C349.7,91,349.7,91,349.7,91z"/>
	<polygon class="st0" points="370.7,470.8 377.4,489.1 417.9,489.6 373.4,369 349.7,368.7 349.7,368.7 349.7,411.4 349.7,411.3 
		350,410.6 362,447.3 349.7,447.2 349.7,447.2 349.7,470.6 349.7,470.6 	"/>
	<path class="st0" d="M391.3,177.1c8.3-5.4,23.9-21.4,24.3-38.6l-39.7-0.5c-2.1,14.2-11.4,21.3-26.2,21.9c0,0,0,0-0.1,0v27.4
		c0,0,0,0,0.1,0C367.3,187.1,381.1,183.7,391.3,177.1z"/>
	<polygon class="st0" points="349.7,447.2 349.7,411.4 336.8,447.1 	"/>
	<path class="st0" d="M322.6,126.5c-0.2,19.2,8.7,33.1,24.9,33.4c0.7,0,1.5,0,2.2,0V91C328,91.6,322.8,111.3,322.6,126.5z"/>
</g>
</svg>
