<?xml version="1.0" encoding="utf-8"?>
<!-- Generator: Adobe Illustrator 23.0.4, SVG Export Plug-In . SVG Version: 6.00 Build 0)  -->
<svg version="1.1" id="Capa_1" xmlns="http://www.w3.org/2000/svg" xmlns:xlink="http://www.w3.org/1999/xlink" x="0px" y="0px"
	 viewBox="0 0 595.3 595.3" style="enable-background:new 0 0 595.3 595.3;" xml:space="preserve">
<style type="text/css">
	.st0{fill:#FFFFFF;}
	.st1{fill:#163856;}
</style>
<g>
	<path class="st0" d="M297,3.3c163,0,295,132.2,295,295c0,163-132.2,295-295,295S2,461.1,2,298.3C2,135.3,134.2,3.3,297,3.3L297,3.3
		z"/>
</g>
<path class="st1" d="M151.1,193.3h35.7l0.1-0.1l253.7,164.1h0.4v33.6h-38v-0.4L152,228.5h-0.9V193.3L151.1,193.3z M141.1,184.9
	v215.5h307.3V184.9H141.1z"/>
<path class="st1" d="M220.8,170.6h-2.5v-13.7c0-1.1,0.1-2.4,0.3-3.9l0,0c-0.3,0.9-0.5,1.5-0.6,2l-7.3,15.7h-1.3l-7.3-15.6
	c-0.3-0.5-0.4-1.1-0.6-2.2l0,0c0.1,0.8,0.1,2.2,0.1,4.1v13.7H199v-20.4h3.3l6.6,14.3c0.5,1.1,0.9,1.9,1,2.4h0.1
	c0.4-1.1,0.8-1.9,1-2.5l6.7-14.2h3.2v20.3H220.8z M241.6,170.6h-11.4v-20.4h11v2.2h-8.5v6.8h7.9v2.2h-7.9v7.2h8.9V170.6L241.6,170.6
	z M267,170.6h-3l-11.2-16.3c-0.3-0.4-0.5-0.9-0.6-1.3H252c0.1,0.4,0.1,1.4,0.1,2.8v14.8h-2.5v-20.4h3.3l10.8,16.1
	c0.5,0.6,0.8,1.1,0.9,1.4h0.1c-0.1-0.6-0.1-1.6-0.1-3v-14.4h2.5v20.4L267,170.6L267,170.6z M275.3,169.7v-2.8
	c0.4,0.3,0.8,0.5,1.3,0.8s1,0.4,1.5,0.6c0.5,0.1,1,0.3,1.6,0.4c0.5,0.1,1,0.1,1.5,0.1c1.5,0,2.7-0.3,3.5-0.8
	c0.8-0.5,1.1-1.4,1.1-2.4c0-0.5-0.1-1-0.4-1.4c-0.3-0.4-0.6-0.8-1-1.1c-0.5-0.4-1-0.6-1.6-1c-0.6-0.3-1.3-0.6-2-1s-1.4-0.8-2.2-1.1
	c-0.6-0.4-1.3-0.8-1.6-1.3c-0.5-0.5-0.9-1-1.1-1.5c-0.3-0.5-0.4-1.3-0.4-2c0-0.9,0.3-1.8,0.6-2.4c0.4-0.6,1-1.3,1.6-1.6
	c0.8-0.5,1.5-0.8,2.4-1s1.8-0.4,2.8-0.4c2.2,0,3.7,0.3,4.7,0.8v2.7c-1.3-0.9-2.9-1.3-4.9-1.3c-0.5,0-1.1,0-1.6,0.1s-1,0.3-1.5,0.5
	c-0.4,0.3-0.8,0.5-1,1c-0.3,0.4-0.4,0.9-0.4,1.4c0,0.5,0.1,1,0.3,1.4c0.3,0.4,0.5,0.8,0.9,1c0.4,0.3,0.9,0.6,1.5,0.9
	c0.6,0.3,1.3,0.6,2,1s1.5,0.8,2.2,1.1c0.6,0.4,1.3,0.9,1.8,1.3c0.5,0.5,0.9,1,1.3,1.6c0.3,0.6,0.5,1.3,0.5,2c0,1-0.3,1.9-0.6,2.5
	c-0.4,0.8-1,1.3-1.6,1.6c-0.8,0.4-1.5,0.8-2.4,1c-0.9,0.3-1.9,0.3-2.9,0.3c-0.4,0-0.8,0-1.3-0.1c-0.5,0-1-0.1-1.5-0.3
	c-0.5-0.1-1-0.3-1.5-0.4C276,170.1,275.6,169.9,275.3,169.7L275.3,169.7z M303.8,169.7v-2.8c0.4,0.3,0.8,0.5,1.3,0.8s1,0.4,1.5,0.6
	c0.5,0.1,1,0.3,1.6,0.4c0.5,0.1,1,0.1,1.5,0.1c1.5,0,2.7-0.3,3.5-0.8c0.8-0.5,1.1-1.4,1.1-2.4c0-0.5-0.1-1-0.4-1.4
	c-0.3-0.4-0.6-0.8-1-1.1c-0.4-0.4-1-0.6-1.6-1c-0.6-0.3-1.3-0.6-2-1s-1.4-0.8-2.2-1.1c-0.6-0.4-1.3-0.8-1.6-1.3
	c-0.5-0.5-0.9-1-1.1-1.5c-0.3-0.5-0.4-1.3-0.4-2c0-0.9,0.3-1.8,0.6-2.4c0.4-0.6,1-1.3,1.6-1.6c0.8-0.5,1.5-0.8,2.4-1
	s1.8-0.4,2.8-0.4c2.2,0,3.7,0.3,4.7,0.8v2.7c-1.3-0.9-2.9-1.3-4.9-1.3c-0.5,0-1.1,0-1.6,0.1s-1,0.3-1.5,0.5c-0.4,0.3-0.8,0.5-1,1
	c-0.3,0.4-0.4,0.9-0.4,1.4c0,0.5,0.1,1,0.3,1.4c0.3,0.4,0.5,0.8,0.9,1c0.4,0.3,0.9,0.6,1.5,0.9c0.5,0.3,1.3,0.6,2,1s1.5,0.8,2.2,1.1
	c0.6,0.4,1.3,0.9,1.8,1.3c0.5,0.5,0.9,1,1.3,1.6c0.3,0.6,0.5,1.3,0.5,2c0,1-0.3,1.9-0.6,2.5c-0.4,0.8-1,1.3-1.6,1.6
	c-0.8,0.4-1.5,0.8-2.4,1c-0.9,0.3-1.9,0.3-2.9,0.3c-0.4,0-0.8,0-1.3-0.1c-0.5,0-1-0.1-1.5-0.3c-0.5-0.1-1-0.3-1.5-0.4
	C304.6,170.1,304.2,169.9,303.8,169.7L303.8,169.7z M341.7,170.6h-2.8l-2.3-5.7h-9.1l-2.2,5.7h-2.8l8.2-20.4h2.7L341.7,170.6
	L341.7,170.6z M335.8,162.6l-3.4-8.7c-0.1-0.3-0.3-0.8-0.4-1.4h-0.1c-0.1,0.6-0.3,1-0.4,1.4l-3.4,8.7H335.8L335.8,162.6z
	 M366.1,170.6h-3l-11.2-16.3c-0.3-0.4-0.5-0.9-0.6-1.3h-0.1c0.1,0.4,0.1,1.4,0.1,2.8v14.8h-2.5v-20.4h3.3l10.8,16.1
	c0.5,0.6,0.8,1.1,0.9,1.4h0.1c-0.1-0.6-0.1-1.6-0.1-3v-14.4h2.5v20.4L366.1,170.6L366.1,170.6z M392.2,170.6h-2.8l-2.3-5.7H378
	l-2.2,5.7H373l8.2-20.4h2.7L392.2,170.6L392.2,170.6z M386.2,162.6l-3.4-8.7c-0.1-0.3-0.3-0.8-0.4-1.4l0,0c-0.1,0.6-0.3,1-0.4,1.4
	l-3.4,8.7H386.2z"/>
<path class="st1" d="M278.9,437.1v-20.9h2.9v20.9H278.9L278.9,437.1z M308.7,437.1h-3l-11.2-16.3c-0.3-0.4-0.5-0.9-0.6-1.3h-0.1
	c0.1,0.4,0.1,1.4,0.1,2.8v14.8h-2.5v-20.4h3.3l10.8,16.1c0.5,0.6,0.8,1.1,0.9,1.4h0.1c-0.1-0.6-0.1-1.6-0.1-3v-14.4h2.5v20.4H308.7z
	"/>
<g>
	<path class="st1" d="M237.8,465.2l-5.7-1.9l-6.7,19.4l2.4,0.9l2.5-7.3l2.8,0.9c2.3,0.8,4.3,0.9,6.1,0.1c1.8-0.8,2.9-2,3.5-3.8
		c0.6-1.9,0.5-3.5-0.4-4.9C241.5,467.1,240,465.9,237.8,465.2z M240.1,472.9c-0.5,1.3-1.3,2.2-2.4,2.5s-2.5,0.3-4.2-0.3l-2.5-0.9
		l2.8-8l2.8,1.1C239.9,468.5,241,470.4,240.1,472.9z"/>
	<path class="st1" d="M220,459c-0.6-0.5-1.4-1-2.3-1.4l-6-2.7l-8.4,18.8l2.3,1l3.5-8l1.9,0.9c0.5,0.1,0.9,0.4,1.1,0.6
		s0.5,0.5,0.8,0.9c0.3,0.4,0.4,0.8,0.5,1.3c0.1,0.5,0.3,1,0.4,1.6l1,6.7l2.8,1.3l-1.3-7.3c-0.1-0.5-0.1-1-0.3-1.4
		c0-0.4-0.1-0.8-0.3-1.1c-0.1-0.3-0.3-0.6-0.4-0.9c-0.1-0.3-0.4-0.6-0.6-0.9c0.8,0.1,1.5,0.1,2.2,0.1c0.8-0.1,1.3-0.3,1.9-0.5
		c0.5-0.3,1-0.5,1.5-1c0.5-0.4,0.9-1,1.1-1.6c0.4-0.9,0.5-1.6,0.5-2.4c-0.1-0.8-0.3-1.5-0.6-2.2C221.1,460.1,220.6,459.5,220,459z
		 M219.1,464.4c-0.3,0.6-0.6,1-1,1.4c-0.5,0.4-0.9,0.6-1.4,0.8c-0.5,0.1-1.1,0.1-1.6,0.1c-0.6-0.1-1.1-0.3-1.8-0.5l-3.2-1.4l3-6.8
		l3.3,1.5c1.4,0.5,2.3,1.3,2.7,2.2C219.6,462.5,219.4,463.4,219.1,464.4z"/>
	<path class="st1" d="M198.3,446.1c-2.8-1.8-5.4-2.4-8.1-1.8c-2.7,0.6-4.8,2.3-6.7,5.1c-1.6,2.5-2.3,5.2-1.8,7.7
		c0.5,2.7,2,4.8,4.7,6.5c2.7,1.8,5.3,2.3,8,1.6c2.7-0.6,4.8-2.3,6.7-5.1c1.6-2.5,2.3-5.2,1.8-7.7S200.8,447.7,198.3,446.1z
		 M198.7,459c-1.4,2.3-3.2,3.5-5.1,4.1c-2,0.4-3.9,0-6-1.3c-1.9-1.3-2.9-2.9-3.3-4.9s0.1-4.1,1.5-6.2c1.3-2,3-3.4,5.1-3.9
		c2-0.5,4.1-0.1,6,1.1s3,2.9,3.5,4.8C200.7,454.5,200.2,456.7,198.7,459z"/>
	<path class="st1" d="M184.7,438.1c-0.6-1.4-1.8-2.7-3.3-4.1c-2.4-2-5.1-3-8-2.9c-2.9,0.1-5.4,1.5-7.6,3.9c-2,2.3-2.9,4.7-2.8,7.3
		c0.3,2.7,1.5,4.9,3.8,7c1.8,1.5,3.5,2.5,5.3,3l1.8-1.6c-1.8-0.4-3.5-1.3-5.2-2.7c-1.8-1.5-2.8-3.4-2.9-5.4c-0.1-2.2,0.6-4.1,2.3-6
		c1.6-1.9,3.7-3,5.8-3.2c2.2-0.3,4.2,0.5,6.1,2.2c1.4,1.3,2.4,2.7,3,4.3L184.7,438.1z"/>
	<path class="st1" d="M385.1,450.7l6.6,12.8c0.6,1.3,1.1,2.2,1.5,2.7c-0.3-0.1-0.6-0.4-1.4-0.8l-17-9.4l-2.9,1.5l9.3,18.2l2.3-1.1
		l-6.7-13.2c-0.6-1.3-1.1-2.2-1.4-2.4h0.1c0.4,0.3,0.8,0.6,1.3,0.9l17.4,9.5l2.5-1.6l-9.3-18.2L385.1,450.7z"/>
	<path class="st1" d="M355.8,464.2l-0.5,22l2.7-1v-6.1l8.6-3.3l4.2,4.6l2.7-1l-15.2-16.1L355.8,464.2z M365,474.2l-7.1,2.7v-9.4
		c0-0.4,0-0.8-0.1-1.4h0.1c0.3,0.5,0.5,0.9,0.8,1.1L365,474.2z"/>
	<path class="st1" d="M415.2,442.4c-1.8-2.5-3.9-3.9-6.6-4.4c-2.7-0.5-5.2,0.1-7.6,1.9c-2.7,1.9-4.2,4.3-4.6,7
		c-0.4,2.7,0.4,5.3,2.3,8c1.8,2.5,3.9,3.9,6.6,4.4c2.7,0.5,5.2-0.3,7.7-2c2.5-1.9,4.1-4.2,4.6-6.7C418,447.8,417.1,445,415.2,442.4z
		 M415.1,450.4c-0.3,2-1.4,3.7-3.3,5.1c-1.8,1.4-3.7,1.8-5.7,1.4c-2-0.4-3.8-1.6-5.3-3.7s-2.2-4.1-1.9-6.2c0.3-2.2,1.3-3.8,3.2-5.2
		c1.9-1.4,3.9-1.9,5.8-1.5c2,0.4,3.7,1.8,5.3,3.9C414.7,446.3,415.4,448.3,415.1,450.4z"/>
	<path class="st1" d="M259.9,471c-3.2-0.6-5.8-0.1-8.1,1.4c-2.3,1.6-3.7,3.9-4.3,7.2c-0.6,3-0.1,5.6,1.3,7.9
		c1.4,2.2,3.7,3.5,6.7,4.2c3.2,0.6,5.8,0.1,8-1.4c2.3-1.5,3.7-3.9,4.3-7.2c0.6-3,0.1-5.6-1.3-7.9C265.1,473,262.8,471.7,259.9,471z
		 M264.9,482.7c-0.5,2.7-1.5,4.6-3.2,5.7c-1.6,1.3-3.5,1.6-6,1.1c-2.3-0.4-3.9-1.5-4.9-3.3c-1-1.8-1.4-3.8-0.9-6.3
		c0.5-2.4,1.6-4.3,3.3-5.6c1.8-1.3,3.7-1.6,6-1.3c2.3,0.5,4.1,1.5,4.9,3C265.2,477.9,265.4,480,264.9,482.7z"/>
	<path class="st1" d="M286.5,487.7c-0.3-0.4-0.4-0.8-0.6-1s-0.5-0.5-0.8-0.8s-0.5-0.5-0.9-0.6c0.8-0.1,1.4-0.4,2-0.6
		c0.6-0.3,1.1-0.6,1.6-1c0.5-0.5,0.9-1,1.1-1.5c0.3-0.5,0.4-1.1,0.5-1.9c0.1-0.9,0-1.6-0.3-2.4c-0.3-0.6-0.8-1.3-1.3-1.8
		c-0.6-0.5-1.3-0.9-2-1.1c-0.8-0.3-1.6-0.4-2.5-0.5l-6.5-0.5l-1.8,20.4l2.5,0.3l0.8-8.6l2,0.1c0.5,0,0.9,0.1,1.3,0.3
		c0.4,0.1,0.8,0.4,1,0.6s0.6,0.6,0.9,1c0.4,0.4,0.6,0.9,0.9,1.4l3.2,6.1l3,0.3l-3.7-6.7C286.9,488.5,286.7,488.1,286.5,487.7z
		 M282.2,483.9l-3.4-0.3l0.6-7.3l3.5,0.3c1.4,0,2.5,0.5,3.2,1.1c0.6,0.6,1,1.5,0.9,2.7c-0.1,0.6-0.3,1.1-0.5,1.6
		c-0.3,0.5-0.6,0.9-1,1.1c-0.5,0.3-1,0.5-1.5,0.6C283.4,483.9,282.8,483.9,282.2,483.9z"/>
	<path class="st1" d="M346.7,481.7c-0.5-0.5-1-0.9-1.6-1.3c-0.6-0.4-1.4-0.6-2.2-0.9c-0.8-0.1-1.5-0.4-2.4-0.5
		c-0.8-0.3-1.5-0.4-2.2-0.5c-0.6-0.1-1.1-0.3-1.6-0.5c-0.5-0.1-0.9-0.4-1.1-0.8c-0.3-0.4-0.5-0.8-0.6-1.3c-0.3-0.6-0.1-1.1,0-1.5
		c0.1-0.4,0.4-0.8,0.8-1.1c0.4-0.4,0.8-0.6,1.3-0.9c0.6-0.1,1.1-0.4,1.6-0.5c1.9-0.5,3.7-0.5,5.1,0l-0.6-2.7c-1-0.3-2.7-0.1-4.7,0.4
		c-1,0.3-1.9,0.6-2.7,1c-0.9,0.4-1.5,0.9-2.2,1.5c-0.6,0.5-1,1.3-1.3,2s-0.3,1.6,0,2.5c0.1,0.6,0.5,1.3,0.9,1.8
		c0.4,0.4,0.9,0.8,1.5,1.1c0.5,0.3,1.1,0.5,1.9,0.8c0.6,0.1,1.5,0.4,2.3,0.5c0.8,0.3,1.5,0.4,2.2,0.5c0.6,0.1,1.3,0.3,1.8,0.5
		c0.5,0.3,0.9,0.5,1.3,0.9c0.4,0.3,0.6,0.8,0.8,1.3c0.3,1,0.1,1.8-0.5,2.5c-0.5,0.8-1.6,1.3-3.2,1.6c-0.5,0.1-1,0.3-1.5,0.3
		c-0.5,0-1.1,0-1.6,0c-0.6-0.1-1.1-0.1-1.6-0.3c-0.5-0.1-1-0.3-1.4-0.5l0.6,2.8c0.4,0.1,0.8,0.1,1.5,0.6c0.5,0,1,0,1.5,0
		c0.5,0,1,0,1.5-0.1c0.5-0.1,0.9-0.1,1.3-0.3c1-0.3,1.9-0.6,2.8-1c0.9-0.4,1.5-0.9,2.2-1.5c0.6-0.5,1-1.3,1.3-2
		c0.3-0.8,0.3-1.6,0-2.7C347.4,482.8,347.1,482.2,346.7,481.7z"/>
	<polygon class="st1" points="301.4,485.7 309.3,485.5 309.2,483.3 301.3,483.6 301.1,476.7 309.5,476.5 309.4,474.3 298.4,474.7 
		299.2,495.1 310.7,494.7 310.7,492.7 301.7,492.9 	"/>
</g>
<g>
	<polygon class="st1" points="48.5,243.4 50.5,235.3 39.3,236.8 	"/>
	<polygon class="st1" points="52.3,385.6 61.2,378.4 49.8,377.8 	"/>
	<path class="st1" d="M75.5,420.6c0,0,0.1,0,0.3,0.1c0.1,0,0.3,0.1,0.3,0.1c0.4,0.1,0.9,0.1,1.4,0.1h0.1c0.1,0,0.3,0,0.3,0
		c0.1,0,0.1,0,0.3,0c0.5-0.1,1-0.3,1.5-0.5c0.6-0.4,1.1-0.8,1.5-1.1c0.4-0.4,0.6-0.9,0.6-1.5c0-0.1,0-0.4,0.1-0.5c0-0.3,0-0.4,0-0.5
		c0-1-0.4-2.3-1.1-3.7l-2-4.3l-8.6,4.4l2,3.9c0.1,0.1,0.1,0.3,0.1,0.4c0.1,0.1,0.1,0.3,0.3,0.4c0.4,0.5,0.8,1,1.1,1.4
		c0.3,0.3,0.6,0.5,0.9,0.8c0.3,0.3,0.6,0.4,0.9,0.5H75.5z"/>
	<polygon class="st1" points="383.3,52 376.1,60.8 383.9,63.4 	"/>
	<path class="st1" d="M306,546l-0.1-0.1c-0.3-0.3-0.5-0.6-0.9-0.9c-0.3-0.3-0.6-0.5-0.9-0.8c-1.6-1.1-3.8-1.8-6.5-1.9
		c-0.6,0-1.1,0-1.6,0c-0.5,0-1,0.1-1.4,0.1c-2.3,0.4-4.2,1.4-5.7,3l-0.1,0.1c-0.3,0.4-0.6,0.6-0.9,1c-0.3,0.4-0.5,0.8-0.8,1.1
		c-1.3,2-1.9,4.4-2,7.3c-0.1,2,0.1,3.9,0.6,5.4c0.5,1.5,1.3,3,2.3,4.2l0.1,0.1c0.3,0.4,0.6,0.6,0.9,0.9c0.4,0.3,0.6,0.5,1,0.8
		c1.8,1.3,3.8,1.9,6.3,2c1.9,0.1,3.5-0.1,5.1-0.6c1.4-0.5,2.7-1.3,3.8-2.4c1.1-1.1,1.9-2.4,2.5-3.9c0.6-1.6,0.9-3.5,1-5.6
		c0.1-2.2-0.1-4.2-0.6-5.8C307.6,548.6,307,547.2,306,546z"/>
	<polygon class="st1" points="550.7,237.3 539.4,236 541.4,243.9 	"/>
	<path class="st1" d="M257.6,53.2c0.8,1.5,1.6,2.8,2.9,3.8c0.4,0.3,0.6,0.5,1,0.8c0.4,0.3,0.8,0.5,1.1,0.6c1.9,1,4.1,1.3,6.6,1
		c1.9-0.3,3.5-0.8,4.9-1.5c1.4-0.8,2.4-1.6,3.4-2.9c0.9-1.3,1.5-2.7,1.9-4.3s0.4-3.5,0.1-5.7c-0.3-2.2-0.8-4.1-1.5-5.7
		c-0.8-1.5-1.6-2.8-2.8-3.8c-0.3-0.3-0.6-0.5-1-0.8c-0.4-0.3-0.6-0.4-1-0.6c-2-0.8-4.3-1.1-7-0.8c-0.5,0.1-1,0.1-1.5,0.3
		c-0.5,0.1-0.9,0.3-1.4,0.4c-2.2,0.8-3.9,2-5.2,3.9c-0.3,0.4-0.5,0.8-0.8,1.1c-0.3,0.4-0.4,0.8-0.6,1.3c-0.9,2.2-1.1,4.7-0.8,7.6
		C256.3,49.9,256.8,51.7,257.6,53.2z"/>
	<polygon class="st1" points="166.4,82.4 157.2,75.5 159.4,86.7 	"/>
	<path class="st1" d="M68.5,163.5c0.1,0.4,0.4,0.9,0.5,1.3c1,2.2,2.8,3.9,5.2,5.6c1.6,1.1,3.4,1.9,4.9,2.4c1.6,0.4,3.2,0.5,4.8,0.3
		c0.4,0,0.9-0.1,1.3-0.3c0.4-0.1,0.8-0.3,1.1-0.4c2-0.8,3.7-2.3,5.1-4.3c1-1.5,1.8-3.2,2.2-4.7c0.4-1.5,0.4-2.9,0-4.4
		c-0.4-1.5-1-2.9-2-4.2c-1-1.4-2.4-2.7-4.2-3.8c-1.9-1.3-3.5-2.2-5.3-2.7c-1.6-0.5-3.2-0.6-4.7-0.4c-0.4,0.1-0.9,0.1-1.3,0.3
		c-0.4,0.1-0.8,0.3-1.1,0.4c-1.6,0.9-3.4,2.4-4.9,4.6c-0.3,0.4-0.5,0.9-0.8,1.3c-0.3,0.4-0.4,0.9-0.6,1.3c-0.9,2.2-1,4.3-0.5,6.6
		C68.3,162.6,68.4,163.1,68.5,163.5z"/>
	<path class="st1" d="M515.3,445.4c-1-1.4-2.4-2.7-4.2-3.9c-1.8-1.3-3.5-2.2-5.2-2.7c-1.6-0.5-3.2-0.6-4.7-0.5
		c-0.4,0-0.8,0.1-1.1,0.3s-0.8,0.3-1.1,0.4c-2.3,0.6-3.9,2.2-5.4,4.3c-0.3,0.4-0.5,0.9-0.8,1.3c-0.3,0.4-0.5,0.9-0.6,1.3
		c-0.9,2.2-1.1,4.3-0.6,6.6c0.1,0.5,0.3,0.9,0.4,1.3s0.3,0.9,0.5,1.3c1,2.2,2.8,4.1,5.1,5.7c1.6,1.1,3.3,2,4.9,2.4
		c1.6,0.5,3.2,0.6,4.8,0.4c0.4,0,0.9-0.1,1.3-0.3s0.8-0.3,1.3-0.4c2-0.8,3.7-2.2,5.2-4.2c1.1-1.5,1.8-3,2.2-4.6
		c0.4-1.5,0.4-2.9,0.1-4.4C517,448.1,516.2,446.7,515.3,445.4z"/>
	<path class="st1" d="M297,3.3c-162.8,0-295,132-295,295c0,162.8,132.2,295,295,295s295-132,295-295C592,135.5,460,3.3,297,3.3z
		 M561,231.4l0.3,1.1l1.1,4.6l0.3,1.1l-0.9,0.6l-31.6,23.2l-2,1.5l-0.4-2.7l-1.3-4.8l-0.3-1.1l0.9-0.6l7.9-5.7l-3.4-13.6l-9.6-1.1
		l-1.1-0.1l-0.3-1.1l-1.3-4.8l-0.6-2.5l2.5,0.4l38.6,5.6L561,231.4z M539.8,182.7c0.6,0.4,1.4,0.8,2,1.1c3.2,2.2,5.8,5.3,7.6,9.3
		c0.8,1.8,1.4,3.4,1.9,4.9c0.5,1.6,0.8,3.2,0.8,4.6v1.1l-1,0.5l-4.1,1.9l-2.7,1.3l0.1-2.9v-0.1c0-0.4,0-0.8,0-1.1
		c0-0.4,0-0.8-0.1-1.1c-0.3-2-0.8-3.9-1.6-6c-0.3-0.5-0.5-1-0.8-1.4c-0.3-0.4-0.5-0.9-0.9-1.3c-1.5-2-3.4-3.5-5.7-4.3
		c-0.5-0.1-0.9-0.3-1.4-0.4c-0.5-0.1-0.9-0.1-1.4-0.3c-2.4-0.3-4.9,0.3-7.7,1.5c-0.5,0.3-1,0.5-1.5,0.8c-0.4,0.3-0.9,0.5-1.3,0.9
		c-2,1.4-3.4,3.3-4.3,5.3c-0.5,1.5-0.8,3-0.6,4.6s0.5,3.2,1.4,4.9c0.3,0.5,0.4,0.9,0.6,1.3c0.3,0.4,0.5,0.9,0.8,1.3
		c1.3,2,2.8,3.7,4.4,4.8l2.4,1.8l-2.7,1.3l-3.7,1.8l-1,0.5l-0.8-0.8c-0.4-0.3-0.8-0.6-1.1-1c-0.4-0.4-0.8-0.6-1-1.1
		c-1.8-1.9-3.3-4.4-4.7-7.3c-1.3-2.7-2-5.3-2.2-7.9c-0.3-2.5,0.1-5.1,1-7.5c0.9-2.4,2.3-4.6,4.1-6.3c1.8-1.8,3.9-3.3,6.6-4.6h0.1
		c0.8-0.4,1.5-0.6,2.3-1c0.8-0.3,1.6-0.5,2.3-0.6c4.1-1,7.9-0.8,11.7,0.8C538.4,182.1,539,182.5,539.8,182.7z M529.3,154.3l0.9,1.5
		l2.7,4.4l0.9,1.5l-1.5,0.9l-31.7,19l-1.5,0.9l-0.9-1.5l-2.7-4.4l-0.9-1.5l1.5-0.9l31.7-19L529.3,154.3z M497.8,122.3l2.9-2.4
		l1.4-1.1l1.1,1.4l16.9,20.8l1.1,1.4l-1.4,1.1l-3,2.4l-1.4,1.1l-0.9-1.3l-6-7.3l-23.8,19.3l-1.4,1.1l-1.1-1.4l-2.8-3.5l-1.1-1.4
		l1.4-1.1l23.8-19.3l-6-7.2l-1.1-1.4L497.8,122.3z M477.6,94.3l1.3,1.1l14.3,13.3l1.3,1.1l-1.1,1.3l-2.7,2.8l-1.1,1.3l-1.3-1.1
		l-9.8-9.1l-5.8,6.3l8.9,8.4l1.3,1.1l-1.1,1.3l-2.7,2.8l-1.1,1.3l-1.3-1.1l-8.9-8.4l-6.3,6.7l10.4,9.6l1.3,1.1l-1.1,1.3l-2.7,2.8
		l-1.1,1.3l-1.3-1.1l-15-13.8l-1.3-1.1l1.1-1.3l24.7-26.5L477.6,94.3z M448.7,72l1.4,1l3.7,2.5l1.4,1l-1,1.4L436.5,103l11.3,7.9
		l1.4,1l-1,1.4l-2.2,3.2l-1,1.4l-1.4-1l-16.3-11.4l-1.4-1l1-1.4l20.8-29.7L448.7,72z M402.4,89l13.4-27.5l-8.4-4.1l-1.5-0.8l0.8-1.5
		l1.6-3.4l0.8-1.5l1.5,0.8l24.1,11.7l1.5,0.8l-0.8,1.5l-1.6,3.4l-0.8,1.5l-1.5-0.8L423,65l-13.4,27.5l-0.8,1.5l-1.5-0.8l-4.1-2
		l-1.5-0.8L402.4,89z M357.4,70.7l25.2-29.9l0.8-0.9l1.1,0.4l4.4,1.4l1.1,0.4l0.1,1.1l2.9,39l0.3,2.5L391,84l-4.8-1.5l-1.1-0.4
		l-0.1-1.1l-0.6-9.8L371,66.9l-6.1,7.6l-0.8,0.9L363,75l-4.8-1.5l-2.4-0.8L357.4,70.7z M299.9,63.1l2.5-36.1l0.1-1.8l1.8,0.1
		l5.8,0.4l0.9,0.1l0.5,0.8l15.7,27l1.8-24.7l0.1-1.8l1.8,0.1l4.6,0.3l1.8,0.1l-0.1,1.8l-2.5,36.1l-0.1,1.8l-1.8-0.3l-5.6-0.4
		l-0.9-0.1l-0.5-0.8l-16-27.1l-1.8,25l-0.1,1.8l-1.8-0.1l-4.6-0.3l-1.8-0.1L299.9,63.1z M518,298.3c0,121-99,219.2-221,219.2
		S76,419.3,76,298.3S175,79.1,297,79.1S518,177.2,518,298.3z M247.8,44.4c0.3-4.1,1.5-7.7,3.8-10.8c0.5-0.6,0.9-1.1,1.4-1.6
		c0.5-0.5,1-1,1.6-1.5c2.9-2.3,6.6-3.8,11-4.3c2.9-0.4,5.4-0.3,8,0.4c2.5,0.6,4.7,1.8,6.7,3.4s3.5,3.5,4.8,5.8
		c1.1,2.3,1.9,4.8,2.3,7.7c0.1,0.9,0.1,1.6,0.3,2.5c0,0.9,0,1.6,0,2.4c-0.3,4.2-1.5,7.7-3.8,10.8c-1.6,2.2-3.5,3.8-6,5.1
		c-2.3,1.3-4.9,2-7.9,2.4c-2.9,0.4-5.6,0.3-8.1-0.4c-2.5-0.6-4.8-1.8-6.8-3.4c-0.5-0.5-1.1-0.9-1.6-1.4c-0.5-0.5-1-1-1.4-1.6
		c-2.3-2.9-3.5-6.3-4.1-10.5c-0.1-0.9-0.1-1.6-0.3-2.5C247.8,45.9,247.8,45.1,247.8,44.4z M225.5,33.1l5.1-1.1l1.6-0.4l0.4,1.6
		l7.9,36.4l0.4,1.6l-1.6,0.4l-5.1,1.1l-1.6,0.4l-0.5-1.8l-7.7-36.2l-0.4-1.6L225.5,33.1z M186.1,53.2c0.4-0.8,0.8-1.4,1.1-2
		c0.4-0.6,0.9-1.3,1.3-1.9c2.4-3,5.7-5.4,9.8-7c1.8-0.6,3.5-1.1,5.1-1.5c1.6-0.4,3.2-0.5,4.6-0.5h1.1l0.4,1.1l1.6,4.2l1,2.7
		l-2.8-0.4c-1.4-0.1-2.8-0.1-4.2,0c-1.4,0.1-2.8,0.5-4.3,1.1c-1.9,0.8-3.4,1.6-4.7,2.8c-1.3,1.1-2.2,2.4-2.9,4.1l-0.1,0.3
		c-0.1,0.4-0.4,0.9-0.5,1.3c-0.1,0.4-0.3,0.9-0.3,1.4c-0.4,2.4,0,4.9,1,7.6c0.1,0.5,0.4,1,0.6,1.5c0.3,0.5,0.5,0.9,0.8,1.4
		c1.3,2.2,3,3.7,5.1,4.6c1.4,0.6,2.9,1,4.6,1s3.3-0.4,5.1-1c0.5-0.1,0.9-0.4,1.4-0.6c0.4-0.1,0.9-0.4,1.3-0.6c2-1.1,3.8-2.5,5.1-4.2
		l1.9-2.3l1,2.8l1.5,3.8l0.4,1l-0.6,0.8c-0.4,0.4-0.8,0.8-1.1,1.1c-0.4,0.4-0.8,0.6-1.1,1c-2,1.6-4.6,3-7.6,4.2
		c-2.8,1-5.4,1.6-8,1.6S198.4,82,196,81s-4.4-2.5-6.1-4.4c-1.6-1.9-3-4.2-4.1-6.8l-0.1-0.4c-0.3-0.8-0.5-1.5-0.8-2.4
		c-0.3-0.8-0.4-1.6-0.5-2.4C183.8,60.6,184.3,56.8,186.1,53.2z M149,67l3.9-2.5l1-0.6l0.9,0.6l31.8,22.8l2.2,1.5l-2.2,1.4l-4.4,2.7
		l-1,0.6l-0.9-0.6l-7.9-5.7l-11.9,7.3l1.9,9.5l0.3,1.1l-1,0.6l-4.3,2.7l-2.2,1.4l-0.4-2.5l-6.6-38.5l-0.3-1.1L149,67z M120.6,86.2
		l4.2-3.2l1.4-1l1,1.4l22.3,29.5l1,1.4l-1.4,1l-4.2,3.2l-1.4,1l-1-1.4l-22.3-29.5l-1-1.4L120.6,86.2z M92.9,117.5
		c0.1-0.6,0.3-1.4,0.5-2c0.3-0.8,0.5-1.4,0.8-2c1.1-2.7,2.8-5.1,4.9-7.3c1.3-1.4,2.7-2.5,3.9-3.5c1.3-1,2.7-1.8,3.9-2.4l1-0.5
		l0.9,0.8l3.3,3.2l2,2l-2.7,0.9c-1.4,0.4-2.7,1-3.8,1.8c-1.3,0.8-2.4,1.6-3.4,2.8l-0.1,0.1c-0.4,0.5-0.8,0.9-1,1.3
		c-0.4,0.4-0.6,0.9-0.9,1.3c-1.3,2-1.9,4.3-1.9,6.7v0.1c0,0.5,0,0.9,0.1,1.4c0,0.5,0.1,0.9,0.3,1.4c0.6,2.4,2,4.6,4.2,6.6l0.4,0.4
		c0.5,0.4,0.9,0.8,1.3,1c0.4,0.4,0.9,0.6,1.3,0.9c2,1.3,4.1,1.9,6.2,1.9c1.6,0,3.2-0.4,4.6-1c1.4-0.8,2.8-1.6,4.1-3
		c0.4-0.4,0.6-0.8,1-1.1c0.3-0.4,0.6-0.8,0.9-1.1c1.4-1.9,2.4-3.9,2.9-6l0.8-2.9l2.2,2l2.9,2.9l0.8,0.8l-0.4,1
		c-0.1,0.5-0.4,0.9-0.9,1.6c-0.3,0.5-0.4,0.9-0.6,1.4c-1.1,2.3-2.8,4.7-5.1,7c-2.2,2.2-4.3,3.7-6.6,4.8c-2.3,1.1-4.7,1.8-7.3,1.8
		c-2.5,0-4.9-0.5-7.3-1.5c-2.3-1-4.4-2.5-6.6-4.6c-0.8-0.8-1.5-1.5-2.2-2.4c-0.6-0.8-1.3-1.6-1.8-2.5c-0.5-0.9-1-1.8-1.4-2.7
		c-0.9-2.3-1.4-4.8-1.4-7.3C92.5,119.9,92.6,118.6,92.9,117.5z M60.4,159.9c0.1-3.7,1.5-7.5,3.9-11.2c1.6-2.4,3.4-4.3,5.6-5.7
		c2.2-1.4,4.4-2.4,7-2.9c2.5-0.5,5.1-0.4,7.6,0.3s4.9,1.8,7.3,3.3c0.8,0.5,1.4,1,2,1.5c0.6,0.5,1.3,1,1.8,1.6c3,2.9,4.8,6.2,5.7,9.9
		c0.5,2.5,0.5,5.2-0.1,7.7c-0.6,2.7-1.8,5.2-3.4,7.6s-3.5,4.4-5.6,5.8c-2.2,1.5-4.4,2.4-7.1,2.9c-0.6,0.1-1.4,0.3-2.2,0.3
		c-0.8,0-1.4,0-2.2,0c-3.7-0.3-7.2-1.5-10.6-3.8c-0.8-0.5-1.4-1-2-1.5c-0.6-0.5-1.3-1-1.8-1.6c-2.9-2.9-4.8-6.2-5.6-9.9
		c-0.1-0.8-0.3-1.5-0.4-2.2C60.4,161.3,60.3,160.7,60.4,159.9z M40.4,195.5c0-0.1,0.1-0.4,0.1-0.8s0.1-0.5,0.1-0.8
		c0.3-1.3,0.6-2.4,1.1-3.7c0.8-1.9,1.5-3.4,2.3-4.7c0.8-1.4,1.6-2.4,2.5-3.2l0.8-0.8l1,0.4l4.4,1.8l2.9,1.1l-2.7,1.8
		c-0.3,0.1-0.5,0.4-0.8,0.6c-0.3,0.3-0.5,0.5-0.8,0.6c-1.3,1.3-2.3,3-3.2,5.2c-0.1,0.4-0.3,0.8-0.4,1.3c-0.1,0.4-0.3,0.9-0.3,1.3
		v0.1c0,0.1,0,0.3,0,0.4s0,0.3,0,0.5c0,0.5,0,0.9,0,1.3c0,0.3,0.1,0.6,0.3,0.9c0.1,0.3,0.3,0.5,0.4,0.8c0.1,0.3,0.3,0.4,0.5,0.5
		c0.3,0.1,0.5,0.3,0.8,0.4l0.3,0.1c0.1,0,0.3,0.1,0.3,0.1c0.4,0.1,0.8,0.1,1,0.1s0.5-0.1,0.8-0.1c0.3-0.1,0.5-0.3,0.9-0.4l0.3-0.1
		l0.3-0.1c0.5-0.4,1-0.8,1.6-1.3c0.4-0.4,0.9-0.8,1.4-1.3c0.5-0.5,1-1,1.5-1.4c0.5-0.5,1.1-1,1.8-1.5c0.6-0.5,1.1-1,1.8-1.4
		c0.1-0.1,0.3-0.3,0.5-0.4c0.1-0.1,0.3-0.3,0.5-0.4c0.9-0.6,1.8-1.1,2.7-1.5c0.6-0.3,1.3-0.5,2-0.8c0.6-0.1,1.4-0.4,2-0.4
		c0.8-0.1,1.5,0,2.3,0.1s1.5,0.4,2.2,0.6c0.3,0.1,0.5,0.3,0.8,0.4c0.3,0.1,0.5,0.3,0.8,0.4c1.3,0.6,2.3,1.5,3,2.5
		c0.1,0.3,0.3,0.4,0.4,0.6c0.1,0.3,0.3,0.4,0.4,0.6c0.6,1,1,2.2,1.1,3.4v0.3c0,0.1,0,0.4,0.1,0.8c0,0.3,0,0.5,0,0.8
		c0,1.1,0,2.4-0.3,3.5c0,0.3-0.1,0.5-0.1,0.8c0,0.3-0.1,0.5-0.1,0.8c-0.3,1.3-0.8,2.5-1.3,3.8l-0.1,0.3l-0.1,0.3
		c-0.3,0.5-0.5,1-0.8,1.6c-0.3,0.5-0.5,0.9-0.6,1.3c-0.3,0.4-0.5,0.9-0.8,1.3c-0.3,0.5-0.6,0.9-0.9,1.3c-0.3,0.4-0.5,0.8-0.9,1.1
		l-0.3,0.3l-0.3,0.3c-0.5,0.5-0.9,0.9-1.4,1.3l-0.8,0.5l-1.3-0.3l-4.7-1.9l-3.4-1.4l3.3-1.8c0.3-0.1,0.6-0.4,0.9-0.5
		c0.3-0.3,0.5-0.4,0.9-0.8l0.3-0.3l0.3-0.3c0.4-0.4,0.9-0.9,1.3-1.4c0.3-0.4,0.5-0.8,0.8-1.1c0.3-0.4,0.5-0.8,0.8-1.1
		c0.3-0.4,0.4-0.8,0.6-1.1c0.1-0.4,0.4-0.6,0.5-1c0.5-1.1,0.8-2.3,0.9-3.2c0.1-0.8,0.1-1.5,0-2.2c-0.1-0.5-0.4-1-0.6-1.3
		c-0.4-0.4-0.8-0.6-1.4-0.9c-0.3-0.1-0.6-0.3-0.9-0.3c-0.3,0-0.5,0-0.8,0c-0.1,0-0.1,0-0.3,0c-0.1,0-0.3,0-0.3,0.1
		c-0.5,0.1-0.9,0.4-1.4,0.6c-0.4,0.3-0.8,0.5-1.1,0.8c-0.4,0.4-0.9,0.6-1.3,1c-0.3,0.3-0.8,0.6-1.4,1.3c-0.4,0.3-0.8,0.8-1.5,1.4
		l-0.5,0.4l-0.5,0.4c-0.9,0.8-1.6,1.4-2.4,2c-0.6,0.5-1.1,0.9-1.8,1.3s-1.1,0.6-1.8,1c-0.6,0.3-1.3,0.5-1.9,0.8
		c-0.6,0.1-1.3,0.3-1.9,0.4c-0.1,0-0.4,0-0.6,0c-0.3,0-0.5,0-0.8,0c-0.9-0.1-1.9-0.4-2.8-0.8c-0.9-0.4-1.8-0.8-2.4-1.4
		c-0.8-0.5-1.4-1.1-1.9-1.9c-0.1-0.1-0.3-0.4-0.4-0.6c-0.1-0.3-0.3-0.4-0.4-0.6c-0.5-1-1-2.2-1.1-3.4c-0.1-0.9-0.3-1.6-0.3-2.5
		C40.3,197.3,40.3,196.4,40.4,195.5z M27.3,237.2l0.3-1.1l1.1-4.6l0.1-1l1.1-0.1l38.8-5.6l2.5-0.4l-0.6,2.4l-1.3,4.8l-0.3,1.1
		l-1.1,0.1l-9.6,1.4L55,247.9l8,5.4l1,0.6l-0.3,1.1l-1.3,4.8l-0.6,2.5l-2-1.5l-31.6-23.1L27.3,237.2z M49.8,304
		c0,5.7-4.7,10.4-10.4,10.4c-5.7,0-10.4-4.7-10.4-10.4s4.7-10.4,10.4-10.4C45.1,293.6,49.8,298.3,49.8,304z M40.5,406.1l-0.8-2.7
		l-1.5-4.8l-0.4-1.1l0.9-0.8l7.5-6.2l-4.3-13.3l-9.6-0.5h-1.1l-0.4-1.1l-1.5-4.8l-0.8-2.4l2.5,0.3l39,2.9l1.1,0.1l0.4,1.1l1.4,4.4
		l0.4,1.1l-0.9,0.8l-29.9,25.3L40.5,406.1z M71.7,426.3c0,0.3-0.1,0.5-0.3,0.8l-0.1,0.3l-0.1,0.3c-0.3,0.5-0.5,1-0.8,1.5
		c-0.3,0.4-0.5,0.6-0.6,1c-0.3,0.5-0.5,0.9-0.6,1.1l-6.5,11.4l-1.6,2.8l-1.5-2.9l-2.9-4.3l-0.4-0.9l0.5-0.9l6.1-10.4l0.3-0.4
		l0.3-0.4c0.4-0.5,0.6-1.1,0.9-1.6c0.1-0.4,0.3-0.6,0.4-1c0.1-0.3,0.3-0.6,0.3-0.9c0.1-0.3,0.1-0.5,0.1-0.8c0-0.3-0.1-0.5-0.1-0.8
		v-0.3v-0.3c-0.1-0.4-0.3-0.8-0.5-1.3l-0.9-1.8l-12.2,6.2l-1.5,0.8l-0.8-1.5l-2-4.1l-0.8-1.5l1.5-0.8l32.3-16.5l1.5-0.8l0.8,1.5
		l5.2,10.3c0.1,0.1,0.3,0.3,0.4,0.6c0.1,0.3,0.1,0.5,0.3,0.6c0.5,1.3,0.9,2.4,1.1,3.5c0.1,0.8,0.3,1.6,0.3,2.4
		c0,0.9-0.1,1.6-0.3,2.4c-0.1,0.9-0.4,1.5-0.6,2.3s-0.6,1.4-1.1,2c-0.5,0.6-1.1,1.3-1.8,1.8c-0.8,0.5-1.5,1-2.3,1.4
		c-0.1,0.1-0.4,0.1-0.5,0.3c-0.1,0.1-0.4,0.1-0.5,0.3c-0.9,0.4-1.9,0.6-2.8,0.8c-0.1,0-0.4,0-0.5,0s-0.3,0-0.5,0
		c-1,0-1.9-0.1-2.8-0.4c-0.1,0-0.4-0.1-0.5-0.1s-0.4-0.1-0.5-0.1c-0.9-0.4-1.6-0.9-2.5-1.4C72.1,426.5,71.9,426.4,71.7,426.3z
		 M89.3,476.6l-1-0.5c-0.6-0.3-1.1-0.5-1.8-0.9c-0.6-0.3-1.1-0.6-1.6-1c-2.8-1.8-5.3-4.1-7.6-7c-0.5-0.6-1-1.3-1.4-1.9
		c-0.4-0.6-0.8-1.3-1.1-2c-1.8-3.5-2.5-7.1-2-10.9c0.1-0.8,0.3-1.5,0.4-2.2c0.1-0.8,0.4-1.4,0.6-2c1.3-3.4,3.5-6.5,7-9.1
		c0.6-0.5,1.4-1,2-1.4c0.6-0.4,1.4-0.8,2-1.1c3.7-1.8,7.5-2.4,11.5-1.8c2.8,0.4,5.4,1.4,7.7,2.8c2.4,1.4,4.4,3.4,6.5,5.8
		c0.4,0.5,0.8,1,1,1.4c0.4,0.5,0.6,0.9,1,1.4c1.6,2.5,2.7,4.9,3.3,7.2l0.3,1.1l-0.9,0.6l-3.7,2.9l-2.4,1.9l-0.4-3
		c0-0.4-0.1-0.9-0.3-1.4c-0.1-0.5-0.3-0.9-0.4-1.4c-0.8-2.3-1.9-4.6-3.7-6.8c-0.4-0.4-0.6-0.9-1-1.3c-0.4-0.4-0.8-0.8-1.1-1
		c-1.9-1.6-4.1-2.5-6.5-2.8c-1.8-0.3-3.4,0-4.9,0.5c-1.6,0.5-3.3,1.4-4.8,2.7c-0.5,0.4-0.9,0.8-1.3,1.1s-0.8,0.8-1.1,1.1
		c-1.8,1.9-2.8,4.1-3,6.2c-0.3,1.5-0.1,3.2,0.4,4.7c0.5,1.5,1.4,3.2,2.5,4.7c0.3,0.3,0.5,0.6,0.8,0.9c0.3,0.3,0.5,0.5,0.8,0.8
		c1,1,2,1.8,3.2,2.4l5.7-4.4l-4.2-5.3l-1-1.4l1.4-1l3-2.4l1.4-1l1,1.4l8,10.3l1,1.4l-1.4,1L90.2,476L89.3,476.6z M122.9,492.2
		l-8.7-8.5l-6.5,6.6l10.1,9.9l1.3,1.1l-1.1,1.3l-2.7,2.8l-1.3,1.3l-1.3-1.1l-14.4-14.2L97,490l1.1-1.3l25.1-26.1l1.3-1.3l1.3,1.1
		l14.1,13.6l1.3,1.1l-1.1,1.3l-2.7,2.8l-1.3,1.3l-1.3-1.1l-9.6-9.3l-6,6.2l8.7,8.5l1.3,1.1l-1.1,1.3l-2.7,2.8l-1.3,1.3L122.9,492.2z
		 M153,536l-1.4-1l-4.4-3.3l-0.8-0.5v-0.9l0.9-31.6L132.6,519l-1,1.4l-1.4-1l-3.7-2.7l-1.4-1l1-1.4l21.3-29.3l1-1.4l1.4,1l4.7,3.4
		l0.8,0.5v0.9l-1,31.2l14.6-20.1l1-1.4l1.4,1l3.7,2.7l1.4,1l-1,1.4l-21.3,29.4L153,536z M182.3,548.7l-0.8,1.5l-1.5-0.8l-4.1-1.9
		l-1.5-0.8l0.8-1.5l12.9-27.8l-8.5-3.9l-1.5-0.8l0.8-1.5l1.6-3.4l0.8-1.5l1.5,0.8l24.2,11.3l1.5,0.8l-0.8,1.5l-1.6,3.4l-0.8,1.5
		l-1.5-0.8l-8.6-3.9L182.3,548.7z M224.5,525.1l-12,35l-0.5,1.6l-1.6-0.5l-4.9-1.6l-1.6-0.5l0.5-1.6l12-35l0.5-1.6l1.6,0.5l4.9,1.6
		l1.6,0.5L224.5,525.1z M268.7,535.9l-6.3,35.6l-0.3,1.8l-1.6-0.1l-5.4-1l-0.9-0.1l-0.4-0.9l-13.1-28.6l-4.3,24.6l-0.3,1.8l-1.6-0.3
		l-4.4-0.8l-1.8-0.3l0.3-1.6l6.3-35.6l0.3-1.8l1.6,0.3l5.8,1l0.9,0.1l0.4,0.9l12.8,28.4l4.3-24.5l0.3-1.8l1.6,0.3l4.4,0.8l1.6,0.3
		L268.7,535.9z M316.9,555.8v0.1c0,0.9-0.1,1.8-0.3,2.5c-0.1,0.8-0.3,1.6-0.4,2.4c-0.9,4.1-2.7,7.3-5.4,10c-1.9,1.8-4.1,3.2-6.6,4.1
		c-2.3,0.8-5.1,1.1-8.1,1c-2.9-0.1-5.6-0.6-8-1.6c-2.4-1-4.4-2.5-6.2-4.4l-0.1-0.1c-0.5-0.5-0.9-1.1-1.4-1.6
		c-0.4-0.6-0.8-1.1-1.1-1.8c-1.8-3.2-2.5-6.8-2.4-11v-0.1c0-0.9,0.1-1.8,0.3-2.5c0.1-0.8,0.3-1.5,0.4-2.4c0.9-4.1,2.7-7.3,5.4-9.9
		l0.1-0.1c0.5-0.5,1.1-1,1.6-1.4c0.6-0.4,1.1-0.9,1.9-1.1c3.2-1.8,7.1-2.7,11.5-2.5c2.9,0.1,5.4,0.6,7.9,1.6c2.4,1,4.4,2.5,6.1,4.4
		c1.8,1.9,3,4.1,3.8,6.6C316.6,550.2,317,552.9,316.9,555.8z M353.8,559.6c0,1.4-0.1,2.7-0.6,3.8c-0.1,0.3-0.1,0.4-0.3,0.6
		c-0.1,0.3-0.3,0.4-0.4,0.6c-0.6,1.1-1.4,2-2.3,2.9c-0.3,0.1-0.4,0.3-0.5,0.4c-0.1,0.1-0.4,0.3-0.6,0.4c-1,0.8-2.2,1.3-3.4,1.8
		c-0.3,0.1-0.5,0.3-0.8,0.3c-0.3,0.1-0.5,0.3-0.8,0.3c-1.3,0.4-2.5,0.8-3.9,1H340h-0.3c-0.5,0.1-1.1,0.1-1.8,0.1
		c-0.4,0-0.9,0-1.4,0.1c-0.5,0-1,0-1.5,0s-1,0-1.5,0c-0.4,0-0.9-0.1-1.4-0.1h-0.4l-0.4-0.1c-0.6-0.1-1.3-0.3-1.8-0.5l-0.9-0.4h-0.4
		l-0.9-4.9l-0.6-3.7l3.2,1.9c0.3,0.1,0.5,0.3,0.9,0.4c0.4,0.1,0.8,0.3,1.1,0.4l0.4,0.1l0.4,0.1c0.6,0.1,1.1,0.3,1.8,0.3
		c0.5,0,0.9,0.1,1.4,0.1c0.5,0,0.9,0,1.3,0c0.5,0,0.9,0,1.3-0.1c0.4,0,0.8-0.1,1.1-0.1c1.3-0.3,2.3-0.5,3.2-0.9
		c0.8-0.4,1.4-0.8,1.8-1.1c0.4-0.4,0.6-0.8,0.8-1.3c0.1-0.5,0.1-1,0-1.6c0-0.4-0.1-0.6-0.3-0.9c-0.1-0.3-0.3-0.5-0.4-0.6
		c-0.1-0.1-0.1-0.1-0.1-0.1c-0.1-0.1-0.1-0.1-0.3-0.1c-0.4-0.4-0.8-0.6-1.3-0.9c-0.4-0.3-0.8-0.4-1.3-0.5c-0.5-0.3-1-0.4-1.5-0.5
		c-0.4-0.1-1-0.3-1.8-0.5c-0.9-0.3-1.6-0.5-1.9-0.5l-0.6-0.1l-0.6-0.1c-1-0.3-2-0.6-2.9-0.9c-0.6-0.3-1.4-0.5-1.9-0.8
		c-0.6-0.3-1.3-0.6-1.8-1c-0.6-0.4-1.1-0.8-1.6-1.3c-0.5-0.5-0.9-1-1.3-1.5c-0.1-0.1-0.3-0.3-0.4-0.5c-0.1-0.3-0.3-0.4-0.3-0.5
		c-0.5-0.9-0.8-1.9-1-3c-0.1-1-0.3-1.9-0.1-2.8c0.1-0.9,0.3-1.8,0.6-2.7c0.4-0.8,0.8-1.5,1.3-2.3c0.5-0.6,1-1.3,1.6-1.9
		c0.6-0.5,1.3-1.1,2-1.5c0.8-0.5,1.5-0.9,2.3-1.3c0.3-0.1,0.5-0.3,0.6-0.3c0.3-0.1,0.5-0.1,0.6-0.3c1.1-0.4,2.4-0.8,3.7-1
		c1.9-0.4,3.7-0.5,5.2-0.5s2.9,0.1,4.1,0.4l1,0.3l0.1,1l0.9,4.7l0.5,3.2l-2.9-1.3c-0.3-0.1-0.6-0.3-0.9-0.4c-0.3-0.1-0.6-0.1-1-0.3
		c-1.8-0.4-3.8-0.4-6.1,0c-0.5,0.1-0.9,0.1-1.3,0.3c-0.4,0.1-0.9,0.3-1.3,0.4c-0.1,0-0.3,0.1-0.3,0.1c-0.1,0-0.3,0.1-0.3,0.1
		c-0.5,0.3-0.9,0.5-1.3,0.9l-0.1,0.1c-0.1,0-0.1,0.1-0.1,0.1c-0.3,0.4-0.5,0.6-0.8,1c-0.1,0.3-0.1,0.4-0.1,0.6c0,0.3,0,0.6,0,0.9
		c0,0.1,0,0.1,0,0.3c0,0.1,0,0.1,0.1,0.3c0.1,0.4,0.3,0.6,0.5,0.9c0.1,0.3,0.4,0.4,0.5,0.5c0.3,0.3,0.5,0.4,0.8,0.5l0.3,0.1l0.4,0.1
		c0.5,0.3,1.1,0.5,1.9,0.6c0.5,0.1,1.1,0.4,1.8,0.5c0.4,0.1,1.1,0.3,2,0.5c0.8,0.3,1.5,0.4,2.2,0.6c0.8,0.3,1.5,0.5,2.2,0.8
		c0.3,0.1,0.4,0.1,0.6,0.3c0.3,0.1,0.4,0.1,0.6,0.3c1,0.4,1.9,0.9,2.8,1.4c0.6,0.4,1.1,0.9,1.6,1.3c0.5,0.5,1,1,1.4,1.5
		c0.5,0.6,0.9,1.3,1.1,1.9c0.3,0.6,0.5,1.4,0.6,2.2c0,0.4,0.1,0.6,0.1,0.9C353.8,559.1,353.8,559.3,353.8,559.6z M391.5,555
		c-0.3,0.5-0.4,0.9-0.6,1.4c-0.3,0.5-0.5,0.9-0.8,1.3c-1.4,2-3.4,3.4-6,4.3h-0.1c-0.3,0.1-0.5,0.3-0.6,0.3c-0.3,0-0.5,0.1-0.6,0.1
		c-1.1,0.3-2.2,0.3-3,0.3l-1.1-0.1l-0.4-1.1l-1.4-3.9l-1-3l3.2,0.9c0,0,0.1,0,0.3,0s0.3,0,0.4,0c0.6,0,1.4-0.1,2.2-0.4
		c1.3-0.5,2.2-1.3,2.4-2.5c0.4-1.5,0-3.5-0.9-6.3l-7.6-22l-0.5-1.6l1.6-0.5l4.3-1.5l1.6-0.5l0.6,1.6l7.6,21.9
		c0.8,2.2,1.1,4.2,1.3,6.2C392.4,551.6,392.2,553.4,391.5,555z M412.4,546.3c-3.7-1.3-6.7-4.2-9.3-8.9l-10.4-19.5l-0.8-1.5l1.5-0.8
		l3.9-2.2l1.5-0.8l0.8,1.5l10.3,19.3c1.5,2.9,3.3,4.7,5.2,5.3s4.1,0.4,6.5-0.9c0.6-0.4,1.3-0.8,1.9-1.1c0.5-0.4,0.9-0.9,1.3-1.3
		c1.8-2.3,1.6-5.3-0.4-9.3l-10.4-19.6l-0.8-1.5l1.5-0.8l3.9-2.2l1.5-0.8l0.8,1.5l10.1,19l-6.3,22.6
		C420.3,546.9,416.1,547.6,412.4,546.3z M433.6,534.9c-1.1,3.8-4.1,7.1-8.7,9.6l6.5-22.7C434,526.8,434.7,531.1,433.6,534.9z
		 M478.7,507l-4.3,3.5l-0.8,0.6l-0.9-0.3l-30.3-9l15.7,19.4l1.1,1.4l-1.4,1.1l-3.5,2.8l-1.4,1.1l-1.1-1.4L429,498.3l-1.1-1.4
		l1.4-1.1l4.6-3.7l0.8-0.6l0.9,0.3l29.9,9l-15.6-19.3l-1.1-1.4l1.4-1.1l3.5-2.8l1.4-1.1l1.1,1.4l22.8,28.1l1.1,1.4L478.7,507z
		 M497.2,489.4l-3.5,3.8l-1.1,1.3l-1.3-1.1l-27.1-25.2l-1.3-1.1l1.1-1.3l3.5-3.8l1.1-1.3l1.3,1.1l27.1,25.2l1.3,1.1L497.2,489.4z
		 M524.3,455.3c-0.6,2.5-1.8,4.9-3.5,7.5c-1.6,2.4-3.5,4.3-5.6,5.7c-2.2,1.4-4.6,2.4-7.1,2.8c-0.8,0.1-1.4,0.3-2.2,0.3
		c-0.8,0-1.5,0-2.2,0c-3.7-0.3-7.2-1.6-10.6-4.1c-0.8-0.5-1.4-1-2-1.5c-0.6-0.5-1.3-1-1.8-1.6c-2.9-2.9-4.7-6.2-5.4-10
		c-0.1-0.6-0.3-1.4-0.3-2.2c0-0.6,0-1.4,0-2.2c0.3-3.8,1.6-7.5,4.2-11.2c1.6-2.4,3.4-4.3,5.6-5.7c2-1.4,4.4-2.3,7-2.7
		c2.5-0.4,5.1-0.3,7.6,0.4c2.5,0.8,4.9,1.9,7.3,3.5c0.8,0.5,1.4,1,2,1.5c0.6,0.5,1.3,1,1.8,1.6c2.9,2.9,4.7,6.3,5.4,10
		C525.1,450.1,525,452.8,524.3,455.3z M552.2,407.5l-2.4,4.8l-0.4,0.9l-1,0.1l-12,1.1H536h-0.4c-0.6,0.1-1.3,0.1-1.8,0.3l-0.4,0.1
		l-0.3,0.1c-0.5,0.1-0.9,0.3-1.3,0.5c-0.3,0.1-0.4,0.3-0.6,0.4c-0.3,0.1-0.4,0.3-0.5,0.5l-0.1,0.1l-0.1,0.1
		c-0.3,0.3-0.5,0.6-0.8,1.1l-0.9,1.8l12.2,6.2l1.5,0.8l-0.8,1.5l-2,4.1l-0.8,1.5l-1.5-0.8l-32.3-16.5l-1.5-0.8l0.8-1.5l5.2-10.3
		c0.1-0.3,0.3-0.5,0.4-0.6c0.1-0.3,0.3-0.4,0.4-0.6c0.6-1.1,1.4-2,2.2-2.9c0.6-0.6,1.1-1.1,1.8-1.6c0.6-0.5,1.3-0.9,2-1.3l0.3-0.1
		c0.3-0.1,0.4-0.1,0.6-0.3c0.1-0.1,0.4-0.1,0.6-0.3c1-0.3,2-0.4,3-0.4c0.9,0,1.6,0.1,2.5,0.4c0.8,0.3,1.6,0.5,2.4,1
		c0.1,0.1,0.4,0.1,0.5,0.3c0.3,0.1,0.4,0.3,0.5,0.3c0.9,0.5,1.6,1.1,2.3,1.9c0.5,0.5,0.9,1,1.1,1.5c0.4,0.5,0.6,1.1,0.9,1.8v0.1
		c0,0.1,0.1,0.4,0.1,0.5c0,0.1,0.1,0.4,0.1,0.5c0.3,0.9,0.4,1.8,0.4,2.8c0,0.3,0,0.5,0,0.8c0.3-0.1,0.5-0.1,0.8-0.3l0.3-0.1l0.3-0.1
		c0.5-0.1,1-0.3,1.6-0.3c0.4,0,0.8-0.1,1.3-0.1c0.3,0,0.8-0.1,1.4-0.1l13.1-1.5l3.2-0.4L552.2,407.5z M562.2,381.6
		c0,0.3,0,0.5-0.1,0.8c0,0.3-0.1,0.5-0.1,0.8c-0.3,1.3-0.5,2.5-1,3.9l-0.1,0.3l-0.1,0.3c-0.1,0.5-0.4,1-0.6,1.6
		c-0.3,0.5-0.4,0.9-0.6,1.3c-0.3,0.5-0.5,0.9-0.6,1.3c-0.3,0.5-0.5,0.9-0.8,1.3c-0.3,0.4-0.5,0.8-0.8,1.1l-0.3,0.3l-0.3,0.3
		c-0.4,0.5-0.9,1-1.3,1.3l-0.8,0.6l-1.3-1.3l-4.7-1.5l-3.5-1.1l3.2-2c0.3-0.1,0.5-0.4,0.8-0.6c0.3-0.3,0.5-0.5,0.9-0.8l0.3-0.3
		l0.3-0.3c0.4-0.5,0.8-1,1.1-1.5c0.3-0.4,0.5-0.8,0.8-1.1c0.3-0.4,0.4-0.8,0.6-1.1c0.3-0.4,0.4-0.8,0.5-1.1c0.1-0.4,0.3-0.6,0.4-1
		c0.4-1.1,0.6-2.3,0.6-3.2c0.1-0.9,0-1.5-0.1-2.2c-0.1-0.5-0.4-0.9-0.8-1.3c-0.4-0.4-0.9-0.6-1.4-0.8c-0.4-0.1-0.6-0.1-0.9-0.1
		c-0.3,0-0.5,0-0.8,0.1l-0.3,0.1l-0.3,0.1c-0.5,0.1-0.9,0.4-1.4,0.8c-0.4,0.3-0.8,0.5-1.1,0.9s-0.8,0.8-1.1,1.1s-0.8,0.9-1.3,1.4
		c-0.5,0.5-0.9,1-1.4,1.5l-0.4,0.4l-0.4,0.4c-0.8,0.8-1.5,1.5-2.2,2.2c-0.5,0.5-1,0.9-1.6,1.4c-0.5,0.4-1.1,0.8-1.6,1.1
		c-0.6,0.4-1.3,0.6-1.9,0.9s-1.3,0.4-1.9,0.5c-0.3,0-0.4,0-0.6,0c-0.1,0-0.4,0-0.6,0c-1,0-2-0.1-3.2-0.5c-0.9-0.3-1.8-0.8-2.5-1.1
		c-0.8-0.5-1.4-1.1-2-1.8c-0.1-0.3-0.4-0.4-0.4-0.5c-0.1-0.3-0.3-0.4-0.4-0.6c-0.6-1-1.1-2.2-1.4-3.3c-0.3-0.8-0.4-1.6-0.4-2.5
		s0-1.8,0-2.7c0-0.3,0-0.5,0.1-0.8c0-0.3,0.1-0.5,0.1-0.8c0.1-1.3,0.5-2.5,0.9-3.7c0.6-1.9,1.3-3.5,1.9-4.8c0.8-1.4,1.5-2.5,2.3-3.3
		l0.8-0.8l1,0.4l4.6,1.5l3.2,1l-2.7,2c-0.3,0.3-0.5,0.4-0.8,0.6c-0.3,0.3-0.5,0.5-0.6,0.8c-1.1,1.4-2.2,3.2-2.8,5.4
		c-0.1,0.4-0.3,0.9-0.4,1.3c-0.1,0.4-0.1,0.9-0.3,1.3v0.1c0,0.1,0,0.3,0,0.4c0,0.1,0,0.3,0,0.4c0,0.5,0,1,0.1,1.5
		c0.1,0.3,0.1,0.6,0.3,0.9c0.1,0.3,0.3,0.5,0.4,0.8c0.1,0.1,0.3,0.4,0.5,0.5c0.3,0.1,0.5,0.3,0.8,0.4l0.3,0.1c0.1,0,0.3,0,0.3,0.1
		c0.4,0.1,0.8,0.1,1,0c0.3,0,0.5-0.1,0.8-0.3c0.3-0.1,0.5-0.3,0.9-0.5l0.3-0.1l0.4-0.3c0.5-0.4,1-0.9,1.5-1.4
		c0.4-0.4,0.8-0.9,1.3-1.3c0.4-0.5,0.9-1,1.4-1.5c0.5-0.5,1-1.1,1.6-1.6c0.5-0.5,1.1-1,1.6-1.5c0.1-0.1,0.3-0.3,0.5-0.4
		c0.1-0.1,0.4-0.3,0.5-0.4c0.9-0.6,1.6-1.3,2.5-1.8c0.6-0.4,1.3-0.6,1.9-0.9c0.6-0.3,1.4-0.4,2-0.5c0.8-0.1,1.5-0.1,2.3-0.1
		c0.8,0.1,1.5,0.3,2.3,0.5c0.3,0.1,0.5,0.1,0.8,0.3c0.3,0.1,0.5,0.3,0.8,0.4c1.3,0.6,2.4,1.4,3.2,2.4c0.1,0.1,0.3,0.4,0.5,0.5
		c0.1,0.3,0.3,0.4,0.4,0.6c0.6,1,1.1,2.2,1.4,3.4v0.1c0,0.3,0.1,0.5,0.1,0.8s0.1,0.5,0.1,0.8C562.3,378.9,562.3,380.2,562.2,381.6z
		 M555,314.4c-5.7,0-10.4-4.7-10.4-10.4c0-5.7,4.7-10.4,10.4-10.4c5.7,0,10.4,4.7,10.4,10.4C565.4,309.7,560.7,314.4,555,314.4z"/>
	<path class="st1" d="M525,407.4c0-0.1,0-0.1-0.1-0.3c-0.1-0.5-0.4-0.9-0.8-1.3c0-0.1-0.1-0.1-0.1-0.3c0,0-0.1-0.1-0.3-0.3
		c-0.4-0.4-0.9-0.6-1.4-0.9c-0.6-0.4-1.3-0.5-1.8-0.5c-0.5,0-1.1,0.1-1.6,0.3c-0.1,0.1-0.4,0.1-0.5,0.3c-0.1,0.1-0.3,0.3-0.5,0.3
		c-0.9,0.6-1.6,1.6-2.3,3l-1.9,4.1l8.6,4.4l2-3.9c0.1-0.1,0.1-0.3,0.1-0.4c0,0,0.1-0.1,0.1-0.4c0.3-0.6,0.4-1.1,0.5-1.8
		c0-0.4,0.1-0.8,0.1-1.1c0-0.4,0-0.6-0.1-1C525.1,407.7,525.1,407.5,525,407.4z"/>
</g>
</svg>
