<?xml version="1.0" encoding="utf-8"?>
<!-- Generator: Adobe Illustrator 23.0.4, SVG Export Plug-In . SVG Version: 6.00 Build 0)  -->
<svg version="1.1" id="Capa_1" xmlns="http://www.w3.org/2000/svg" xmlns:xlink="http://www.w3.org/1999/xlink" x="0px" y="0px"
	 viewBox="0 0 595.3 595.3" style="enable-background:new 0 0 595.3 595.3;" xml:space="preserve">
<style type="text/css">
	.st0{fill:#163856;}
</style>
<path class="st0" d="M225.8,309.7C225.8,309.7,225.7,309.7,225.8,309.7c-2-9.9-6.6-18.7-13.2-25.9c0-0.1-0.1-0.1-0.1-0.2
	c-0.5-0.5-0.9-0.9-1.4-1.4c-0.1-0.1-0.2-0.2-0.3-0.3c-1.8-1.8-3.7-3.4-5.6-4.9c-0.1-0.1-0.2-0.1-0.2-0.2c-2-1.5-4-2.8-6.1-4
	c-0.3-0.2-0.6-0.3-0.9-0.5c-0.9-0.5-1.8-0.9-2.7-1.3c-0.6-0.3-1.2-0.6-1.9-0.8c-0.4-0.2-0.9-0.4-1.3-0.5c-1-0.4-1.9-0.7-2.9-1
	c-0.1,0-0.2-0.1-0.3-0.1c-1.2-0.4-2.4-0.7-3.6-1c-0.1,0-0.2-0.1-0.3-0.1c0,0,0,0-0.1,0c-3.9-0.9-8-1.4-12.1-1.4s-8.1,0.5-11.9,1.3
	l0,0h-0.1c-7.2,1.7-13.9,4.8-19.8,9l0,0c-1.1,0.8-2.2,1.7-3.2,2.6c-0.1,0.1-0.3,0.2-0.4,0.4c-1,0.9-2,1.8-2.9,2.7
	c-0.1,0.1-0.2,0.3-0.4,0.4c-0.8,0.9-1.6,1.7-2.4,2.6c-0.1,0.1-0.2,0.2-0.3,0.3c0,0,0,0,0,0.1c-7.9,9.4-12.6,21.5-12.6,34.7
	c0,4.1,0.5,8,1.3,11.9v0.1c0.6,2.5,1.3,5,2.2,7.3c0.1,0.2,0.1,0.3,0.2,0.5c0.4,1.1,0.9,2.2,1.4,3.2c0,0.1,0.1,0.2,0.1,0.2
	c0.5,1.1,1.1,2.1,1.6,3.1c0.1,0.3,0.3,0.5,0.5,0.8c0.5,0.9,1.1,1.8,1.6,2.6c0.1,0.1,0.1,0.2,0.2,0.3l0,0
	c4.6,6.7,10.6,12.4,17.6,16.5l0,0c0.1,0,0.1,0.1,0.2,0.1c0.9,0.5,1.9,1,2.8,1.5c0.1,0,0.1,0.1,0.2,0.1c2.1,1,4.2,1.9,6.4,2.7h0.1
	c3.2,1.1,6.6,1.9,10.1,2.4c0.2,0,0.4,0,0.6,0.1c0.9,0.1,1.8,0.2,2.7,0.3c0.2,0,0.5,0,0.7,0.1c1.1,0.1,2.2,0.1,3.3,0.1l0,0l0,0h0.1
	c1,0,2,0,3-0.1c0.3,0,0.6,0,0.9-0.1c0.8-0.1,1.5-0.1,2.3-0.2c0.3,0,0.6-0.1,0.8-0.1c0.8-0.1,1.6-0.2,2.4-0.4c0.2,0,0.5-0.1,0.7-0.1
	c0.9-0.2,1.8-0.4,2.8-0.6c0.1,0,0.2,0,0.3-0.1c1-0.3,2.1-0.5,3.1-0.9c0.1,0,0.3-0.1,0.4-0.1c0.8-0.3,1.6-0.5,2.4-0.8
	c0.4-0.2,0.8-0.3,1.2-0.5c0.5-0.2,0.9-0.4,1.4-0.6s1-0.5,1.5-0.7c0.3-0.1,0.6-0.3,0.9-0.4c0.5-0.2,0.9-0.4,1.4-0.7c0,0,0,0,0.1-0.1
	c7.9-4.2,14.6-10.4,19.5-17.8l0.1-0.1c0.3-0.4,0.5-0.9,0.8-1.3c0.2-0.3,0.4-0.6,0.5-0.9c1.2-1.9,2.2-4,3.1-6
	c0.2-0.4,0.3-0.7,0.5-1.1c0.3-0.6,0.5-1.3,0.8-1.9c0.1-0.3,0.2-0.6,0.3-0.9c0.4-1.1,0.8-2.3,1.1-3.4c0.1-0.4,0.2-0.9,0.4-1.3
	c0.2-0.6,0.3-1.2,0.4-1.9c0.1-0.5,0.2-1.1,0.3-1.6c0.2-1,0.3-2,0.4-3c0.1-0.5,0.1-1,0.2-1.5c0.1-0.6,0.1-1.3,0.1-1.9
	c0-0.5,0-1,0.1-1.5c0-0.5,0.1-1.1,0.1-1.6C226.8,316.8,226.5,313.2,225.8,309.7 M184.9,269.5c3.7,0.9,7.4,2.2,10.8,3.9l0,0
	c1,0.5,1.9,1,2.9,1.5c0.2,0.1,0.5,0.3,0.7,0.4c0.9,0.5,1.8,1.1,2.7,1.7c0.3,0.2,0.5,0.4,0.8,0.6c0.6,0.4,1.2,0.9,1.9,1.4
	c0.3,0.3,0.7,0.5,1,0.8c0.8,0.6,1.5,1.3,2.3,2c0.3,0.3,0.5,0.5,0.8,0.8c0.6,0.5,1.1,1.1,1.6,1.6c0.2,0.2,0.4,0.4,0.5,0.6
	c0,0.9-0.1,16.5-0.2,20l-14.2,8.6l-22.7-16.5v-19.3C175.9,276,184.3,270,184.9,269.5 M160.8,269.5c0.6,0.5,9.5,6.9,11.2,8.1v18.8
	c-0.1,0-0.3,0-0.4,0.1L148,313.7l-14.9-9.1c0-3.5-0.2-17.5-0.2-18.1C140.2,278.1,150,272,160.8,269.5 M120.5,320.3
	c0-3.4,0.4-6.9,1.1-10.3c0.9-0.3,9.9-3.3,10.8-3.6l14.6,8.9l9,27.8l-12.4,8.8l0.1,0.1c-3.1-0.6-13.8-2.7-14.5-2.8
	C123.6,340.6,120.5,330.6,120.5,320.3 M198.5,352.9c0,0-1.5,12.7-1.6,13.7h-0.1c-4.6,2.4-9.5,4.1-14.6,5c-0.1,0-0.1,0-0.2,0
	c-0.9,0.2-1.8,0.3-2.7,0.4c-0.2,0-0.4,0-0.5,0.1c-0.8,0.1-1.6,0.2-2.4,0.2c-0.2,0-0.5,0-0.7,0.1c-1,0.1-1.9,0.1-2.9,0.1h-0.1
	c-1.1,0-2.1,0-3.2-0.1c-0.2,0-0.4,0-0.6,0c-0.9-0.1-1.9-0.2-2.8-0.3c-0.1,0-0.2,0-0.3,0c-6.7-0.9-13.1-3.1-19-6.4
	c-0.1-0.9-1.5-12.7-1.5-12.7l0,0l11.9-8.5h29.4L198.5,352.9L198.5,352.9 M224.9,322c0,0.4,0,0.9,0,1.3c0,0.6-0.1,1.2-0.1,1.8
	c0,0.5-0.1,1-0.2,1.5c-0.1,0.6-0.1,1.1-0.2,1.7c-0.1,0.9-0.3,1.9-0.5,2.8c-0.1,0.5-0.2,0.9-0.3,1.4c-0.2,0.7-0.3,1.3-0.5,2
	c-0.1,0.4-0.2,0.8-0.3,1.2c-0.3,1-0.6,2-1,2.9c-0.1,0.3-0.2,0.5-0.3,0.8c-0.3,0.8-0.7,1.6-1,2.4c-0.1,0.3-0.2,0.5-0.4,0.8
	c-0.5,1-1,2-1.5,2.9c-0.1,0.1-0.2,0.3-0.2,0.4c-0.5,0.9-1,1.7-1.5,2.5c-0.1,0.1-0.2,0.3-0.2,0.4c-0.8,0.1-12.6,2.5-16.2,3.2l0.1-0.1
	l-11.5-8.2l9.2-28.5c0.1-0.2,0-0.4,0-0.6l13.5-8.2c1.5,0.5,11.5,3.9,12.5,4.2c0,0.2,0.1,0.4,0.1,0.6c0.1,0.5,0.2,1.1,0.3,1.7
	c0.1,0.4,0.1,0.9,0.2,1.3c0,0.3,0.1,0.7,0.1,1c0.2,1.7,0.3,3.4,0.3,5.2C225,320.9,224.9,321.4,224.9,322"/>
<path class="st0" d="M420.9,467.7v-27.6c0.5-0.5,7.2-7.2,7.2-7.2v-36.8h-21.4V420h-15.2v-23.8h-30V420h-15.2v-23.8h-21.4V433
	c0,0,6.7,6.7,7.2,7.2v27.6c-0.3,0.4-13.8,23.3-13.8,23.3v42h116.2v-42C434.7,491,421.2,468.2,420.9,467.7 M429.7,486.2h-24.4v-19.9
	h13.8v2C419.1,468.2,425.6,479.3,429.7,486.2 M377.6,444.6H419v19.9h-41.4V444.6z M403.4,466.3v19.9h-14.1
	c-2.7-4.2-7.4-6.9-12.7-6.9c-5.3,0-10,2.8-12.7,6.9H347v-19.9H403.4z M408.6,398h17.7v22h-17.7V398z M405.3,421.9h21v10.3
	c-0.5,0.5-7.2,7.2-7.2,7.2v3.3h-13.8V421.9z M377.6,398.1h12.1v22h-12.1V398.1z M363.5,398.1h12.3v22h-12.3V398.1z M347,421.9h56.4
	v20.8H347V421.9z M375.8,464.4h-41.7v-19.9h41.7V464.4z M326.9,398h17.7v22h-17.7V398z M326.9,432.2v-10.3h18.2v20.8h-11v-3.3
	C334.1,439.4,327.4,432.7,326.9,432.2 M334.1,468.2v-2h11v19.9h-21.7C327.6,479.3,334.1,468.2,334.1,468.2 M320.3,491.5
	c0.1-0.1,0.9-1.5,2.1-3.5h40.5c-0.9,1.9-1.4,4.1-1.4,6.4v13.5h-41.1v-16.4H320.3z M345.2,531.2h-24.8v-21.4h24.8V531.2z M347,509.8
	h14.5v21.4H347V509.8z M363.3,494.4c0-2.3,0.6-4.5,1.6-6.4c0.4-0.7,0.8-1.3,1.2-1.8c2.4-3.1,6.2-5.1,10.5-5.1c4.2,0,8,2,10.5,5.1
	c0.5,0.6,0.9,1.2,1.2,1.8c1,1.9,1.6,4.1,1.6,6.4v36.7h-26.6L363.3,494.4L363.3,494.4z M403.4,531.2h-11.6v-21.4h11.6V531.2z
	 M432.8,531.2h-27.6v-21.4h27.6V531.2z M432.8,507.9h-41v-13.5c0-2.3-0.5-4.4-1.4-6.4h40.4c1.2,2,2,3.4,2.1,3.5v16.4H432.8z"/>
<g>
	<polygon class="st0" points="324.4,206 318.8,224.5 330.3,224.5 	"/>
	<polygon class="st0" points="121.1,206 115.5,224.5 127,224.5 	"/>
	<path class="st0" d="M167.7,203.1c-0.7-0.1-2.7-0.2-6.1-0.2h-6.5v12.5h6.2c4,0,6.5-0.2,7.5-0.6c1-0.4,1.7-1.1,2.3-2.1
		c0.5-1,0.8-2.2,0.8-3.7c0-1.6-0.4-3-1.1-4C170.1,204,169.1,203.4,167.7,203.1z"/>
	<path class="st0" d="M522.7,185.7c0-1.3-0.3-2.6-1-3.7l-0.1-0.2l-30.8-54.2c-1.3-2.3-3.8-3.7-6.4-3.7h-81.3c-4.1,0-7.4,3.3-7.4,7.4
		V154h-53.6v-22.6c0-1-0.2-2-0.6-2.9c0.4-0.9,0.6-1.8,0.6-2.8v-9.5c1,0,2-0.2,2.9-0.6l97.3-41.9c2.7-1.2,4.5-3.8,4.5-6.8
		c0-2.9-1.7-5.6-4.5-6.8L345,17.9c-1.6-0.7-3.5-0.8-5.1-0.2c-0.7-0.7-1.5-1.2-2.4-1.6L300.6,0.6c-1.9-0.8-4-0.8-5.9,0L257.8,16
		c-0.9,0.4-1.7,0.9-2.4,1.6c-1.7-0.5-3.5-0.5-5.2,0.2L152.9,60c-2.7,1.2-4.5,3.8-4.5,6.8c0,2.9,1.8,5.6,4.5,6.8l97.3,41.9
		c1,0.4,2,0.6,3,0.6v9.5c0,1,0.2,2,0.6,2.9c-0.4,0.9-0.6,1.8-0.6,2.8V154h-53.6v-22.6c0-4.1-3.3-7.4-7.4-7.4h-81.3
		c-2.7,0-5.1,1.4-6.4,3.7l-30.8,54.2l-0.1,0.2c-0.6,1.1-1,2.4-1,3.7v67.7v3.5c0,2.3,1.1,4.5,3,5.9c1.2,0.9,23,17.9,23,57.5
		c0,11.3-1.8,24.4-6.3,39.4c-1,2.9-8.5,24.9-8.5,55c0,11.5,1.1,24.2,4.1,37.5c5.4,23.9,16,45.6,31.6,64.5
		c15.9,19.3,37.2,35.8,63.2,49.1c3.4,2.1,23.6,12.8,87.6,16h0.2c0.1,0,0.3,0,0.4,0h10.7c4.5,0,8.4,3,8.7,6.7
		c0.4,3.8,3.6,6.7,7.4,6.7s7.1-2.9,7.4-6.7s4.2-6.7,8.7-6.7h10.7c0.1,0,0.2,0,0.4,0c64.5-3.2,84.6-14,87.9-16
		c72.1-36.8,92.8-90.9,97.5-129.9c0.9-7.4,1.3-14.5,1.3-21.2c0-30.2-7.5-52.2-8.5-55.1c-4.4-14.8-6.2-27.8-6.2-39
		c0-28.8,11.5-45.8,17.9-53c2.9-3.3,5-4.9,5-4.9c1.9-1.4,3-3.6,3-5.9L522.7,185.7z M253.1,108.7l-97.3-41.9l97.3-42.2V108.7z
		 M276.7,16.2l20.9-8.8l20.3,8.5l7.6,3.2l-27.9,28.2l-27.9-28.2L276.7,16.2z M314.9,82.1c3.5,3.6,5.7,6.5,6.7,8.8
		c1,2.2,1.3,4.6,0.7,7.1c-0.5,2.5-1.8,4.8-3.8,6.9c-2.7,2.8-5.7,4.2-8.9,4c-3.1-0.2-6.9-2.4-11.5-6.6l-0.5-0.7
		c-4.8,4.6-8.8,7-12.1,7.2c-3.2,0.2-6.2-1.2-8.9-4c-2-2.1-3.3-4.4-3.8-6.9s-0.3-4.8,0.7-7.1c1-2.2,3.3-5.1,6.7-8.8l17.4-18
		L314.9,82.1z M260.6,26.3L260.6,26.3l29,29.3l-16.8,17.5c-5,5.3-8.3,10-9.9,14.2c-1.5,4.2-1.7,8.4-0.5,12.7s3.6,8.3,7.1,12
		c5.3,5.5,10.9,8.2,16.7,7.9c3.8-0.2,7.5-1.6,11.3-4.3c3.8,2.8,7.6,4.2,11.4,4.4c5.9,0.2,11.4-2.4,16.7-7.9c3.6-3.7,5.9-7.7,7.1-12
		s1-8.5-0.5-12.7c-1.5-4.2-4.8-8.9-9.9-14.2l-16.9-17.6l28.9-29.3v97.5h-73.7V26.3z M100.2,438.5c-2.9,1.9-5.2,3.4-6.8,4.4
		c-7.5-44.5,5.9-81,5.9-81c17.8-59.4-5.1-90.8-15.1-101.1h289.7c-2.1,1.3-4.8,3.1-8.1,5.3c-0.5,0.3-1.1,0.7-1.6,1
		c-1.6,1-3.3,2.2-5.2,3.4c-1.3,0.8-2.5,1.7-3.9,2.5c-2.4,1.6-5,3.2-7.7,5c-0.1,0.1-0.2,0.2-0.4,0.2c-6.4,4.1-13.5,8.8-21.3,13.8
		c-1.7,1.1-3.4,2.2-5.2,3.4c-2.5,1.6-5.1,3.3-7.7,5c-2.2,1.4-4.3,2.8-6.6,4.3c-5,3.3-10.2,6.6-15.5,10c-2.8,1.8-5.6,3.6-8.4,5.5
		c-1,0.7-2,1.3-3.1,2c-7.9,5.1-16,10.4-24.2,15.7c-1.1,0.7-2.2,1.4-3.3,2.1c-10.5,6.8-21.1,13.7-31.5,20.5c-4,2.6-8,5.2-11.9,7.7
		c-1.3,0.9-2.6,1.7-3.9,2.6c-1.7,1.1-3.4,2.2-5,3.3c-2.6,1.7-5.3,3.4-7.9,5.1c-14.6,9.5-28.6,18.6-41.2,26.8c-0.5,0.3-1.1,0.7-1.6,1
		C123,423.7,104.4,435.7,100.2,438.5z M100.4,244.3l16.1-50h9.1l16.9,50h-9.1l-3.6-11.3H113l-3.6,11.3H100.4z M174.2,226.6
		c1.2,1.5,2.7,4.2,4.7,8.1l5.1,9.8h-9.9l-6-11c-2.2-3.9-3.7-6.3-4.5-7.3c-0.8-1-1.6-1.7-2.5-2.1c-0.9-0.4-2.3-0.6-4.3-0.6h-1.7v20.9
		v0.1h-8.4v-50h17.6c4.5,0,7.7,0.4,9.7,1.3c2,0.9,3.6,2.5,4.8,4.8c1.2,2.3,1.8,4.9,1.8,7.9c0,3.8-0.9,6.9-2.7,9.3
		c-1.8,2.4-4.5,4-8.1,4.6C171.6,223.7,173,225.1,174.2,226.6z M210.8,226.8c-0.6-0.8-1.6-1.6-3-2.2c-1-0.4-3.2-1.1-6.7-2.2
		c-4.5-1.3-7.6-3-9.4-4.9c-2.5-2.8-3.8-6.1-3.8-10.1c0-2.5,0.6-4.9,1.8-7.2c1.2-2.2,2.9-3.9,5.2-5.1c2.2-1.2,5-1.7,8.2-1.7
		c5.2,0,9.1,1.4,11.8,4.2c2.6,2.8,4,6.5,4.2,11.2l-8.4,0.3c-0.4-2.6-1.1-4.4-2.3-5.6c-1.2-1.1-2.9-1.7-5.3-1.7
		c-2.4,0-4.3,0.6-5.7,1.8c-0.9,0.8-1.3,1.8-1.3,3.1c0,1.2,0.4,2.2,1.3,3c1,1.1,3.6,2.2,7.6,3.3c4.1,1.2,7.1,2.3,9,3.6
		c1.9,1.2,3.5,2.9,4.6,5.1c1.1,2.2,1.7,4.8,1.7,8c0,2.9-0.7,5.6-2,8.1c-1.3,2.5-3.2,4.4-5.6,5.6c-2.4,1.2-5.4,1.8-9,1.8
		c-5.2,0-9.3-1.5-12.1-4.4c-2.9-2.9-4.6-7.2-5.2-12.8l8.2-0.9c0.5,3.3,1.5,5.7,3,7.3c1.5,1.5,3.5,2.3,6,2.3c2.7,0,4.7-0.7,6.1-2.1
		c1.4-1.4,2-3,2-4.8C211.7,228.6,211.4,227.6,210.8,226.8z M256.6,213.9v8.5h-20.8v13.4h23.1v8.6h-31.5v-50.1h30.7v8.6h-22.3v11
		H256.6z M266.1,244.4v-50.1h8.2l17,33.3v-33.3h7.8v50.1h-8.4L274,211.8v32.6H266.1z M303.7,244.3l16.1-50h9.1l16.8,50h-9.1L333,233
		h-16.9l-3.4,11.3H303.7z M379.4,235.8v8.6H350v-49.7h8.4v41.1H379.4z M496,361.9c0,0,47.5,129.1-87,197.5c0,0-17.2,11.7-84.5,15
		h-10.7c-8.5,0-15.4,5.9-16.1,13.4h-0.1c-0.7-7.5-7.6-13.4-16.1-13.4h-10.7c-0.1,0-0.2,0-0.3,0c-67.1-3.3-84.3-15-84.3-15
		c-24.2-12.3-42.5-26.6-56.3-41.8l368.8-239.3C490.4,295.1,484.1,322.3,496,361.9z M426.3,214.6v8.5H409v21.3h-8.5v-50.1h28.6v8.6
		H409v11.7H426.3z M429.3,244.4v-9.6h8v9.6H429.3z M455.7,232.4c1.9,2.7,4.3,4,7.4,4c2.2,0,4.1-0.9,5.7-2.6c1.6-1.6,2.7-4.3,3.5-7.9
		l8.2,3c-1.2,5.5-3.3,9.6-6.2,12.3c-2.9,2.7-6.6,4-11.1,4c-5.5,0-10.1-2.3-13.6-6.8c-3.6-4.5-5.4-10.7-5.4-18.6
		c0-8.3,1.8-14.8,5.4-19.4c3.6-4.6,8.3-6.9,14.1-6.9c5.1,0,9.2,1.8,12.4,5.4c1.9,2.1,3.3,5.2,4.3,9.2l-8.3,2.4
		c-0.5-2.6-1.5-4.7-3.1-6.2c-1.6-1.5-3.5-2.3-5.7-2.3c-3.1,0-5.6,1.3-7.5,4c-1.9,2.7-2.9,7-2.9,12.9
		C452.9,225.2,453.8,229.7,455.7,232.4z M487.4,244.4v-9.6h8v9.6H487.4z M84.3,178.1l26.6-46.8h81.3v30h68.4v-30h74.1v30h68.4v-30
		h81.3l26.6,46.8H84.3z"/>
</g>
</svg>
