<?xml version="1.0" encoding="utf-8"?>
<!-- Generator: Adobe Illustrator 23.0.4, SVG Export Plug-In . SVG Version: 6.00 Build 0)  -->
<svg version="1.1" id="Layer_1" xmlns="http://www.w3.org/2000/svg" xmlns:xlink="http://www.w3.org/1999/xlink" x="0px" y="0px"
	 viewBox="0 0 595.3 595.3" style="enable-background:new 0 0 595.3 595.3;" xml:space="preserve">
<style type="text/css">
	.st0{fill-rule:evenodd;clip-rule:evenodd;fill:#163856;}
</style>
<g>
	<path class="st0" d="M175.3,277.8c5.2,0,9.5-1.4,12.9-4.1c3.3-2.8,5.8-7.1,7.2-12.8l-9.5-3.3c-0.8,3.9-2.1,6.6-4,8.6
		c-1.9,1.8-4.1,2.6-6.7,2.6c-3.5,0-6.4-1.4-8.6-4.3c-2.2-2.7-3.3-7.4-3.3-14.1c0-6.3,1.1-10.8,3.3-13.6c2.2-2.7,5.2-4.1,8.9-4.1
		c2.6,0,4.7,0.8,6.6,2.4c1.9,1.5,3.1,3.7,3.7,6.4l9.7-2.5c-1.1-4.3-2.7-7.4-5-9.7c-3.8-3.8-8.6-5.7-14.5-5.7
		c-6.9,0-12.4,2.4-16.5,7.2c-4.1,4.8-6.3,11.7-6.3,20.3c0,8.3,2.1,14.7,6.3,19.5C163.5,275.5,168.8,277.8,175.3,277.8z"/>
	<path class="st0" d="M292.8,224.5l-18.9,52.3h10.3l4-11.8h19.5l4.3,11.8h10.8l-19.5-52.3H292.8z M291.2,256.2l6.6-19.4l6.7,19.4
		H291.2z"/>
	<path class="st0" d="M431,276.5c2.7-0.4,4.8-1.2,6.6-2.5c1.8-1.4,3.2-3.2,4.3-5.4s1.5-4.5,1.5-6.9c0-3.1-0.8-5.7-2.4-7.9
		c-1.7-2.2-3.9-3.8-6.9-4.7c2.1-1.1,3.9-2.5,5.1-4.6c1.3-2,1.9-4.3,1.9-6.7c0-2.2-0.5-4.4-1.5-6.1c-1.1-1.9-2.2-3.3-3.8-4.4
		s-3.2-1.8-5.1-2.1c-1.9-0.4-4.7-0.6-8.6-0.6h-19.5h-0.1v52.3h16.5C425.4,276.8,429.3,276.8,431,276.5z M412.6,233.3h5.7
		c4.6,0,7.4,0,8.4,0.1c1.5,0.2,2.8,0.9,3.7,1.9c0.8,0.9,1.2,2.4,1.2,3.9c0,1.8-0.5,3.1-1.4,4.1c-1.1,1.1-2.4,1.7-4,1.9
		c-0.8,0.1-3.2,0.1-7.1,0.1h-6.4V233.3z M412.6,254.1h7.9c4.5,0,7.4,0.2,8.7,0.7c1.3,0.5,2.4,1.3,3.1,2.4c0.7,1.1,1.1,2.5,1.1,4
		c0,1.8-0.5,3.3-1.4,4.4c-0.9,1.2-2.1,1.9-3.5,2.1c-0.9,0.2-3.2,0.4-6.7,0.4h-9.1V254.1z"/>
	<path class="st0" d="M519.8,1L508,14.7l-2.6,2.8l-2.5,2.7l-2.5,2.4l-2.5,2.2l-2.5,2l-2.5,1.9l-2.4,1.7l-2.4,1.4l-2.4,1.2l-2.2,1.1
		l-2.2,0.8l-2.4,0.7l-2.2,0.5l-2.2,0.2l-2.2,0.1l-2.2-0.1l-2.2-0.2l-2.4-0.5l-2.4-0.7l-2.5-0.8l-2.6-1.1l-2.6-1.3l-2.7-1.5l-2.7-1.9
		l-2.8-2l-2.8-2.2l-3-2.5l-3-2.8l-3.1-3l-3.2-3.3L425.3,5l-7.9,7.3l-4,3.4l-3.9,3.2l-3.9,3l-3.9,2.6l-3.8,2.4l-3.8,2.1l-3.8,1.9
		l-3.7,1.7l-3.7,1.3l-3.8,1.2l-3.7,0.9l-3.7,0.7l-3.5,0.4l-3.7,0.2h-3.7l-3.5-0.2l-3.7-0.4l-3.5-0.7l-3.7-0.8l-3.5-1.1l-3.7-1.3
		l-3.5-1.4l-3.7-1.7l-3.7-1.9l-3.5-2.1l-3.7-2.2l-3.7-2.5l-3.5-2.7l-3.7-3l-3.7-3.1l-7.2-6.5l-7.2,6.5l-3.5,3.1l-3.7,3l-3.5,2.7
		l-3.7,2.5l-3.7,2.2l-3.5,2.1l-3.7,1.9l-3.7,1.7l-3.5,1.4l-3.7,1.3l-3.5,1.1l-3.5,0.8l-3.5,0.7L242,37l-3,0.2l-5.9-0.1l-1.8-0.1
		l-3.7-0.4l-3.7-0.7l-3.7-0.9l-3.7-1.2l-3.7-1.3l-3.8-1.7l-3.8-1.9l-3.8-2.1l-3.8-2.4l-3.9-2.6l-3.8-3l-3.9-3.2l-3.9-3.4L174.4,5
		l-6.9,7.4l-3.2,3.3l-3.1,3l-3,2.8l-3,2.5l-3,2.2l-2.8,2l-2.7,1.9l-2.7,1.5l-2.6,1.3l-2.6,1.1l-2.5,0.8l-2.4,0.7l-2.4,0.5l-2.4,0.2
		l-2.4,0.1l-2.2-0.1l-2.2-0.2l-2.2-0.5l-2.2-0.7l-2.2-0.8l-2.2-1.1l-2.4-1.2l-2.4-1.4l-2.4-1.7l-2.4-1.9l-2.5-2l-2.5-2.2l-2.5-2.4
		l-2.5-2.7l-2.6-2.8L79.7,1l-0.2,396.2l219.9,198.1L520,397.2L519.8,1z M394.4,39.8l4.3-2l4.3-2.4l4.3-2.6l4.3-2.8l4.1-3.1l4.3-3.4
		l4.3-3.7l0.4-0.2l3.2,3.3L431,26l3.2,3.1l3.3,2.7l3.2,2.6l3.2,2.2l3.2,2.1l3.2,1.8l3.2,1.7l0.6,0.2v399.8l-64.5,58V41.9l0.6-0.2
		L394.4,39.8z M145.8,42.2l3.2-1.7l3.2-1.8l3.2-2.1l3.2-2.2l3.2-2.6l3.3-2.7l3.2-3.1l3.3-3.2l3.2-3.3l0.4,0.2l4.3,3.7l4.3,3.4
		l4.3,3.1l4.3,2.8l4.3,2.6l4.3,2.4l4.3,2l3,1.3v457.6l-64.6-58.2V43.3L145.8,42.2z M266.4,551.5V40.8l1.4-0.5l4-1.9l4-2.1l4-2.2
		l3.9-2.6l3.9-2.7l3.9-3l3.9-3.1l3.9-3.3l0.2-0.2l0.2,0.2l3.9,3.3l3.9,3.1l3.9,3l3.9,2.7l4,2.6l3.9,2.2l4,2.1l3.5,1.7v512.9
		l-31.5,28.4L266.4,551.5z"/>
</g>
</svg>
