<?xml version="1.0" encoding="utf-8"?>
<!-- Generator: Adobe Illustrator 23.0.4, SVG Export Plug-In . SVG Version: 6.00 Build 0)  -->
<svg version="1.1" id="Layer_1" xmlns="http://www.w3.org/2000/svg" xmlns:xlink="http://www.w3.org/1999/xlink" x="0px" y="0px"
	 viewBox="0 0 595.3 595.3" style="enable-background:new 0 0 595.3 595.3;" xml:space="preserve">
<style type="text/css">
	.st0{fill-rule:evenodd;clip-rule:evenodd;fill:#163856;}
</style>
<g>
	<path class="st0" d="M372.2,0h-74.6H223c-15.5,34.2-44.2,107.1-209.7,76.9c2,261.3,107.7,423.7,284.4,518.4
		C474.3,500.6,580,338.2,582,76.9C393.8,120.2,372.2,0,372.2,0z M179.7,472.1l-5.2-5.5L163.3,454l-10.7-13l-10.3-13.4l-9.8-13.9
		l-9.3-14.3l-8.9-14.8l-8.4-15.3L98,353.5l-1.9-4.2V105.8l7.5-0.3l27.1-3l11.9-2.1l10.9-2.5l10-3l9.1-3.4l7.1-3.3V472.1z
		 M395.2,285.9c0,0.3,0,0.6,0,0.9c0,0.9-0.1,1.8-0.1,2.7c0,0.2,0,0.4,0,0.5c-0.1,1-0.2,2.1-0.3,3.1c0,0.3-0.1,0.5-0.1,0.8
		c-0.1,0.8-0.2,1.7-0.3,2.5c0,0.2-0.1,0.5-0.1,0.7c-0.2,1-0.3,2.1-0.5,3.1c0,0.2-0.1,0.4-0.1,0.6c-0.2,0.9-0.3,1.7-0.5,2.6
		c-0.1,0.2-0.1,0.5-0.2,0.7c-0.2,1-0.5,2-0.7,3c0,0,0,0.1,0,0.1c-0.3,1-0.5,1.9-0.8,2.9c-0.1,0.2-0.1,0.5-0.2,0.7
		c-0.3,0.9-0.6,1.9-0.9,2.8c0,0.1,0,0.1-0.1,0.2c-0.3,1-0.7,2-1.1,3c-0.1,0.2-0.1,0.4-0.2,0.6c-0.3,0.9-0.7,1.7-1,2.6
		c-0.1,0.1-0.1,0.3-0.2,0.4c-0.4,1-0.8,1.9-1.3,2.9c-0.1,0.1-0.1,0.2-0.2,0.3c-0.4,0.9-0.8,1.7-1.2,2.6c-0.1,0.1-0.1,0.3-0.2,0.4
		c-1,1.9-2,3.8-3,5.6c-0.1,0.1-0.1,0.3-0.2,0.4c-1.1,1.8-2.2,3.6-3.5,5.4c-0.1,0.1-0.1,0.2-0.2,0.3c-1.2,1.8-2.5,3.5-3.9,5.2
		c0,0,0,0-0.1,0.1c-0.7,0.8-1.4,1.7-2.1,2.5c0,0,0,0-0.1,0.1c-1.4,1.7-2.9,3.3-4.5,4.9c0,0-0.1,0.1-0.1,0.1
		c-1.5,1.6-3.1,3.1-4.8,4.6c0,0,0,0-0.1,0.1c-4.2,3.7-8.6,7-13.4,10c0,0-0.1,0-0.1,0.1c-1.9,1.2-3.8,2.2-5.7,3.3
		c-0.1,0-0.2,0.1-0.2,0.1c-1,0.5-1.9,1-2.9,1.5v0c-12.8,6.2-27.2,9.7-42.4,9.7c-15.3,0-29.9-3.6-42.8-9.9v0
		c-24.3-11.9-42.9-33.6-50.7-59.8c0-0.1-0.1-0.2-0.1-0.3c-0.6-2.1-1.2-4.2-1.6-6.3c0-0.2-0.1-0.3-0.1-0.5c-0.2-1-0.4-2-0.6-3
		c0-0.1,0-0.1,0-0.2c-0.2-1.1-0.4-2.1-0.5-3.2c0-0.2-0.1-0.4-0.1-0.6c-0.1-0.9-0.2-1.8-0.3-2.7c0-0.2-0.1-0.4-0.1-0.7
		c-0.1-1-0.2-2.1-0.3-3.2c0-0.2,0-0.3,0-0.5c-0.1-0.9-0.1-1.8-0.1-2.7c0-0.3,0-0.6,0-0.9c0-1.1-0.1-2.1-0.1-3.2c0,0,0,0,0,0
		c0-1,0-2.1,0-3.1c0-0.4,0-0.7,0-1.1c0-0.7,0.1-1.4,0.1-2.1c0-0.4,0-0.7,0.1-1.1c0.1-0.9,0.2-1.9,0.2-2.8c0-0.4,0.1-0.9,0.1-1.3
		c0.1-0.6,0.1-1.2,0.2-1.8c0.1-0.4,0.1-0.9,0.2-1.3c0.1-0.9,0.3-1.8,0.4-2.7c0.1-0.4,0.1-0.7,0.2-1.1c0.1-0.7,0.3-1.3,0.4-2
		c0.1-0.4,0.2-0.7,0.2-1.1c0.2-0.9,0.4-1.8,0.6-2.6c0-0.2,0.1-0.3,0.1-0.5c0.2-0.9,0.5-1.8,0.8-2.7c0.1-0.2,0.1-0.5,0.2-0.7
		c0.3-0.9,0.6-1.8,0.9-2.8c0-0.1,0-0.1,0-0.2c0.4-1,0.7-2.1,1.1-3.1c0-0.1,0-0.1,0.1-0.2c6-15.9,16-29.9,28.8-40.6c0,0,0,0,0,0
		c0.8-0.7,1.6-1.4,2.5-2c0.2-0.1,0.3-0.2,0.5-0.4c0.6-0.4,1.2-0.9,1.7-1.3c0.4-0.3,0.7-0.5,1.1-0.8c0.3-0.2,0.7-0.5,1-0.7
		c15.8-11,35-17.4,55.7-17.4c15.2,0,29.6,3.5,42.4,9.7v0c26.5,12.8,46.3,37.2,52.8,66.6c0,0.1,0,0.2,0.1,0.2
		c0.2,1.1,0.4,2.1,0.6,3.2c0,0,0,0.1,0,0.1c0.2,1.1,0.4,2.2,0.5,3.3c0,0.1,0,0.3,0.1,0.5c0.1,0.9,0.3,1.9,0.4,2.8
		c0,0.2,0,0.4,0.1,0.6c0.1,1.1,0.2,2.1,0.3,3.2c0,0.2,0,0.3,0,0.5c0.1,0.9,0.1,1.8,0.2,2.8c0,0.3,0,0.6,0,0.8c0,1.1,0.1,2.1,0.1,3.2
		c0,0,0,0,0,0c0,0,0,0,0,0C395.3,283.8,395.3,284.8,395.2,285.9z M269.4,28.2h70.8v157.2c-13-5.7-27.3-8.8-42.4-8.8
		c-15.2,0-29.7,3.2-42.8,9V28.2H269.4z M297.6,563c-14.8-8.1-28.8-17.3-42.6-26.9V379.6c13.1,5.8,27.6,9,42.8,9
		c15.1,0,29.4-3.2,42.4-8.8v156.3C326.4,545.7,312.3,554.8,297.6,563z M499.1,349.5l-1.8,4l-7.9,15.8l-8.4,15.3l-8.9,14.8l-9.3,14.3
		l-9.8,13.9L442.7,441L432,454l-11.3,12.6l-5.2,5.5V88.2l7.1,3.3l9.1,3.4l10,3l10.9,2.5l11.9,2.1l13,1.7l21.6,1.5V349.5z"/>
	<path class="st0" d="M288.4,268.4l-0.1-35.3c0.1,0,0.1,0,0.2,0v-10.4c-29.1,4.5-51.4,29.7-51.4,60c0,6.6,1,12.9,3,18.8h11
		c-2.4-5.8-3.7-12.2-3.7-18.9c0-1.2,0-2.5,0.1-3.7l30.5-0.1l0.1,50.2c0,0-0.1,0-0.1,0v11.1c3.4,1.2,6.9,2,10.5,2.6v-4.6l0,0
		l-0.1-59.3L288.4,268.4z M249.4,268.5c4.2-14.5,14.8-26.3,28.5-32.2l0.1,32.2L249.4,268.5z"/>
	<path class="st0" d="M221.4,282.7c0-39,29.3-71.2,67.1-75.8v-10c-43.3,4.6-77,41.2-77,85.8c0,44.6,33.8,81.2,77,85.8v-10
		C250.7,353.9,221.4,321.7,221.4,282.7z"/>
	<path class="st0" d="M308.5,358.4L308.3,207c10,1.4,19.4,4.7,27.8,9.6l0-11.2c-11.5-5.7-24.3-8.9-38-9v4.8l0,0v164l0,0v3.8
		c13.8-0.1,26.8-3.3,38.3-9.1l0-11.3C328,353.6,318.5,356.9,308.5,358.4z"/>
	<path class="st0" d="M360.6,326.2l-0.2-87.3c4.4,6.3,8,13.4,10.3,20.9l8.6-5.6c-5.7-16.2-16-30.2-29.4-40.4l0,12.9
		c0,0,0.1,0.1,0.1,0.1l0.3,111.3c0,0-0.1,0.1-0.1,0.1l0,13c12.8-9.8,22.8-23.1,28.5-38.5l-8.6-5.3
		C367.8,314.2,364.6,320.5,360.6,326.2z"/>
</g>
</svg>
