<?xml version="1.0" encoding="utf-8"?>
<!-- Generator: Adobe Illustrator 23.0.4, SVG Export Plug-In . SVG Version: 6.00 Build 0)  -->
<svg version="1.1" id="Capa_1" xmlns="http://www.w3.org/2000/svg" xmlns:xlink="http://www.w3.org/1999/xlink" x="0px" y="0px"
	 viewBox="0 0 595.3 595.3" style="enable-background:new 0 0 595.3 595.3;" xml:space="preserve">
<style type="text/css">
	.st0{fill:#163856;}
</style>
<g>
	<path class="st0" d="M194.6,102.1c-3,3.9-5,6.4-8.3,10.4c3.7,1.1,6.1,1.8,9.8,2.8C195.5,110.1,195.1,106.9,194.6,102.1z"/>
	<path class="st0" d="M419.3,92.2c-1.5-0.7-3-1.1-4.7-1.1c-1.4,0-2.9,0.3-4.5,0.8c-3.4,1.2-5.7,3.1-7.1,5.9
		c-1.4,2.8-1.4,6.5-0.1,10.9c1.4,4.4,3.4,7.3,6.4,8.8c3,1.5,6.2,1.6,9.7,0.4c3.5-1.2,6-3.3,7.4-6.3c1.4-2.9,1.2-6.6-0.5-11
		C424.4,96.4,422.1,93.5,419.3,92.2z"/>
	<path class="st0" d="M332.6,112.5c-2-1.7-4.5-2.6-7.4-2.6c-0.4,0-0.9,0-1.3,0.1c-3.5,0.3-6.2,1.6-8.2,3.9c-2,2.4-2.9,5.9-2.7,10.5
		c0.2,4.6,1.6,8,4,10.1c2.5,2.2,5.6,3.1,9.2,2.8c3.6-0.3,6.5-1.7,8.6-4.3c2-2.5,2.8-6.1,2.2-10.8
		C336.4,117.9,334.9,114.5,332.6,112.5z"/>
	<path class="st0" d="M467.1,0.7l-11.7,7c-62,37.2-110.4,54.2-156.7,54.9C252.3,61.8,204,44.9,142.1,7.7l-11.7-7L21.4,100.8l0,8.1
		c0.3,68.2,8,131.8,22.9,188.8c14.1,53.9,34.6,102.5,61.1,144.4c59.5,94.2,134.9,134.5,187.7,151.6l5.7,1.8l5.6-1.8
		c52.7-17.2,128-57.4,187.6-151.6c26.5-41.9,47-90.5,61.1-144.4c14.9-57,22.6-120.5,22.9-188.8l0-8.1L467.1,0.7z M254,123.1
		c0.8-7.2,3.4-12.8,7.9-16.5c4.4-3.7,9.7-5.4,16.2-5.1c5.7,0.3,10.2,2,13.7,5.3c2.1,2,3.8,4.8,4.9,8.3l0.3,1l-1,0.2
		c-3.7,0.8-5.5,1.2-9.2,2l-0.9,0.2l-0.2-0.9c-0.4-2-1.4-3.6-2.9-4.8c-1.5-1.2-3.3-1.9-5.6-2c-3.1-0.2-5.6,0.7-7.7,2.7
		c-2.1,2-3.4,5.4-3.7,10.1c-0.4,5.1,0.3,8.9,2.1,11.1c1.9,2.2,4.5,3.5,7.7,3.6c2.4,0.1,4.5-0.5,6.2-1.7c1.7-1.3,3-3.4,3.8-6.3l0.3-1
		l0.9,0.3c3.7,1.1,5.6,1.7,9.3,2.7l1,0.3l-0.3,0.9c-1.5,4.9-4.1,8.6-7.8,10.9c-3.3,2.1-7.4,3.2-12.2,3.2c-0.5,0-1.1,0-1.7,0
		c-6.9-0.3-12.4-2.8-16.4-7.3C254.9,136,253.3,130.2,254,123.1z M217,129.2l0.9,0.2c3.7,0.8,5.5,1.1,9.2,1.8l0.9,0.2l-1.8,10
		l-0.9-0.2c-3.8-0.7-5.7-1-9.4-1.8l-0.9-0.2L217,129.2z M193.2,87.5l0.6,0.2c3.7,1.1,5.5,1.6,9.2,2.6l0.6,0.2l0.1,0.6
		c2,15.3,4.7,30.8,8.2,45.9l0.3,1.5l-1.5-0.3c-4.3-0.9-6.4-1.4-10.7-2.5l-0.6-0.2l-0.1-0.6c-0.7-4-1.1-6.1-1.7-9.9
		c-7-1.8-10.7-2.9-17.6-5.1c-2.5,2.9-3.8,4.5-6.5,7.5l-0.4,0.5l-0.6-0.2c-4.1-1.3-6.1-2-10.2-3.5l-1.4-0.5l1.1-1.1
		c10.9-11.1,21.3-22.8,31-34.7L193.2,87.5z M162.1,113.5l-3.5,9.5l-0.9-0.3c-3.6-1.4-5.4-2.1-9.1-3.5l-0.9-0.4l3.8-9.4l0.9,0.4
		c3.5,1.4,5.2,2.1,8.8,3.4L162.1,113.5z M110.6,76.3c3.6-6.3,8.3-10.3,14-11.9c5.6-1.6,11.2-0.9,17.2,2c5.2,2.6,8.8,6,10.8,10.4
		c1.2,2.7,1.7,5.9,1.3,9.6l-0.1,1l-1-0.2c-3.8-0.7-5.6-1.1-9.4-1.9l-0.9-0.2l0.2-0.9c0.4-2,0.1-3.9-0.8-5.6
		c-0.9-1.7-2.4-3.1-4.5-4.1c-2.9-1.4-5.6-1.7-8.3-0.7c-2.7,0.9-5.3,3.5-7.5,7.8c-2.4,4.5-3.2,8.2-2.4,11c0.9,2.8,2.8,5,5.9,6.5
		c2.2,1.1,4.4,1.4,6.6,1c2.1-0.4,4.2-1.9,6.1-4.2l0.6-0.8l0.7,0.6c3.1,2.6,4.6,3.8,7.7,6.3l0.8,0.6l-0.7,0.8
		c-3.4,3.9-7.3,6.2-11.6,6.8c-0.9,0.1-1.8,0.2-2.7,0.2c-3.6,0-7.5-1-11.5-3c-6.3-3.1-10.5-7.6-12.6-13.4
		C106.4,88.5,107.1,82.5,110.6,76.3z M299.1,576.4l-0.3,0l0,0l-0.1,0c-49.8-16.2-121.1-54.4-177.8-144
		C95.4,392.1,75.6,345.3,62,293.2c-13.7-52.7-21.2-111.2-22.2-174c100.4,45.5,181.7,69.2,258.6,69.6l0.2,0l0.4,0V576.4z
		 M344.3,138.7c-4,4.7-9.9,7.3-17.4,8c-1,0.1-2.1,0.1-3.1,0.1c-6.2,0-11.5-1.7-15.5-5.1c-4.6-3.8-7-9.4-7.1-16.5
		c-0.1-4.5,0.6-8.3,1.9-11.4c1-2.3,2.4-4.4,4.2-6.3c1.8-1.9,3.7-3.3,5.9-4.3c2.8-1.3,6.1-2.1,9.8-2.4c6.8-0.6,12.4,0.9,17,4.4
		c4.7,3.6,7.6,8.9,8.6,15.9C349.7,128.3,348.2,134.2,344.3,138.7z M393.5,134.6c-11.3,3-22.9,5.4-34.5,7.4l-0.9,0.2l-7.3-43.7
		l0.9-0.2c3.5-0.6,5.3-0.9,8.8-1.6l0.9-0.2l6.7,34.5c9.1-1.8,13.8-2.8,23.1-5.3l0.9-0.2l2.3,8.8L393.5,134.6z M437.3,114.7
		c-2.8,5.5-7.9,9.6-15.1,12.1c-3.6,1.2-6.9,1.8-10.1,1.8c-3.3,0-6.4-0.7-9.3-2c-5.4-2.6-9.1-7.4-11-14.3c-1.2-4.3-1.5-8.2-0.9-11.6
		c0.4-2.4,1.3-4.8,2.6-7.1c1.3-2.2,2.8-4.1,4.7-5.7c2.4-2,5.4-3.6,9-4.8c6.5-2.2,12.3-2.3,17.7,0c5.5,2.3,9.7,6.7,12.4,13.3
		C440,103.1,440,109.3,437.3,114.7z M488.6,95.9c-3.6,2.1-5.4,3.1-9.1,5l-0.4,0.2l-0.4-0.2c-9.4-4.4-18.7-9.3-27.7-14.5l10.9,23.3
		l-0.9,0.4c-3.5,1.6-5.2,2.4-8.7,4l-0.9,0.4l-18-40.9l0.9-0.4c3.3-1.4,4.8-2.2,8.1-3.7l0.5-0.2l0.4,0.3c8.8,5.5,18,10.6,27.4,15.3
		l-12.5-23.3l0.8-0.5c3-1.6,4.5-2.4,7.5-4.2l0.8-0.5l22.1,38.8L488.6,95.9z"/>
</g>
</svg>
