<?xml version="1.0" encoding="utf-8"?>
<!-- Generator: Adobe Illustrator 23.0.4, SVG Export Plug-In . SVG Version: 6.00 Build 0)  -->
<svg version="1.1" id="Capa_1" xmlns="http://www.w3.org/2000/svg" xmlns:xlink="http://www.w3.org/1999/xlink" x="0px" y="0px"
	 viewBox="0 0 595.3 595.3" style="enable-background:new 0 0 595.3 595.3;" xml:space="preserve">
<style type="text/css">
	.st0{fill:#163856;}
</style>
<g>
	<path class="st0" d="M58.4,2c0,31.8,0,447.9,0,465.2c0,70.8,119,70.2,120.1,70.2h1.2c86.5,0,117.9,52.7,121.2,56.7
		c3.4-4,34.8-56.1,121.2-56.1h0.6c0,0,119.5,0,120.1-69.7c-0.1-7.7-0.1-434-0.1-466.2C529.7,2,71.1,2,58.4,2z M196.4,525
		c-5.6-0.6-11.2-0.6-16.9-0.6c-0.6,0-0.6,0-1.2,0h-1.2c0,0-1.6,0-5,0c-4,0-9.5-0.6-16.3-1.2c-8.4-1.2-18.5-2.2-29.2-5V135
		c20.8-0.6,44.5,0,69.7,0V525z M334.9,545.3c-13.4,7.3-25.2,16.3-35.4,28c-0.6-0.6-1.2-1.2-1.6-1.6c-9.5-10.1-20.3-18.5-32-25.2V135
		c23,0,46.5,0,69,0V545.3z M474.1,517.1h-0.4v0.1c-18.5,5-37,6.2-46.1,6.8c-4,0-6.2,0-6.2,0h-0.6h-0.6c-5.6,0-10.7,0-15.7,0.6V134.4
		c25.2,0,48.9,0,69.6,0V517.1z M70.1,121.5c0-46.1,0-100.4,0-107.2c23.6,0,434.3,0,458.6,0c-0.1,6.8-0.1,61.8-0.1,107.2H70.1z"/>
	<path class="st0" d="M542.8,467.8c0,0.2,0,0.3,0,0.5C542.8,468.5,542.8,468.3,542.8,467.8z"/>
	<polygon class="st0" points="108.9,110.3 157.6,110.3 157.6,96.8 125.6,96.8 125.6,73.8 154.8,73.8 154.8,60.9 125.6,60.9 
		125.6,40.8 157.6,40.8 157.6,27.8 108.9,27.8 	"/>
	<path class="st0" d="M249.6,63.9c-2.8-5-8.4-8.4-17.9-8.4c-15.7,0-23,12.9-23,27c0,14.2,6.8,28.9,23,28.9c9.5,0,15.7-5,18.5-9v7.9
		h9.5V28h-10.1V63.9z M233.9,103.7c-10.7,0-15.1-11.7-15.1-20.3c0-10.1,4-20.3,15.1-20.3c10.7,0,15.7,10.1,15.7,20.3
		C249.6,92.4,245.1,103.7,233.9,103.7z"/>
	<path class="st0" d="M288.4,54.8c-15.1,0-25.2,11.2-25.2,27c0,17.8,9,29.7,28,29.7c9,0,13.5-2.2,16.9-3.4V98
		c-2.2,2.2-10.1,5.6-16.9,5c-9.5,0-17.9-7.3-17.9-17.9H312C312,67.6,306.5,54.8,288.4,54.8z M273.9,78.3c0.4-7.3,4.4-15.1,14.5-15.1
		c8.4,0,13.5,6.8,13.5,15.1H273.9z"/>
	<polygon class="st0" points="365.3,27.8 349,27.8 349,110.3 397.3,110.3 397.3,96.8 365.3,96.8 	"/>
	<path class="st0" d="M460.1,27.8h-20.7v82.5h16.3V78.9h6.6c17.9,0,32-6.8,32-26.4S478,27.8,460.1,27.8z M461.2,66h-5.6V40.8h5.6
		c8.4,0,15.7,3.4,15.7,12.9C476.9,63.2,469.5,66,461.2,66z"/>
	<rect x="167.7" y="96.8" class="st0" width="12.9" height="12.9"/>
	<rect x="410.7" y="96.8" class="st0" width="12.9" height="13.5"/>
	<rect x="473.6" y="96.8" class="st0" width="12.9" height="12.9"/>
</g>
</svg>
