<?xml version="1.0" encoding="utf-8"?>
<!-- Generator: Adobe Illustrator 23.0.4, SVG Export Plug-In . SVG Version: 6.00 Build 0)  -->
<svg version="1.1" id="Layer_1" xmlns="http://www.w3.org/2000/svg" xmlns:xlink="http://www.w3.org/1999/xlink" x="0px" y="0px"
	 viewBox="0 0 595.3 595.3" style="enable-background:new 0 0 595.3 595.3;" xml:space="preserve">
<style type="text/css">
	.st0{fill:#163856;}
</style>
<path class="st0" d="M541.8,2.7L52.7,2.6l-0.4,191.8c0.8,33.2,4.3,60,10.4,80.6c6.4,28.8,15.9,57.4,28.4,85.8
	c13.2,29.7,29.2,58.2,48.2,85.2c20,28.7,42.8,55.1,68.3,79.4c27.1,25.7,56.7,48.4,88.8,67.9v0.3l0.3-0.1l0.3,0.1v-0.3
	c62.4-32.3,113.5-77.5,153.1-135.6c18.3-26.9,34.4-56.8,48.3-89.8c12.9-30.8,24.1-64.7,33.3-101.5c7.1-25.2,10.5-56.3,10.5-93.4
	L541.8,2.7z M87.5,239.3l-12.3,3.5l1.1-185.9h11.2V239.3z M130.6,388.5c-3.9-7.5-7.7-15.1-11.3-22.8c-0.5-1.1-1.1-2.3-1.6-3.5v-32.3
	l12.9-3.7V388.5z M173.8,456.4c-3.6-4.8-7.2-9.6-10.7-14.7c-0.8-0.9-1.6-2-2.3-3.2v-121l12.9-3.7V456.4z M216.9,505.4
	c-4.4-4.3-8.7-8.7-12.9-13.2V305.4l12.9-3.7V505.4z M260,541.4c-4.4-3.1-8.7-6.4-12.9-9.7V293.1l12.9-3.7V541.4z M303,561.1
	c-2,1.1-4,2.1-6.1,3.2v0.4l-0.1-0.1l-0.3,0.1v-0.3c-2.1-1.2-4.3-2.4-6.4-3.6v-280l12.9-3.7V561.1z M346.1,534.1
	c-4.3,3.1-8.5,6-12.9,8.9V268.6l12.9-3.7V534.1z M389.2,497.3c-4.3,4.1-8.5,8.3-12.9,12.3V256.3l12.9-3.7V497.3z M432.3,445.8
	c-4.1,6-8.5,11.9-12.9,17.6V244l12.9-3.7V445.8z M475.5,368.2c-4.1,9.3-8.4,18.5-12.9,27.3V231.7l12.9-3.7V368.2z M101,322.8
	c-5.3,1.5-8.3-1.1-8.3-6.5v-57.9c0-5.9,2.4-9.5,8.5-11.2c0,0,326.6-92.7,401.6-114c4.7-1.3,8.5,2,8.5,6.4v57.6
	c0,5.5-3.3,9.9-8.5,11.3C420,232,153.3,307.9,101,322.8z M117.6,230.8V56.9h12.9v170.2L117.6,230.8z M160.9,218.7V56.9h12.9v158.1
	L160.9,218.7z M203.9,206.4V56.9h12.9v145.8L203.9,206.4z M247,194V56.9H260v133.5L247,194z M290.1,181.9V56.7H303v121.4
	L290.1,181.9z M333.2,169.5V56.7h12.9v109.1L333.2,169.5z M376.3,157.3V56.7h12.9v96.8L376.3,157.3z M419.4,145.2V56.7h12.9v84.7
	L419.4,145.2z M462.6,132.9v-76h12.9v72.4L462.6,132.9z M507.8,273.5c-0.7,2.8-1.5,5.5-2.1,8.1v-62.2l10.9-3.1
	C515.3,237.2,512.3,256.3,507.8,273.5z M517.8,117.2l-12.1,3.5V56.7h12.3L517.8,117.2z M518.5,34.9h-0.1c0,3.1-2.5,5.7-5.7,5.7H82.2
	c-3.1,0-5.7-2.5-5.7-5.7V24.3c0-3.1,2.5-5.6,5.7-5.6h430.6c3.1,0,5.7,2.5,5.7,5.6V34.9z"/>
<g>
	<path class="st0" d="M346.1,227.9c-1.9,2-4,3.5-6.7,4.1c-3.5,0.9-6.3,0.5-8.4-1.2c-2.1-1.7-3.2-5.5-3.2-11.1
		c0.3-5.2,1.3-9.3,3.5-12.3c2.3-3.1,5.1-4.9,8.5-6c2.5-0.7,4.8-0.7,6.5,0.1c1.7,0.8,2.9,2.3,3.5,4.4l9.5-4.8
		c-1.1-3.2-2.7-5.5-4.8-6.8c-3.6-2.3-8.4-2.5-14.1-0.8c-6.7,1.9-12.1,5.5-16.1,10.8c-4.1,5.2-6.1,11.5-6.3,18.9c0,6.9,2,11.9,6,14.8
		c4.1,2.8,9.3,3.3,15.6,1.6c5.1-1.5,9.3-3.9,12.7-7.2c3.3-3.3,5.7-7.6,7.2-12.8l-9.3-0.1C349.3,223.1,348,225.9,346.1,227.9z"/>
	<polygon class="st0" points="301.2,250 310.4,247.5 310.4,238.8 301.3,241.5 	"/>
	<path class="st0" d="M271.8,242l10.9-3.2v5.6c-1.5,1.5-3.2,2.9-5.2,4.1c-2,1.3-4,2.3-6.1,2.8c-4.1,1.2-7.3,0.8-9.9-1.2
		c-2.5-1.9-3.7-5.5-3.7-10.8c0-4.9,1.3-8.9,3.7-12.1c2.5-3.2,5.9-5.5,10-6.5c2.8-0.8,5.2-0.8,6.9-0.1c1.9,0.7,3.1,2,3.9,4.1l9.5-4.4
		c-0.9-3.9-3.1-6.4-6.4-7.7c-3.2-1.3-7.9-1.2-13.9,0.5c-4.5,1.3-8.4,3.1-11.3,5.5c-4,3.1-7.1,6.7-9.2,10.9s-3.2,8.7-3.2,13.2
		c0,4.3,0.9,8,2.8,11.1c1.9,3.1,4.5,5.1,8.3,6c3.7,0.9,8,0.7,13.1-0.8c4-1.2,7.9-2.9,11.6-5.3c4-2.4,6.8-4.8,8.8-7.2l0.1-17.7
		l-20.7,5.9V242z"/>
	<polygon class="st0" points="367.7,231.1 376.8,228.5 376.8,220 367.7,222.5 	"/>
	<polygon class="st0" points="434.2,212.1 443.4,209.6 443.4,201.1 434.3,203.6 	"/>
	<path class="st0" d="M400,177.5l-18.7,49.8l10.3-2.9l4-11.2l19.1-5.5l4.1,8.9l10.3-2.9l-18.9-39.1L400,177.5z M398.5,204.7
		l6.5-18.4l6.5,14.7L398.5,204.7z"/>
	<polygon class="st0" points="487.2,152.5 449.5,163.3 449.5,170.9 463.6,166.9 463.5,203.9 473,201.1 473.2,164.1 487.2,160.1 	"/>
	<polygon class="st0" points="485.9,188.9 485.9,197.5 495,194.8 495.1,186.3 	"/>
	<path class="st0" d="M143,285.5c-1.9,2-4,3.5-6.7,4.1c-3.5,0.9-6.3,0.5-8.4-1.2c-2.3-1.9-3.2-5.5-3.2-11.1c0-5.2,1.1-9.3,3.3-12.4
		c2.4-2.8,5.2-4.8,8.8-5.7c2.5-0.8,4.7-0.7,6.4,0.1s2.9,2.3,3.5,4.4l9.5-4.8c-1.1-3.2-2.7-5.6-4.8-6.8c-3.6-2.1-8.4-2.4-14.1-0.8
		c-6.7,1.9-12,5.5-16.1,10.7c-4.1,5.2-6.1,11.6-6.1,18.9c0,6.9,2,11.9,6,14.8c4,2.8,9.2,3.3,15.5,1.6c5.2-1.5,9.3-3.9,12.7-7.2
		c3.2-3.2,5.6-7.6,7.2-12.8l-9.3-0.1C146.2,280.7,144.9,283.5,143,285.5z"/>
	<path class="st0" d="M216.9,234.5c-1.9-1.5-4.3-2.1-7.1-2.1c-2,0-4.9,0.5-9.1,1.7l-17.6,5.1l-0.1,44.4l18-5.2
		c3.5-0.9,6.4-2.1,8.5-3.3c2.8-1.6,5.1-3.5,6.8-5.5c2.3-2.7,3.9-5.7,5.1-9.3c0.9-2.9,1.5-6.3,1.5-9.9c0-4.1-0.4-7.5-1.5-10
		C220.4,237.9,218.9,235.9,216.9,234.5z M212.1,261.1c-0.7,2.1-1.5,3.9-2.5,5.1c-1.1,1.1-2.3,2.1-3.9,2.9c-1.1,0.5-3.1,1.2-5.9,2
		l-7.2,2l0.1-29.2l4.3-1.2c4-1.2,6.7-1.7,7.9-1.9c1.7-0.1,3.2,0.1,4.4,0.8c1.2,0.7,2,1.9,2.8,3.5c0.7,1.7,0.9,4.3,0.9,7.6
		C213,256.1,212.6,258.9,212.1,261.1z"/>
	<polygon class="st0" points="231,269.9 240.1,267.4 240.1,258.8 231,261.5 	"/>
	<polygon class="st0" points="164.5,288.8 173.7,286.3 173.7,277.8 164.6,280.3 	"/>
</g>
</svg>
