<?xml version="1.0" encoding="utf-8"?>
<!-- Generator: Adobe Illustrator 24.3.0, SVG Export Plug-In . SVG Version: 6.00 Build 0)  -->
<svg version="1.1" id="Capa_1" xmlns="http://www.w3.org/2000/svg" xmlns:xlink="http://www.w3.org/1999/xlink" x="0px" y="0px"
	 viewBox="0 0 595.3 595.3" style="enable-background:new 0 0 595.3 595.3;" xml:space="preserve">
<style type="text/css">
	.st0{fill-rule:evenodd;clip-rule:evenodd;fill:#163856;}
</style>
<path class="st0" d="M296.9,271.8c3.3-2.2,18.8-12.7,22.1-14.9c-3.4-2.4-25.2-17.7-31-21.8C289.7,241.9,295.9,267.8,296.9,271.8z
	 M362.8,171.7c1.7,2.5,14.4,21.3,16.1,23.8c2.2-1.5,9.2-6.2,9.2-6.2c7.5-5.1,12.2-8.9,14-11.5c1.7-2.5,2.6-5,2.6-7.8v-0.2
	c0-2.7-0.8-5.2-2.4-7.6c-2.1-3.1-4.6-4.9-7.8-5.7c-3.2-0.7-6.4-0.4-9.5,1c-2.5,1.1-7.1,3.9-14.2,8.7
	C370.8,166.3,365,170.3,362.8,171.7z M526.7,89.6l-0.8-9.2l-9.2,0.5c-85.5,4.6-155.2-19.7-212.9-74.2l-6.5-6.2l-6.5,6.2
	C233.1,61.3,163.5,85.6,78,81l-9.2-0.5L68,89.6c-2,23.1-2.9,46-3,67.8c-0.1,98.9,19.7,186.1,58.9,259.2
	c37.7,70.1,94.3,129.4,168.3,176l5.1,3.2l5.1-3.2c74-46.6,130.7-105.9,168.3-176c39.2-73.1,59.1-160.3,59-259.1
	C529.6,135.7,528.6,112.8,526.7,89.6z M406.4,131.1c7.3,2.3,13.7,7.5,19,15.3c4.1,6,6.4,12,6.9,17.7c0.1,1.2,0.2,2.4,0.2,3.6
	c0,4.3-0.7,8.4-2.2,12.1c-1.9,4.7-4.4,8.7-7.5,11.9c-4.2,4.1-10.8,9.3-19.7,15.3c0,0-8.9,6-11.3,7.6c1.8,2.7,24.1,35.7,24.1,35.7
	l-22.5,15.2l-65.8-97.5l32.9-22.2c12.1-8.2,20.2-12.9,24.6-14.5C391.9,128.8,399,128.8,406.4,131.1z M309,322.3l-24,16.2
	l-26.9-123.8l21.7-14.6l1-0.7l105.8,70.5l-24.5,16.6c0,0-21.1-14.5-23-15.8c-1.9,1.3-34.8,23.5-36.7,24.7
	C303,297.7,309,322.3,309,322.3z M95.5,279.8c-7.7-38-11.5-78.4-11.5-121.2c0-0.3,0-0.7,0-1c0-18.5,0.8-37.8,2.3-57.3
	c82.6,2.5,153.5-22.3,211.1-73.8c27.5,24.6,58.1,43.1,91.6,55.5L95.5,279.8z M149.5,305.3c2.5-14.8,10.9-27,24.8-36.4
	c12.2-8.2,24.7-11.4,37.1-9.5c7.4,1.1,15,4.8,22.6,11.1l1.5,1.2L216.6,292l-1.3-1.2c-4.1-3.8-8.8-6-13.9-6.3
	c-5.1-0.4-10.1,1.1-15,4.4c-6.7,4.5-10.6,10.6-11.6,18.1c-1,7.6,2.2,16.9,9.5,27.7c7.8,11.5,15.5,18.4,22.8,20.4
	c7.4,2,14.2,0.8,20.8-3.7c4.9-3.3,8-7.5,9.4-12.9c1.5-5.3,0.8-11.9-2.1-19.5l-0.7-1.8l26.4-8l0.5,1.7c4.2,12.6,4.5,24,1,33.9
	c-3.5,9.9-10.7,18.6-21.4,25.8c-13.2,8.9-27.3,11.9-41.8,8.8c-14.5-3.1-27-12.4-37.3-27.6C151.2,335.7,147,320.1,149.5,305.3z
	 M454,407.8c-35.2,65.6-87.9,121.3-156.7,165.6c-51.3-33.1-93.6-72.4-126.4-117.5l336-226.7C499.7,295.8,482,355.6,454,407.8z"/>
</svg>
