<?xml version="1.0" encoding="utf-8"?>
<!-- Generator: Adobe Illustrator 23.0.4, SVG Export Plug-In . SVG Version: 6.00 Build 0)  -->
<svg version="1.1" id="Capa_1" xmlns="http://www.w3.org/2000/svg" xmlns:xlink="http://www.w3.org/1999/xlink" x="0px" y="0px"
	 viewBox="0 0 595.3 595.3" style="enable-background:new 0 0 595.3 595.3;" xml:space="preserve">
<style type="text/css">
	.st0{fill:#FFFFFF;}
	.st1{fill:#163856;}
</style>
<path class="st0" d="M133.9,147.8v357.6c19.8,4,37.3,4.3,38.2,4.3c9.3,0,18.4,0.5,27.3,1.6V147.8H133.9L133.9,147.8z"/>
<path class="st0" d="M264.9,147.8V530c11.8,5.8,22.8,12.8,32.7,20.9c9.9-8.1,20.9-15.1,32.7-20.9V147.8H264.9L264.9,147.8z"/>
<path class="st0" d="M395.9,147.8v363.4c8.9-1,18-1.6,27.3-1.6c0.9,0,18.3-0.3,38.2-4.3V147.8H395.9L395.9,147.8z"/>
<g>
	<polygon class="st1" points="206.8,48.9 206.5,48.9 203.6,55.3 192.2,78.5 220.8,78.5 209.6,55.3 	"/>
	<path class="st1" d="M56,1v489.1c0,11,4.3,19.8,13.4,27.6c8.4,7.3,20.7,13.2,36.5,17.8c29.4,8.5,59.6,8.8,59.9,8.8
		c53.7,0,101.4,17.6,134,49.7l0.1,0.1l0.1-0.1c32.7-32,80.3-49.7,134.2-49.7c0.3,0,30.5-0.2,59.9-8.8c15.8-4.6,28.1-10.6,36.5-17.8
		c9.1-7.8,13.4-16.6,13.4-27.6V1H56z M106.6,80.3v23H91.1V38.7h34c19.7,0,29.6,7.5,29.6,20.2c0,8.7-5.9,16.3-16.4,17.9l-0.1,0.2
		l22.8,26.2h-19l-17.4-23h-18V80.3z M195.3,529c-9.3-1.1-18.7-1.6-28.3-1.6h-1.2c-1,0-19.1-0.1-40.5-4.3V141c20.9,0,44.6,0,70,0V529
		z M232.7,103.2l-6.4-13h-39.8l-6.4,13h-16.7l34.7-64.5h17.3l34.8,64.5H232.7z M249.6,70.7c0-19.7,12.6-33.4,41.3-33.4
		c7.9,0,16.3,1.6,21.8,3.4L311,53.2c-5.2-1.6-12-3-19.9-3c-18.7,0-25.2,6.4-25.2,20.6c0,15,6.8,21,25.5,21c7.4,0,14-1.5,19.5-3.7
		l2,11.3c-6.4,2.9-15.2,5-23.4,5C262.8,104.5,249.6,92,249.6,70.7z M335.2,550c-12.6,6.4-24.2,14-34.7,22.9
		c-10.7-9.3-22.4-17.1-35.2-23.6v-0.1V141h70L335.2,550L335.2,550z M340.5,103.2h-15.7V38.7h15.7V103.2z M371.3,58.4h-0.2l0.2,6.9
		v37.9h-14.2V38.7h13L409.4,77l4.9,5l0.2-0.2l-0.2-6.8V38.7h14.1v64.5h-10.3l-42-40.1L371.3,58.4z M474.8,523.3
		c-14.7,2.9-29.6,4.2-40.4,4.3h-0.6c-9.8,0-19.4,0.5-28.8,1.7V141h69.9v382.3H474.8z M482.6,104.6c-29.7,0-42.3-12.8-42.3-33.4
		s12.7-33.8,42.3-33.8c8.8,0,18.2,1.3,25,3.5L506,53.4c-6.6-2.1-14.6-3.4-22.8-3.4c-19.5,0-26.7,6-26.7,20.8c0,14.5,6.5,21,25.4,21
		c5.1,0,9.6-0.6,13.5-1.7V69.7h13.5v30.8h0.2C502.2,102.9,492,104.6,482.6,104.6z"/>
	<path class="st1" d="M124.6,50.2h-17.8v19.4H124c10.1,0,14.4-3.2,14.4-10C138.5,53.3,134.6,50.2,124.6,50.2z"/>
</g>
</svg>
