<?xml version="1.0" encoding="utf-8"?>
<!-- Generator: Adobe Illustrator 24.3.0, SVG Export Plug-In . SVG Version: 6.00 Build 0)  -->
<svg version="1.1" id="Capa_1" xmlns="http://www.w3.org/2000/svg" xmlns:xlink="http://www.w3.org/1999/xlink" x="0px" y="0px"
	 viewBox="0 0 595.3 595.3" style="enable-background:new 0 0 595.3 595.3;" xml:space="preserve">
<style type="text/css">
	.st0{fill:#163856;}
</style>
<g>
	<polygon class="st0" points="331.5,295.4 333.2,295.4 333.2,269.4 331.5,269.4 329.8,269.4 329.8,280.2 326.6,280.2 326.6,269.4 
		324.9,269.4 323.2,269.4 323.2,295.4 324.9,295.4 326.6,295.4 326.6,284 329.8,284 329.8,295.4 	"/>
	<path class="st0" d="M343.1,295.4h1.4v-18.1H343h-1.5v11.1c0,1.5-0.1,2.6-0.3,3.2c-0.2,0.6-0.6,0.9-1.1,0.9c-0.4,0-0.7-0.2-0.8-0.6
		c-0.2-0.4-0.3-1.1-0.3-2v-12.7h-1.5h-1.5v13.2c0,1.7,0.2,3.1,0.7,3.9c0.5,0.9,1.2,1.3,2.1,1.3c1.1,0,2-0.7,2.8-2.2v1.8H343.1z"/>
	<path class="st0" d="M355.1,295.4v-12.9c0-1.9-0.3-3.3-1-4.2s-1.7-1.4-3.1-1.4c-1.4,0-2.5,0.4-3.1,1.2c-0.7,0.8-1,2.1-1,3.9v0.5h3
		V282c0-0.7,0.1-1.3,0.2-1.7c0.2-0.4,0.5-0.6,0.9-0.6c0.3,0,0.6,0.2,0.7,0.5c0.2,0.3,0.2,0.9,0.2,1.5v2.2h-0.9
		c-1.6,0-2.8,0.4-3.5,1.3c-0.7,0.9-1,2.4-1,4.5v1.1c0,1.5,0.2,2.7,0.7,3.5c0.5,0.8,1.2,1.3,2.1,1.3c1.1,0,2-0.5,2.6-1.6l0.1-0.2v1.5
		H355.1z M352.1,289.4c0,1.2-0.1,2.1-0.3,2.7c-0.2,0.6-0.5,0.9-1,0.9c-0.3,0-0.6-0.2-0.8-0.5c-0.2-0.3-0.3-0.8-0.3-1.3v-1.1
		c0-1.2,0.1-2,0.4-2.5c0.3-0.5,0.8-0.7,1.5-0.7h0.4V289.4z"/>
	<path class="st0" d="M362.3,283.8h3v-0.5v-0.2c0-2.1-0.3-3.7-0.9-4.6c-0.6-1-1.6-1.5-3-1.5c-1.4,0-2.4,0.5-3,1.6
		c-0.6,1.1-0.9,2.8-0.9,5.3v5.1c0,2.4,0.3,4.2,0.9,5.3c0.6,1.1,1.6,1.6,3,1.6c1.3,0,2.3-0.5,3-1.5c0.7-1,1-2.5,1-4.6v-1.1h-3v1.1
		c0,1,0,1.8-0.2,2.2c-0.1,0.4-0.4,0.7-0.8,0.7c-0.4,0-0.6-0.3-0.8-0.8c-0.1-0.5-0.2-1.6-0.2-3.3v-5.1c0-1.3,0.1-2.1,0.2-2.6
		c0.1-0.5,0.4-0.7,0.8-0.7c0.3,0,0.6,0.3,0.7,0.8c0.2,0.5,0.2,1.3,0.2,2.4V283.8z"/>
	<path class="st0" d="M373.3,276.9c-1.2,0-2.1,0.7-2.8,2v-9.5H369h-1.5v26h1.5h1.5v-11.1c0-1.4,0.1-2.5,0.3-3.2c0.2-0.7,0.6-1,1-1
		c0.4,0,0.6,0.2,0.8,0.5c0.2,0.3,0.3,0.9,0.3,1.6v13.2h1.5h1.5v-13.7c0-1.4-0.2-2.6-0.7-3.5C374.7,277.4,374.1,276.9,373.3,276.9z"
		/>
	<rect x="378.5" y="269.6" class="st0" width="3" height="4.3"/>
	<polygon class="st0" points="378.5,277.3 378.5,295.4 380.1,295.4 381.6,295.4 381.6,277.3 380,277.3 	"/>
	<path class="st0" d="M389.7,276.9c-1.2,0-2,0.6-2.6,1.8l0,0.1v-1.5h-1.5H384v25.2h1.5h1.5v-8.5c0.6,1.2,1.5,1.8,2.6,1.7
		c1,0,1.8-0.5,2.2-1.5c0.4-1,0.6-2.8,0.6-5.3v-6.4c0-1.9-0.2-3.3-0.7-4.3C391.3,277.4,390.6,276.9,389.7,276.9z M389.5,288.3
		c0,1.7-0.1,2.9-0.2,3.5c-0.2,0.6-0.5,0.8-1,0.8c-0.5,0-0.8-0.3-0.9-0.8c-0.2-0.5-0.2-1.6-0.3-3.3v-4.2c0-1.4,0.1-2.5,0.3-3.1
		c0.2-0.6,0.5-1,0.9-1c0.5,0,0.8,0.3,0.9,0.8c0.2,0.5,0.3,1.4,0.3,2.8V288.3z"/>
	<path class="st0" d="M398.7,276.9c-1.4,0-2.5,0.4-3.1,1.2c-0.7,0.8-1,2.1-1,3.9v0.5h3V282c0-0.7,0.1-1.3,0.2-1.7
		c0.2-0.4,0.5-0.6,0.9-0.6c0.3,0,0.6,0.2,0.7,0.5c0.2,0.3,0.2,0.9,0.2,1.5v2.2h-0.9c-1.6,0-2.8,0.4-3.5,1.3c-0.7,0.9-1,2.4-1,4.5
		v1.1c0,1.5,0.2,2.7,0.7,3.5c0.5,0.8,1.2,1.3,2.1,1.3c1.1,0,2-0.5,2.6-1.6l0.1-0.2v1.5h2.9v-12.9c0-1.9-0.3-3.3-1-4.2
		C401.1,277.4,400.1,276.9,398.7,276.9z M399.8,289.4c0,1.2-0.1,2.1-0.3,2.7c-0.2,0.6-0.5,0.9-1,0.9c-0.3,0-0.6-0.2-0.8-0.5
		c-0.2-0.3-0.3-0.8-0.3-1.3v-1.1c0-1.2,0.1-2,0.4-2.5c0.3-0.5,0.8-0.7,1.5-0.7h0.4V289.4z"/>
	<path class="st0" d="M409.2,272.5l-3,2v2.9h-1.6v3.2h1.6v9.9c0,1.8,0.2,3.1,0.7,4c0.5,0.9,1.2,1.3,2.2,1.3c0.8,0,1.4-0.1,2-0.2
		v-3.1c-0.3,0.1-0.6,0.1-0.9,0.1c-0.4,0-0.6-0.1-0.8-0.4c-0.1-0.3-0.2-0.8-0.2-1.7v-9.9h1.9v-3.2h-1.9V272.5z"/>
	<path class="st0" d="M416.9,276.9c-1.5,0-2.6,0.5-3.2,1.6c-0.7,1.1-1,2.8-1,5.3v5.1c0,2.4,0.3,4.2,1,5.3c0.7,1.1,1.7,1.6,3.2,1.6
		c1.5,0,2.6-0.5,3.2-1.6c0.7-1.1,1-2.8,1-5.3v-5.1c0-2.4-0.3-4.2-1-5.3C419.5,277.5,418.4,276.9,416.9,276.9z M418.1,288.5
		c0,1.8-0.1,3-0.2,3.6c-0.2,0.6-0.5,0.9-1,0.9c-0.5,0-0.8-0.3-1-0.9c-0.2-0.6-0.2-1.8-0.2-3.6v-5.1c0-1.3,0.1-2.3,0.3-2.8
		c0.2-0.5,0.5-0.8,0.9-0.8c0.4,0,0.8,0.3,0.9,0.8c0.2,0.5,0.3,1.5,0.3,2.8V288.5z"/>
	<polygon class="st0" points="429,295.4 430.7,295.4 432.4,295.4 432.4,284.2 436.7,284.2 436.7,282.3 436.7,280.4 432.4,280.4 
		432.4,273.3 436.9,273.3 436.9,271.4 436.9,269.4 429,269.4 	"/>
	<path class="st0" d="M446.1,287.3c0,1.5-0.1,2.7-0.4,3.4c-0.3,0.8-0.6,1.1-1.2,1.1c-0.7,0-1.1-0.4-1.4-1.3
		c-0.3-0.9-0.4-2.5-0.4-4.7v-8c0-1.7,0.1-3,0.4-3.7c0.3-0.8,0.7-1.2,1.4-1.2c0.5,0,0.8,0.3,1.1,1c0.2,0.7,0.3,1.7,0.3,3v0.8h3.4V277
		v-0.5c0-2.4-0.4-4.2-1.1-5.5c-0.8-1.3-2-2-3.7-2c-1.9,0-3.2,0.7-4,2.1c-0.8,1.4-1.2,3.8-1.2,7.3v8c0,3.4,0.4,5.8,1.2,7.2
		c0.8,1.4,2.1,2.1,4,2.1c1.8,0,3.1-0.6,3.8-1.9c0.7-1.3,1.1-3.5,1.1-6.5v-0.8h-3.4V287.3z"/>
	<path class="st0" d="M557,8.6l-1.2-5.9l-5.2,3.1c-58.1,34-152.4,54.2-252.1,54.2c-99.7,0-194-20.3-252.1-54.2l-5.2-3.1l-1.2,5.9
		c-20.7,101.1-18.8,204.8,5.6,299.8c34.7,135.1,110.6,234.3,208.3,272.1c14.3,5.5,29.1,9.7,43.8,12.5l0.8,0.1l0.8-0.1
		c14.8-2.7,29.5-6.9,43.8-12.5c97.7-37.8,173.7-137,208.3-272.1C575.8,213.4,577.8,109.7,557,8.6z M512.3,394.2
		c-16.8,37.1-37.4,69.8-61.1,97.3V330.4c-10.9,33.4-32.7,62-61.1,81.7v134.1c-15.9,10.7-32.7,19.5-50.1,26.2
		c-3.6,1.4-7.3,2.7-11,3.9V437.8c-9.9,1.9-20.1,2.9-30.5,2.9c-10.4,0-20.6-1-30.5-2.9v138.5c-3.7-1.2-7.3-2.5-10.9-3.9
		c-17.5-6.8-34.2-15.6-50.2-26.2V412.1c-28.4-19.7-50.2-48.3-61.1-81.7v161.1c-23.7-27.5-44.3-60.3-61.1-97.3V33.4
		c18.6,7.2,39.2,13.4,61.1,18.5v180.6c10.9-33.4,32.7-62,61.1-81.7v-88c19.8,2.5,40.3,4.3,61.1,5.1v57.2c9.9-1.9,20.1-2.9,30.5-2.9
		c10.4,0,20.6,1,30.5,2.9V68c20.8-0.9,41.3-2.6,61.1-5.1v88c28.4,19.7,50.2,48.3,61.1,81.7V51.9c21.9-5.1,42.5-11.3,61.1-18.5V394.2
		z"/>
	<path class="st0" d="M228.5,204.2c38.5,0.4,69.8,32,69.8,70.6c0,0.2,0.2,0.4,0.4,0.4c0.2,0,0.4-0.1,0.4-0.4
		c0-38.7,31.6-70.5,70.5-70.8c0.2,0,0.4-0.2,0.4-0.4c0-0.2-0.2-0.4-0.4-0.4c-38.9-0.4-70.5-31.7-70.5-69.8c0-0.2-0.2-0.4-0.4-0.4
		c-0.2,0-0.4,0.2-0.4,0.4c0,18.7-7.3,36.2-20.4,49.4c-13.1,13.2-30.7,20.5-49.3,20.7c-0.2,0-0.4,0.2-0.4,0.4
		C228.1,204.1,228.3,204.2,228.5,204.2z"/>
	<path class="st0" d="M369.5,359.6c-38.9-0.4-70.5-31.7-70.5-69.8c0-0.2-0.2-0.4-0.4-0.4c-0.2,0-0.4,0.2-0.4,0.4
		c0,18.7-7.3,36.2-20.4,49.4c-13.1,13.2-30.7,20.5-49.3,20.7c-0.2,0-0.4,0.2-0.4,0.4c0,0.2,0.2,0.4,0.4,0.4
		c38.5,0.4,69.8,32,69.8,70.6c0,0.2,0.2,0.4,0.4,0.4c0.2,0,0.4-0.1,0.4-0.4c0-38.7,31.6-70.5,70.5-70.8c0.2,0,0.4-0.2,0.4-0.4
		C369.9,359.8,369.7,359.6,369.5,359.6z"/>
	<path class="st0" d="M290,280.9c0.2,0,0.4-0.2,0.4-0.4c0-0.2-0.2-0.4-0.4-0.4c-38.9-0.4-70.5-31.7-70.5-69.8c0-0.2-0.2-0.4-0.4-0.4
		c-0.2,0-0.4,0.2-0.4,0.4c0,18.7-7.3,36.2-20.4,49.4c-13.1,13.2-30.7,20.5-49.3,20.7c-0.2,0-0.4,0.2-0.4,0.4c0,0.2,0.2,0.4,0.4,0.4
		c38.5,0.4,69.8,32,69.8,70.6c0,0.2,0.2,0.4,0.4,0.4c0.2,0,0.4-0.1,0.4-0.4C219.5,313,251.1,281.2,290,280.9z"/>
</g>
</svg>
