<?xml version="1.0" encoding="utf-8"?>
<!-- Generator: Adobe Illustrator 23.0.4, SVG Export Plug-In . SVG Version: 6.00 Build 0)  -->
<svg version="1.1" id="Layer_1" xmlns="http://www.w3.org/2000/svg" xmlns:xlink="http://www.w3.org/1999/xlink" x="0px" y="0px"
	 viewBox="0 0 595.3 595.3" style="enable-background:new 0 0 595.3 595.3;" xml:space="preserve">
<style type="text/css">
	.st0{fill-rule:evenodd;clip-rule:evenodd;fill:#163856;}
	.st1{fill:#002E5E;}
</style>
<g>
	<path class="st0" d="M505.6,539.6l0.2-8.5c-1.7,1.7-3.5,3.2-5.4,4.6v9.4c0,5.5-0.2,9.9-2.4,15.1c-4,9.4-13.2,16-23.4,16.1
		c-5.8,0.1-11.2-1.6-15.8-5.2c-6.4-5-9.4-12.3-12.5-19.6c-3.5-8.2-4.3-13.2-13.6-8.6c-2.3,1.1-4.5,2.5-6.1,3.6l-0.1,0.1l-0.1,0
		c-6.1,3.8-12,7.7-18,11.5c-7.3,4.5-14.7,8.4-22.5,11.9c-24.9,11.2-51.3,19.4-78.7,21.5c-31.3,2.3-66-1.8-95.9-11.4
		c-39.5-12.7-74.7-35.2-102-66.6c-14.1-16.2-25.7-34.2-35.4-53.3c-13.8-27.2-23.1-55.4-28.4-85.5c-6.7-37.9-7.4-77.6-3.2-115.9
		c5.1-46.6,17-87.7,39.7-129.1c20.7-37.8,47.9-67.9,84.6-90.8c21-13.1,42.4-22.2,66.3-28.6C267,1.2,300-0.2,334.6,7.4
		c15.7,3.5,30.5,8.1,45.1,14.8c14.2,6.5,27.7,14.6,41,22.7c2,1.3,7.2,4.5,11.8,6.7c7.7,3.6,8.8,2.7,12.4-4.9
		c0.9-1.9,1.6-3.6,1.9-4.4c4.2-10.5,8.5-19.6,20.5-23c8.9-2.5,18.4,0.2,25,6.6c7.1,6.9,8.3,14.8,8.2,24.2l0,25.6
		c10.8,7.9,19.2,21,23.6,37.1c8.5-15,17.2-22.2,29.3-33.7c2.6,23,5,41.9-0.3,61.7c-7.7,28.8-22.1,42-44,59.1
		c6.2,7.2,11.2,16.4,14.4,27c8.7-15.6,17.4-22.8,29.9-34.7c2.8,24.2,5.3,43.8-1.2,64.8c-8.2,26.7-21.3,38.9-41.9,55
		c5.9,7.2,10.5,16.3,13.5,26.6c8.6-15.3,17.3-22.5,29.6-34.1c2.8,24.2,5.3,43.8-1.2,64.9c-7.6,24.8-19.9,37.9-40,53.5
		c5.3,7.3,9.5,16.2,12.2,26.2c8.4-14.7,17.1-21.8,29-33.1c2.9,25.2,5.5,45.4-2,67.4C542.1,510.9,527.8,522.3,505.6,539.6
		L505.6,539.6z M422.7,491.2c-12.1,14.5-26.1,26.9-42.6,36.2c-42.9,24.1-99.6,26.5-142.6,1.3c-26.9-15.8-48.1-40.3-63.9-66.9
		c-18.8-31.8-30.6-68.3-36.1-104.7c-5.7-37.5-5-76.7,0.7-114.1c3-19.8,7.5-39.2,13.1-58.5l0.1-0.2l0.1-0.2
		c5.3-15.9,11.4-31.6,19.3-46.5c17.2-32.8,42.9-61,77.2-76.1c11-4.8,22.6-8.2,34.4-10.1c27.6-4.4,56.4-0.8,82.1,10
		c17.4,7.3,33.4,17.6,47.4,30.1c20.8,18.5,38.5,42.9,47.6,69.4c2.3,6.7,3.9,13.5,5.4,20.3c0.7,3.5,1.3,7.2,2,10.8
		c0.6,3.3,1.7,9.8,4.5,11.5c1.4,0.9,3.6,1,5.2,0.4c2.3-1,2.8-3.4,3-5.6c0.1-1.7,0-3.6,0.1-5.2c0-5.8,0-11.6,0-17.3
		c0-2.8,0-5.6,0-8.4c0-28,0-56.1,0-84.1c0-11,0-22,0-33c0-2.8,0.3-7.1-1.9-9.2c-1.3-1.3-3.1-2-4.9-1.5c-3.5,1-5.6,7.7-6.8,10.8
		c-4,10-9.7,20.8-21.1,23.6c-12.4,3.1-25-4.9-35.1-11.1C397.2,55,384.5,47.3,371,41.2c-13.3-6.1-26.7-10.3-40.9-13.4
		c-31.3-6.9-61-5.6-91.9,2.7c-21.9,5.9-41.4,14.2-60.7,26.2c-33.7,20.9-58.4,48.4-77.3,83.1c-21.3,39-32.4,77.4-37.2,121.4
		c-4,36.3-3.4,74,3,110c5,28,13.6,54.3,26.5,79.7c8.9,17.6,19.6,34.2,32.6,49.1c24.8,28.5,56.8,48.9,92.7,60.5
		c27.4,8.8,59.3,12.6,88,10.5c24.9-1.8,49-9.6,71.7-19.7c7-3.1,13.6-6.6,20.1-10.6c6-3.7,11.9-7.7,18-11.4c6.2-4,13.2-7.8,20.6-8.7
		c9.3-1.1,16.9,2.6,22.5,10c3,4,5,8.5,7,13c1.2,2.9,3.7,9.4,6.2,11.3c0.8,0.6,1.7,0.8,2.8,0.7c2,0,3.8-1.7,4.5-3.4
		c0.9-2.1,0.7-4.8,0.7-7c0-7.6,0-15.2,0-22.9v-74.8c0-10.3,0-20.4,0-30.7c0-4.3-0.1-10.3-0.7-14.8c-0.1-0.6-0.2-1.2-0.3-1.8
		c-0.5-2.6-1.2-4.6-2.8-5.6c-0.9-0.6-2-0.8-3.5-0.7c-5.1,0.3-6.1,4.1-7.4,8.5c-2.7,9.2-4.3,17.6-7.6,27
		C449.4,451.6,438.1,472.9,422.7,491.2L422.7,491.2z M545.5,437.9c0,0-27.3,26-28.8,79.9C516.6,517.8,551.5,490.6,545.5,437.9
		L545.5,437.9z M434.5,326.5c0,0,21.3,20.2,27.3,62.1c1.4-1.1,3.1-1.9,5-2.6c0.8-0.3,1.6-0.5,2.6-0.6c-0.1-0.6-0.4-1.4-0.7-2.3
		c-5.8-17.5-6.2-38.3,2.7-54.9c4.1-7.7,10-14.3,18.5-17.2v211.3c0,7.6,0,15.2,0,22.9c0,4,0,7.2-1.6,11.1c-2.3,5.6-7.9,9.7-14,9.8
		c-15.8,0.2-16.5-18.7-24.4-29.2c-3.3-4.4-7.4-6.6-13-5.9c-5.7,0.7-11.6,4.1-16.3,7.1c-15.2,9.4-22.1,15-39.4,22.8
		c-23.8,10.7-49.1,18.7-75.2,20.6c-29.8,2.2-63.5-1.8-91.9-11c-37.7-12.1-71.3-33.6-97.4-63.5c-13.2-15.2-24.4-32.3-34-51.2
		c-13.5-26.7-22.3-53.6-27.4-82.6c-6.5-36.8-7.2-75.8-3.1-112.9C57.4,216,68.2,176.4,91,134.7c19.9-36.5,45.9-65.1,81-86.9
		c20.4-12.7,40.3-21.2,63.5-27.4c32.8-8.8,63.9-10.1,96.8-2.8c34,7.5,53.6,18.3,82.9,36.3c7.1,4.4,18.7,12,27.2,9.8
		c7.3-1.8,11.4-10.9,14-17.4c2.8-7.1,5.5-14.6,13.6-16.9c5.4-1.5,11,0.2,15,4c4.7,4.6,5.1,10,5.1,16.7c0,11,0,22,0,33
		c0,67.3,0,134.4,0,201.8c0,5.7-0.1,11.5-0.2,17.2c0,0,0,0,0,0.1c-4.3-3.3-16.1-14-21.3-36c-3.9-16.7-4.2-36.4,5.2-51.4
		c-4.3-0.2-7.5-1.4-10-3.7c-5-4.5-6.4-14.2-7.6-20.6c-1.9-9.9-3.6-17.9-6.5-26.3c-8.5-24.7-25.3-47.7-44.7-65
		c-13.2-11.8-28.2-21.5-44.5-28.3c-24-10-50.8-13.4-76.5-9.3c-11,1.7-21.7,4.8-31.9,9.3c-32.2,14.2-56,40.8-72.2,71.5
		c-7.3,13.8-13.2,28.7-18.6,44.9c-5.8,19.9-10,38.2-12.8,57.1c-5.5,36.3-6.3,74.6-0.7,111c5.4,35.4,16.9,70.6,34.8,101
		c15.1,25.6,35.2,48.6,60.2,63.2c39.8,23.3,92.6,20.9,132.3-1.4c14.4-8.1,27.5-19.1,39.7-33.8c17.1-20.5,29.1-44.9,36.4-70.5
		c1.5-5.2,2.3-10.8,4.1-15.8C445.4,386.6,430.4,362.5,434.5,326.5L434.5,326.5z M434.5,214.1c0,0,27.3,26,28.8,79.9
		C463.3,294,428.4,266.8,434.5,214.1L434.5,214.1z M545.5,101c0,0-27.3,26-28.8,79.9C516.6,180.9,551.5,153.7,545.5,101L545.5,101z
		 M545.5,214.1c0,0-27.3,26-28.8,79.9C516.6,294,551.5,266.8,545.5,214.1L545.5,214.1z M545.5,326.5c0,0-27.3,26-28.8,79.9
		C516.6,406.3,551.5,379.2,545.5,326.5L545.5,326.5z M458.8,220.5c-0.8,2.1-1.6,4.3-2.3,6.6c-8.7-15.7-17.4-22.9-30-34.8
		c-2,17.2-4,31.7-2.4,46.6c1.7,16.6,8.7,34.9,18.8,48.3c7.2,9.6,15.6,16.2,27.1,25.1c-6.7,7.4-11.2,17.1-13.6,26.8
		c-8.3-14.9-17.7-23.1-29.8-34.6c-4.2,36.2-6.8,64.2,17.2,96c-0.9,3.5-1.5,7.1-2.6,10.6c-7,24.2-18.2,47.4-34.4,66.7
		c-10.5,12.6-22.5,23.3-36.9,31.4c-36.5,20.5-85.3,22.9-121.9,1.5c-23.8-13.9-42.6-36-56.5-59.5c-17.4-29.5-28.3-63.5-33.5-97.3
		c-5.4-35.4-4.6-72.5,0.7-107.9c2.9-18.9,7.2-37.3,12.5-55.6c5-14.8,10.6-29.4,17.9-43.2c15-28.6,37.2-53.6,67.2-66.8
		c9.4-4.1,19.2-7,29.3-8.6c23.8-3.8,48.7-0.7,70.9,8.6c15.2,6.4,29.3,15.5,41.6,26.5c18.1,16.1,33.9,37.6,41.8,60.6
		c2.8,8.1,4.5,16.5,6.1,25c1.8,9.2,3.5,19.7,10.8,26.3C457.4,219.5,458.1,220,458.8,220.5L458.8,220.5z"/>
</g>
<path class="st0" d="M271.6,200.1c4.1-2.4,8.1-4.9,12-7.5l0,44h-12L271.6,200.1L271.6,200.1z M225,269.5h-21.9v137.6
	c0,14.5,5.8,23.1,18.7,29.5c1.1,0.5,2.2,1.1,3.2,1.6L225,269.5L225,269.5z M400.4,269.5h-21.9v168.6c1.1-0.5,2.2-1,3.2-1.6
	c12.9-6.4,18.7-15,18.7-29.5L400.4,269.5L400.4,269.5z M356.6,269.5h-21.9V456c5.4-2.6,11.1-5,17.2-7.3l4.7-1.7V269.5L356.6,269.5z
	 M312.7,269.5h-21.9v199.4c1.1,0.8,2.3,1.6,3.4,2.4c2.5,1.8,5,3.6,7.5,5.5c2.5-1.8,5-3.7,7.5-5.5c1.1-0.8,2.3-1.6,3.4-2.4V269.5
	L312.7,269.5z M268.9,269.5H247V447l4.7,1.7c6.2,2.3,11.8,4.7,17.2,7.3V269.5L268.9,269.5z M292.5,175.3c-4.1,3.3-8.4,6.4-12.8,9.3
	c-5.5,3.8-11,7.2-16.9,10.3v62.2h8.8v-11.8h12v11.8h8.8L292.5,175.3L292.5,175.3z M319.1,195.1c5.2,4.5,10.3,8.7,14.4,14.6
	c2.5,3.6,3.7,6.7,3.5,9.6c-0.3,4.7-5.2,9.5-9.1,11.7c-2.5,1.4-5.4,2.2-8.8,2.7V195.1L319.1,195.1z M310.2,175.6V257h8.8v-14.5
	c2.4-0.2,4.7-0.8,7.1-1.6l6,16.1h9.4l-7.5-19.6c15.9-11,15.9-24.5,0-40.6C327.6,190.3,317.6,181.7,310.2,175.6L310.2,175.6z
	 M392.6,225.3l6.8-5.9c-1.5-2.3-3.6-4.5-5.8-6.2c-1.7-1.3-3.5-2.4-5.5-3.1c-5.4-2.1-12.1-2.2-17.5-0.3c-5.9,2.1-10.9,6.7-13.6,12.3
	c-3,6.2-3.1,13.8-0.5,20.1c2.4,5.9,7.2,10.8,13.4,13.2c6.7,2.7,14.7,2.3,20.9-1.3c3.2-1.8,6.6-4.9,8.7-8l-6.8-5.9
	c-0.6,0.9-1.3,1.9-2.2,2.9c-2.3,2.5-4.6,4.1-7.9,4.9c-2.8,0.6-5.9,0.5-8.5-0.4c-3.8-1.3-7.2-4.4-9-7.9c-1.8-3.5-2-8-0.8-11.7
	c1.3-4.1,4.6-7.7,8.5-9.5c3.6-1.6,8.2-1.7,11.9-0.3C387.9,219.5,390.9,222.2,392.6,225.3L392.6,225.3z M241.7,225.3l6.8-5.9
	c-1.5-2.3-3.6-4.5-5.8-6.2c-1.7-1.3-3.5-2.4-5.5-3.1c-5.4-2.1-12.1-2.2-17.5-0.3c-5.9,2.1-10.9,6.7-13.6,12.3
	c-3,6.2-3.1,13.8-0.5,20.1c2.4,5.9,7.2,10.8,13.3,13.2c6.7,2.7,14.7,2.3,20.9-1.3c3.2-1.8,6.6-4.9,8.7-8l-6.8-5.9
	c-0.6,0.9-1.3,1.9-2.2,2.9c-2.3,2.5-4.6,4.1-7.9,4.9c-2.8,0.6-5.9,0.5-8.5-0.4c-3.8-1.3-7.2-4.4-9-7.9c-1.8-3.5-2-8-0.8-11.7
	c1.3-4.1,4.6-7.7,8.5-9.5c3.6-1.6,8.2-1.7,11.9-0.3C237,219.5,240,222.2,241.7,225.3L241.7,225.3z M301.8,489.5
	c-4.7-3.5-9.1-6.8-13.5-9.9c-31.1-22-42.8-19.9-71-33.8c-16-7.9-24.4-19.8-24.4-38.7V225.9c0-7.5-1-14.5-2.9-21.1
	c41.5-6.4,81.2-23.2,111.8-52.4c30.6,29.2,70.2,46,111.8,52.4c-1.9,6.6-2.9,13.6-2.9,21.1V407c0,18.9-8.4,30.8-24.4,38.7
	c-28.2,14-40,11.8-71,33.8C310.9,482.6,306.4,485.9,301.8,489.5L301.8,489.5z"/>
<g>
	<polygon class="st1" points="392.2,154.1 397.4,164.8 409.2,166.5 400.7,174.8 402.7,186.5 392.2,181 381.7,186.5 383.7,174.8 
		375.2,166.5 386.9,164.8 	"/>
</g>
<g>
	<polygon class="st1" points="364.4,123.4 370.3,135.3 383.5,137.3 374,146.5 376.2,159.6 364.4,153.5 352.7,159.6 354.9,146.5 
		345.4,137.3 358.5,135.3 	"/>
</g>
<g>
	<polygon class="st1" points="325.9,94.2 332.4,107.3 347,109.4 336.5,119.7 338.9,134.2 325.9,127.3 313,134.2 315.4,119.7 
		304.9,109.4 319.4,107.3 	"/>
</g>
<g>
	<polygon class="st1" points="211.6,154.1 216.9,164.8 228.6,166.5 220.1,174.8 222.1,186.5 211.6,181 201.1,186.5 203.1,174.8 
		194.6,166.5 206.4,164.8 	"/>
</g>
<g>
	<polygon class="st1" points="239.2,123.4 245.1,135.3 258.2,137.3 248.7,146.5 250.9,159.6 239.2,153.5 227.4,159.6 229.6,146.5 
		220.1,137.3 233.3,135.3 	"/>
</g>
<g>
	<polygon class="st1" points="277.6,94.2 284.1,107.3 298.6,109.4 288.1,119.7 290.6,134.2 277.6,127.3 264.6,134.2 267.1,119.7 
		256.5,109.4 271.1,107.3 	"/>
</g>
</svg>
