<?xml version="1.0" encoding="utf-8"?>
<!-- Generator: Adobe Illustrator 23.0.4, SVG Export Plug-In . SVG Version: 6.00 Build 0)  -->
<svg version="1.1" id="Capa_1" xmlns="http://www.w3.org/2000/svg" xmlns:xlink="http://www.w3.org/1999/xlink" x="0px" y="0px"
	 viewBox="0 0 595.3 595.3" style="enable-background:new 0 0 595.3 595.3;" xml:space="preserve">
<style type="text/css">
	.st0{fill-rule:evenodd;clip-rule:evenodd;fill:#163856;}
	.st1{fill-rule:evenodd;clip-rule:evenodd;fill:#FFFFFF;}
</style>
<path class="st0" d="M541.2,53.5c-25.4,13.5-58.8,21.6-95.5,21.6c-73.6,0-136-32.7-148.1-75.1c-12.1,42.4-74.5,75.1-148.1,75.1
	c-36.7,0-70.1-8.2-95.5-21.6c-12.1,41.6-18.6,85.8-18.6,131.6c0,188,109.5,348.9,262.2,410.2C450.4,534,559.8,373.1,559.8,185.1
	C559.8,139.3,553.3,95,541.2,53.5z M297.6,579.1C152,515.4,49,362,49,183.7c0-39,4.9-76.9,14.2-112.8c24.2,9.8,53.7,15.5,85.6,15.5
	c69.3,0,129-27,148.9-63.7c19.8,36.7,79.5,63.7,148.9,63.7c31.9,0,61.4-5.7,85.6-15.5c9.2,36,14.2,73.8,14.2,112.8
	C546.3,362,443.2,515.4,297.6,579.1z"/>
<path class="st0" d="M521.9,86.9c-22.4,7.1-48.5,11.2-76.3,11.2c-66.1,0-123.7-23.1-148-55.5c-24.2,32.5-81.9,55.5-148,55.5
	c-27.8,0-53.9-4.1-76.3-11.2c-6.9,30.8-10.6,62.9-10.6,95.8c0,169.3,96.6,315.8,234.9,381.7C435.9,498.5,532.5,352,532.5,182.7
	C532.5,149.8,528.8,117.7,521.9,86.9z M164.5,438.6c-21.2-26.5-39.1-55.9-53.3-87.3V106.2c12.5,1.7,25.6,2.5,39.1,2.5
	c4.8,0,9.5-0.1,14.2-0.3V438.6z M271,532.3c-18.8-11.3-36.6-24.2-53.3-38.5V101c20.1-4.8,38.1-11.6,53.3-20V532.3z M377.6,493.9
	c-16.7,14.3-34.5,27.1-53.3,38.5V81.1c15.1,8.4,33.2,15.2,53.3,20V493.9z M484.1,351.3c-14.1,31.5-32.1,60.8-53.3,87.3V108.4
	c4.7,0.2,9.4,0.3,14.2,0.3c13.5,0,26.6-0.9,39.1-2.5V351.3z"/>
<path class="st1" d="M300.3,151c73.6,0,133.6,60,133.6,133.6s-60,133.6-133.6,133.6s-133.6-60-133.6-133.6
	C166.7,211,226.7,151,300.3,151z"/>
<g>
	<path class="st0" d="M205.6,284.5c0-52.1,42.5-94.6,94.6-94.6c9.3,0,18.2,1.3,26.7,3.8v-16.3c-8.5-2.1-17.5-3.3-26.7-3.3
		c-60.8,0-110.3,49.6-110.3,110.3c0,60.8,49.6,110.3,110.3,110.3c9.3,0.2,18.2-1,26.7-3.1v-16.3c-8.5,2.5-17.4,3.8-26.7,3.8
		C248.1,379.1,205.6,336.6,205.6,284.5z"/>
	<path class="st0" d="M326.9,351.4v-147c-4.9-1.7-10-2.9-15.3-3.6h-0.1v167.5c15.3-2.1,29.2-8.2,40.8-17.3v-16.9
		C345.3,341.6,336.6,347.5,326.9,351.4z"/>
	<path class="st0" d="M259.9,358.7L259.9,358.7l0.1-139.4v-8.9c-26.2,14.4-44.1,42.3-44.1,74.2c0,15.5,4.2,30.1,11.6,42.6h15
		c-7.7-10.4-12.6-22.9-13.8-36.4h19.1v59.8C251.6,353.6,255.6,356.4,259.9,358.7z M247.7,278.3h-19.1c1.4-16.5,8.4-31.4,19.1-42.8
		V278.3z"/>
	<path class="st0" d="M282.4,312.7h-15.8V346c1.5,9.9,9.2,18.6,19,21.8c2,0.4,4.1,0.7,6.2,0.9c6.6-0.4,11.9-6.3,12.8-13.8v-60.7
		c-0.1-0.9-0.4-2.1-0.9-3.3c-0.6-1.4-1.3-2.7-2.1-3.7l-16.8-19.8c-0.8-1-1.5-2.3-2.1-3.7c-0.4-1-0.7-1.9-0.8-2.7v-19.8
		c0-0.1,0-0.3,0-0.4c0-2.1,1.4-3.8,3.2-3.8c1.7,0,3.2,1.7,3.2,3.7v11.1h16.2V219c-1.2-10.8-10.6-18.2-22.1-17.1
		c-2.5,0.6-5,1.2-7.4,2c-4.5,2.1-7.8,6.8-8.5,12.5v52.3c0.1,0.9,0.4,2.1,0.9,3.4c0.4,1.1,1,2.2,1.6,3.1l19.9,23.1
		c0.5,0.8,0.9,1.7,1.3,2.6c0.4,0.9,0.7,1.8,0.8,2.6v29.9c0,0.1,0,0.3,0,0.4c0,3-1.9,5.4-4.3,5.4c-2.4,0-4.3-2.4-4.3-5.4
		c0-0.2,0-0.4,0-0.6V312.7z"/>
	<path class="st0" d="M361.9,193.2c0.1,0,0.1,0.1,0.2,0.1v-0.1H361.9z"/>
	<path class="st0" d="M362.1,193.3v149c6.7-7.1,12.2-15.5,16.1-24.7v-25.1h16.4c-2.5,29.6-18.7,55.4-42.2,71v18.3
		c34.6-18.7,58.2-55.3,58.2-97.2C410.6,246.7,391.3,213.3,362.1,193.3z M378.1,276.7v-45.8c9.1,13.2,15,28.9,16.4,45.8H378.1z"/>
	<path class="st0" d="M300.3,158.6c-69.4,0-125.9,56.5-125.9,126c0,69.4,56.5,125.9,125.9,125.9c69.4,0,126-56.5,126-125.9
		C426.2,215.2,369.7,158.6,300.3,158.6z M300.3,405c-66.4,0-120.5-54-120.5-120.4s54-120.5,120.5-120.5c66.4,0,120.5,54,120.5,120.5
		S366.7,405,300.3,405z"/>
	<path class="st0" d="M343.3,293.4c1.2-2,1.8-5,1.8-8.9c0-4-0.6-7.1-1.9-9.2c-1.3-2.1-3.1-3.2-5.5-3.2h-6.9v24.3h7.3
		C340.4,296.4,342.1,295.4,343.3,293.4z M334.8,291.1v-13.6h2c1.4,0,2.4,0.6,3.1,1.7c0.7,1.1,1,2.9,1,5.2c0,2.4-0.3,4.1-1,5.1
		c-0.6,1.1-1.7,1.6-3.1,1.6H334.8z"/>
	<polygon class="st0" points="357.9,291.1 350.9,291.1 350.9,286.4 357.1,286.4 357.1,281.3 350.9,281.3 350.9,277.4 357.6,277.4 
		357.6,272.2 346.8,272.2 346.8,296.4 357.9,296.4 	"/>
</g>
</svg>
