<svg width="595.3" height="595.3" xmlns="http://www.w3.org/2000/svg">

 <g>
  <title>background</title>
  <rect fill="none" id="canvas_background" height="151.12" width="151.12" y="-1" x="-1"/>
 </g>
 <g>
  <title>Layer 1</title>
  <path fill="#18222c" clip-rule="evenodd" fill-rule="evenodd" id="svg_1" d="m541.2,53.5c-25.4,13.5 -58.8,21.6 -95.5,21.6c-73.6,0 -136,-32.7 -148.1,-75.1c-12.1,42.4 -74.5,75.1 -148.1,75.1c-36.7,0 -70.1,-8.2 -95.5,-21.6c-12.1,41.6 -18.6,85.8 -18.6,131.6c0,188 109.5,348.9 262.2,410.2c152.8,-61.3 262.2,-222.2 262.2,-410.2c0,-45.8 -6.5,-90.1 -18.6,-131.6zm-243.6,525.6c-145.6,-63.7 -248.6,-217.1 -248.6,-395.4c0,-39 4.9,-76.9 14.2,-112.8c24.2,9.8 53.7,15.5 85.6,15.5c69.3,0 129,-27 148.9,-63.7c19.8,36.7 79.5,63.7 148.9,63.7c31.9,0 61.4,-5.7 85.6,-15.5c9.2,36 14.2,73.8 14.2,112.8c-0.1,178.3 -103.2,331.7 -248.8,395.4z" class="st0"/>
  <path fill="#18222c" clip-rule="evenodd" fill-rule="evenodd" id="svg_2" d="m521.9,86.9c-22.4,7.1 -48.5,11.2 -76.3,11.2c-66.1,0 -123.7,-23.1 -148,-55.5c-24.2,32.5 -81.9,55.5 -148,55.5c-27.8,0 -53.9,-4.1 -76.3,-11.2c-6.9,30.8 -10.6,62.9 -10.6,95.8c0,169.3 96.6,315.8 234.9,381.7c138.3,-65.9 234.9,-212.4 234.9,-381.7c0,-32.9 -3.7,-65 -10.6,-95.8zm-357.4,351.7c-21.2,-26.5 -39.1,-55.9 -53.3,-87.3l0,-245.1c12.5,1.7 25.6,2.5 39.1,2.5c4.8,0 9.5,-0.1 14.2,-0.3l0,330.2zm106.5,93.7c-18.8,-11.3 -36.6,-24.2 -53.3,-38.5l0,-392.8c20.1,-4.8 38.1,-11.6 53.3,-20l0,451.3zm106.6,-38.4c-16.7,14.3 -34.5,27.1 -53.3,38.5l0,-451.3c15.1,8.4 33.2,15.2 53.3,20l0,392.8zm106.5,-142.6c-14.1,31.5 -32.1,60.8 -53.3,87.3l0,-330.2c4.7,0.2 9.4,0.3 14.2,0.3c13.5,0 26.6,-0.9 39.1,-2.5l0,245.1z" class="st0"/>
  <path fill="#ffffff" clip-rule="evenodd" fill-rule="evenodd" id="svg_3" d="m300.3,151c73.6,0 133.6,60 133.6,133.6s-60,133.6 -133.6,133.6s-133.6,-60 -133.6,-133.6c0,-73.6 60,-133.6 133.6,-133.6z" class="st1"/>
  <path fill="#18222c" clip-rule="evenodd" fill-rule="evenodd" id="svg_5" d="m205.6,284.5c0,-52.1 42.5,-94.6 94.6,-94.6c9.3,0 18.2,1.3 26.7,3.8l0,-16.3c-8.5,-2.1 -17.5,-3.3 -26.7,-3.3c-60.8,0 -110.3,49.6 -110.3,110.3c0,60.8 49.6,110.3 110.3,110.3c9.3,0.2 18.2,-1 26.7,-3.1l0,-16.3c-8.5,2.5 -17.4,3.8 -26.7,3.8c-52.1,0 -94.6,-42.5 -94.6,-94.6z" class="st0"/>
  <path fill="#18222c" clip-rule="evenodd" fill-rule="evenodd" id="svg_6" d="m326.9,351.4l0,-147c-4.9,-1.7 -10,-2.9 -15.3,-3.6l-0.1,0l0,167.5c15.3,-2.1 29.2,-8.2 40.8,-17.3l0,-16.9c-7,7.5 -15.7,13.4 -25.4,17.3z" class="st0"/>
  <path fill="#18222c" clip-rule="evenodd" fill-rule="evenodd" id="svg_7" d="m259.9,358.7l0,0l0.1,-139.4l0,-8.9c-26.2,14.4 -44.1,42.3 -44.1,74.2c0,15.5 4.2,30.1 11.6,42.6l15,0c-7.7,-10.4 -12.6,-22.9 -13.8,-36.4l19.1,0l0,59.8c3.8,3 7.8,5.8 12.1,8.1zm-12.2,-80.4l-19.1,0c1.4,-16.5 8.4,-31.4 19.1,-42.8l0,42.8z" class="st0"/>
  <path fill="#18222c" clip-rule="evenodd" fill-rule="evenodd" id="svg_8" d="m282.4,312.7l-15.8,0l0,33.3c1.5,9.9 9.2,18.6 19,21.8c2,0.4 4.1,0.7 6.2,0.9c6.6,-0.4 11.9,-6.3 12.8,-13.8l0,-60.7c-0.1,-0.9 -0.4,-2.1 -0.9,-3.3c-0.6,-1.4 -1.3,-2.7 -2.1,-3.7l-16.8,-19.8c-0.8,-1 -1.5,-2.3 -2.1,-3.7c-0.4,-1 -0.7,-1.9 -0.8,-2.7l0,-19.8c0,-0.1 0,-0.3 0,-0.4c0,-2.1 1.4,-3.8 3.2,-3.8c1.7,0 3.2,1.7 3.2,3.7l0,11.1l16.2,0l0,-32.8c-1.2,-10.8 -10.6,-18.2 -22.1,-17.1c-2.5,0.6 -5,1.2 -7.4,2c-4.5,2.1 -7.8,6.8 -8.5,12.5l0,52.3c0.1,0.9 0.4,2.1 0.9,3.4c0.4,1.1 1,2.2 1.6,3.1l19.9,23.1c0.5,0.8 0.9,1.7 1.3,2.6c0.4,0.9 0.7,1.8 0.8,2.6l0,29.9c0,0.1 0,0.3 0,0.4c0,3 -1.9,5.4 -4.3,5.4c-2.4,0 -4.3,-2.4 -4.3,-5.4c0,-0.2 0,-0.4 0,-0.6l0,-20.5z" class="st0"/>
  <path fill="#163856" clip-rule="evenodd" fill-rule="evenodd" id="svg_9" d="m361.9,193.2c0.1,0 0.1,0.1 0.2,0.1l0,-0.1l-0.2,0z" class="st0"/>
  <path fill="#18222c" clip-rule="evenodd" fill-rule="evenodd" id="svg_10" d="m362.1,193.3l0,149c6.7,-7.1 12.2,-15.5 16.1,-24.7l0,-25.1l16.4,0c-2.5,29.6 -18.7,55.4 -42.2,71l0,18.3c34.6,-18.7 58.2,-55.3 58.2,-97.2c0,-37.9 -19.3,-71.3 -48.5,-91.3zm16,83.4l0,-45.8c9.1,13.2 15,28.9 16.4,45.8l-16.4,0z" class="st0"/>
  <path fill="#18222c" clip-rule="evenodd" fill-rule="evenodd" id="svg_11" d="m300.3,158.6c-69.4,0 -125.9,56.5 -125.9,126c0,69.4 56.5,125.9 125.9,125.9c69.4,0 126,-56.5 126,-125.9c-0.1,-69.4 -56.6,-126 -126,-126zm0,246.4c-66.4,0 -120.5,-54 -120.5,-120.4s54,-120.5 120.5,-120.5c66.4,0 120.5,54 120.5,120.5s-54.1,120.4 -120.5,120.4z" class="st0"/>
  <path fill="#18222c" clip-rule="evenodd" fill-rule="evenodd" id="svg_12" d="m343.3,293.4c1.2,-2 1.8,-5 1.8,-8.9c0,-4 -0.6,-7.1 -1.9,-9.2c-1.3,-2.1 -3.1,-3.2 -5.5,-3.2l-6.9,0l0,24.3l7.3,0c2.3,0 4,-1 5.2,-3zm-8.5,-2.3l0,-13.6l2,0c1.4,0 2.4,0.6 3.1,1.7c0.7,1.1 1,2.9 1,5.2c0,2.4 -0.3,4.1 -1,5.1c-0.6,1.1 -1.7,1.6 -3.1,1.6l-2,0z" class="st0"/>
  <polygon fill="#18222c" clip-rule="evenodd" fill-rule="evenodd" id="svg_13" points="357.9,291.1 350.9,291.1 350.9,286.4 357.1,286.4 357.1,281.3 350.9,281.3 350.9,277.4 357.6,277.4    357.6,272.2 346.8,272.2 346.8,296.4 357.9,296.4  " class="st0"/>
 </g>
</svg>